<svg width="81" height="82" viewBox="0 0 81 82" fill="none" xmlns="http://www.w3.org/2000/svg">
<path fill-rule="evenodd" clip-rule="evenodd" d="M29.8201 14.5208C28.6273 14.5208 27.6997 15.5582 27.8325 16.7435L28.6341 23.8958H51.4377L52.2393 16.7435C52.3721 15.5582 51.4445 14.5208 50.2517 14.5208H29.8201ZM25.0718 7.80128C22.2436 7.80128 20.0435 10.3776 20.3567 13.3228L21.6717 25.689C21.9393 28.2059 23.9699 30.1096 26.3868 30.1096H53.685C56.1019 30.1096 58.1325 28.2059 58.4001 25.689L59.7151 13.3228C60.0283 10.3776 57.8282 7.80128 55 7.80128H25.0718Z" fill="#656D7B"/>
<rect x="29.7632" y="6.105" width="20.5453" height="10.1777" rx="1" fill="#383D47"/>
<path d="M68.5782 48.4456C68.5782 64.2091 55.7994 76.9879 40.0359 76.9879C24.2725 76.9879 11.4937 64.2091 11.4937 48.4456C11.4937 32.6821 24.2725 19.9033 40.0359 19.9033C55.7994 19.9033 68.5782 32.6821 68.5782 48.4456Z" fill="#656D7B"/>
<path fill-rule="evenodd" clip-rule="evenodd" d="M40.0359 74.2182C54.371 74.2182 65.9919 62.5973 65.9919 48.2622C65.9919 33.9271 54.371 22.3062 40.0359 22.3062C25.7008 22.3062 14.0799 33.9271 14.0799 48.2622C14.0799 62.5973 25.7008 74.2182 40.0359 74.2182ZM40.0359 76.8045C55.7994 76.8045 68.5782 64.0257 68.5782 48.2622C68.5782 32.4988 55.7994 19.72 40.0359 19.72C24.2725 19.72 11.4937 32.4988 11.4937 48.2622C11.4937 64.0257 24.2725 76.8045 40.0359 76.8045Z" fill="#9DA5AE"/>
<path d="M50.2729 45.9153C49.9438 44.7348 48.9955 44.0574 47.6214 44.0574C45.5699 44.0574 44.2538 45.6057 44.2538 48.3346C44.2538 51.0828 45.4925 52.6504 47.6214 52.6504C49.489 52.6504 50.5438 51.6731 50.5825 50.1538H47.7569V47.7346H53.7565V49.5732C53.7565 53.3085 51.1825 55.5535 47.602 55.5535C43.5958 55.5535 40.8863 52.8053 40.8863 48.3733C40.8863 43.7864 43.8281 41.1543 47.544 41.1543C50.7761 41.1543 53.2727 43.1284 53.6211 45.9153H50.2729Z" fill="#EEEFF2"/>
<path d="M28.4805 55.36V41.3478H31.7706V47.3282H31.9642L36.6671 41.3478H40.5766L35.564 47.5991L40.654 55.36H36.7058L33.1641 49.8054L31.7706 51.5279V55.36H28.4805Z" fill="#EEEFF2"/>
</svg>
