<svg width="80" height="82" viewBox="0 0 80 82" fill="none" xmlns="http://www.w3.org/2000/svg">
<ellipse cx="46.4179" cy="39.8482" rx="30.8352" ry="32.2768" fill="#FFEACE"/>
<path d="M58.1954 41.3117C60.7973 41.3117 62.9065 39.2025 62.9065 36.6007C62.9065 33.9988 60.7973 31.8896 58.1954 31.8896C55.5936 31.8896 53.4844 33.9988 53.4844 36.6007C53.4844 39.2025 55.5936 41.3117 58.1954 41.3117Z" fill="#13151B"/>
<path d="M34.6403 41.3116C37.2422 41.3116 39.3514 39.2024 39.3514 36.6006C39.3514 33.9987 37.2422 31.8895 34.6403 31.8895C32.0385 31.8895 29.9293 33.9987 29.9293 36.6006C29.9293 39.2024 32.0385 41.3116 34.6403 41.3116Z" fill="#13151B"/>
<path fill-rule="evenodd" clip-rule="evenodd" d="M38.7314 47.0631C37.2838 47.0631 36.2986 48.5229 37.0853 49.738C39.2325 53.0543 42.6141 55.1929 46.4179 55.1929C50.2216 55.1929 53.6032 53.0543 55.7504 49.738C56.5372 48.5229 55.552 47.0631 54.1043 47.0631H38.7314Z" fill="#A7242D"/>
<path d="M13.4401 37.9371C13.8512 36.8261 15.4225 36.8261 15.8336 37.9371L18.4542 45.019C18.5834 45.3683 18.8588 45.6437 19.2081 45.7729L26.29 48.3935C27.401 48.8046 27.4009 50.3759 26.29 50.787L19.2081 53.4075C18.8588 53.5368 18.5834 53.8121 18.4542 54.1614L15.8336 61.2433C15.4225 62.3543 13.8512 62.3543 13.4401 61.2433L10.8196 54.1614C10.6903 53.8121 10.4149 53.5368 10.0657 53.4075L2.98373 50.787C1.87277 50.3759 1.87278 48.8046 2.98373 48.3935L10.0657 45.7729C10.4149 45.6437 10.6903 45.3683 10.8196 45.019L13.4401 37.9371Z" fill="#BED8FF"/>
<path d="M28.5269 58.6656C28.8694 57.7398 30.1789 57.7398 30.5214 58.6656L31.6521 61.7213C31.7598 62.0123 31.9893 62.2418 32.2804 62.3495L35.336 63.4802C36.2618 63.8228 36.2618 65.1322 35.336 65.4748L32.2804 66.6055C31.9893 66.7132 31.7598 66.9427 31.6521 67.2338L30.5214 70.2894C30.1789 71.2152 28.8694 71.2152 28.5269 70.2894L27.3962 67.2338C27.2885 66.9427 27.059 66.7132 26.7679 66.6055L23.7123 65.4748C22.7865 65.1322 22.7865 63.8228 23.7123 63.4802L26.7679 62.3495C27.059 62.2418 27.2885 62.0123 27.3962 61.7213L28.5269 58.6656Z" fill="#BED8FF"/>
</svg>
