<svg width="80" height="81" viewBox="0 0 80 81" fill="none" xmlns="http://www.w3.org/2000/svg">
<path d="M7.09272 63.396C5.39155 47.688 16.6425 33.3719 31.985 29.4909C32.9851 29.2379 33.9631 29.0215 34.9181 28.8382C50.538 25.8395 62.2999 39.0905 68.3878 53.7596L68.9706 55.1638C70.6742 59.2688 69.3032 63.8152 65.0698 65.1881C60.4342 66.6913 53.068 68.2626 41.9377 68.6979C23.6014 69.415 12.6309 68.4278 8.95883 68.0015C8.13464 67.9058 7.5101 67.2499 7.42092 66.4264L7.09272 63.396Z" fill="#4067CC"/>
<path fill-rule="evenodd" clip-rule="evenodd" d="M58.5381 55.5061C61.2363 57.9446 63.6285 60.8718 65.2616 63.1832C65.7286 63.8443 65.5361 64.7528 64.8574 65.1948C64.1787 65.6367 63.2712 65.4454 62.8026 64.7855C61.271 62.6291 59.0437 59.9146 56.5686 57.6777C55.0863 56.338 53.5569 55.208 52.0732 54.464C51.1725 54.0124 50.3259 53.7215 49.5407 53.5947C48.7408 53.4655 47.9957 52.9073 47.8928 52.1049C47.7898 51.3025 48.3621 50.5569 49.1708 50.608C50.6196 50.6995 52.0481 51.1734 53.3904 51.8464C55.1904 52.7489 56.9389 54.0608 58.5381 55.5061Z" fill="#0034BB"/>
<path d="M4.95232 67.0676C4.98585 62.4274 7.59974 58.2215 12.0931 57.0323C17.0751 55.7139 24.727 54.3837 35.1846 54.459C44.7599 54.5279 51.3177 55.731 55.585 56.9914C60.0569 58.3122 62.3062 62.6481 62.2726 67.3033L62.2702 67.6318C62.243 71.4016 57.8819 74.2265 54.2106 73.3426C49.4708 72.2016 42.4652 71.1254 32.7779 71.0557C23.7893 70.9909 17.3911 71.8326 13.0105 72.818C9.47309 73.6138 4.92617 70.6873 4.95232 67.0676Z" fill="#8099DD"/>
<path d="M77.814 62.331C79.1022 67.4058 76.0254 72.5621 70.9417 73.8481C65.858 75.1341 60.6925 72.0626 59.4043 66.9879C58.1161 61.9131 61.1929 56.7568 66.2766 55.4708C71.3603 54.1848 76.5258 57.2563 77.814 62.331Z" fill="#E9F2FF"/>
<path fill-rule="evenodd" clip-rule="evenodd" d="M14.9979 18.9103C14.9979 17.9971 15.7394 17.2569 16.6542 17.2569H23.616C24.2859 17.2569 24.8899 17.6597 25.1462 18.2776C25.4026 18.8954 25.2609 19.6066 24.7872 20.0795L21.6284 23.2327C21.465 23.3959 21.4161 23.6412 21.5046 23.8544C21.593 24.0675 21.8014 24.2065 22.0325 24.2065H23.616C24.5307 24.2065 25.2723 24.9468 25.2723 25.8599C25.2723 26.7731 24.5307 27.5134 23.616 27.5134H16.6542C15.9843 27.5134 15.3803 27.1105 15.1239 26.4927C14.8676 25.8748 15.0093 25.1636 15.483 24.6908L18.6417 21.5376C18.8052 21.3744 18.854 21.1291 18.7656 20.9159C18.6771 20.7028 18.4688 20.5638 18.2377 20.5638H16.6542C15.7394 20.5638 14.9979 19.8235 14.9979 18.9103Z" fill="#4F5763"/>
<path fill-rule="evenodd" clip-rule="evenodd" d="M28.9211 12.1063C28.9211 11.0849 29.7506 10.2568 30.7739 10.2568H38.5611C39.3105 10.2568 39.9861 10.7075 40.2728 11.3986C40.5596 12.0897 40.4011 12.8852 39.8712 13.4141L36.3379 16.9412C36.1551 17.1237 36.1004 17.3982 36.1994 17.6366C36.2983 17.875 36.5314 18.0305 36.7899 18.0305H38.5611C39.5844 18.0305 40.4139 18.8585 40.4139 19.88C40.4139 20.9014 39.5844 21.7295 38.5611 21.7295H30.7739C30.0245 21.7295 29.3489 21.2789 29.0622 20.5878C28.7754 19.8966 28.9339 19.1011 29.4638 18.5722L32.9971 15.0451C33.1799 14.8626 33.2346 14.5882 33.1356 14.3497C33.0367 14.1113 32.8036 13.9558 32.5451 13.9558H30.7739C29.7506 13.9558 28.9211 13.1278 28.9211 12.1063Z" fill="#4F5763"/>
</svg>
