<svg width="81" height="82" viewBox="0 0 81 82" fill="none" xmlns="http://www.w3.org/2000/svg">
<path d="M21.6589 41.3728C21.6589 39.3408 21.6589 38.3248 21.847 37.4799C22.6193 34.0103 25.6546 31.2981 29.5376 30.6079C30.4831 30.4398 31.6202 30.4398 33.8942 30.4398C36.1683 30.4398 37.3054 30.4398 38.2509 30.6079C42.1339 31.2981 45.1692 34.0103 45.9415 37.4799C46.1296 38.3248 46.1296 39.3408 46.1296 41.3728V62.4078C46.1296 65.2294 46.1296 66.6401 45.4284 67.6809C45.0166 68.2921 44.4438 68.8039 43.7598 69.1719C42.595 69.7985 41.0162 69.7985 37.8585 69.7985H29.93C26.7723 69.7985 25.1935 69.7985 24.0287 69.1719C23.3447 68.8039 22.7719 68.2921 22.3601 67.6809C21.6589 66.6401 21.6589 65.2294 21.6589 62.4078V41.3728Z" fill="#40D48B"/>
<path d="M28.5361 21.1383H39.2524V39.1242H28.5361V21.1383Z" fill="#40D48B"/>
<path d="M26.26 19.3145C26.26 16.3943 26.26 14.9342 27.1544 14.027C28.0488 13.1199 29.4884 13.1199 32.3674 13.1199H35.4211C38.3002 13.1199 39.7397 13.1199 40.6341 14.027C41.5285 14.9342 41.5285 16.3943 41.5285 19.3145C41.5285 20.7746 41.5285 21.5046 41.0813 21.9582C40.6341 22.4118 39.9143 22.4118 38.4748 22.4118H29.3137C27.8742 22.4118 27.1544 22.4118 26.7072 21.9582C26.26 21.5046 26.26 20.7746 26.26 19.3145Z" fill="#13683E"/>
<path d="M21.6589 41.4294H46.1296V57.9779H21.6589V41.4294Z" fill="#E3FBF0"/>
<path d="M49.9603 58.6893C49.6643 55.6866 49.5163 54.1853 50.3742 53.2238C51.2321 52.2622 52.7197 52.2622 55.6948 52.2622H60.2477C63.2228 52.2622 64.7104 52.2622 65.5683 53.2238C66.4263 54.1853 66.2782 55.6866 65.9822 58.6893L65.4059 64.5347C65.1593 67.0363 65.0359 68.2871 64.2127 69.0428C63.3895 69.7984 62.1501 69.7984 59.6714 69.7984H56.2711C53.7924 69.7984 52.553 69.7984 51.7298 69.0428C50.9066 68.2871 50.7833 67.0363 50.5366 64.5347L49.9603 58.6893Z" fill="#93BEFF"/>
<path d="M52.6412 64.564C52.5023 62.8944 52.4329 62.0596 52.8046 61.4575C52.9416 61.2356 53.1178 61.0411 53.3244 60.8839C53.8846 60.4577 54.7106 60.4577 56.3625 60.4577H59.5802C61.2321 60.4577 62.0581 60.4577 62.6183 60.8839C62.8248 61.0411 63.0011 61.2356 63.1381 61.4575C63.5098 62.0596 63.4403 62.8944 63.3015 64.564C63.1823 65.9969 63.1227 66.7133 62.7385 67.213C62.5959 67.3984 62.4241 67.5586 62.23 67.6871C61.7068 68.0334 60.9979 68.0334 59.5802 68.0334H56.3625C54.9448 68.0334 54.2359 68.0334 53.7127 67.6871C53.5186 67.5586 53.3468 67.3984 53.2042 67.213C52.82 66.7133 52.7604 65.9969 52.6412 64.564Z" fill="#E9F2FF"/>
</svg>
