<svg width="167" height="36" viewBox="0 0 167 36" fill="none" xmlns="http://www.w3.org/2000/svg">
<g clip-path="url(#clip0_365_16026)">
<path d="M60.4848 10.8582V25.4673C60.4851 25.4955 60.48 25.5235 60.4696 25.5496C60.4592 25.5757 60.4439 25.5995 60.4244 25.6196C60.4049 25.6396 60.3818 25.6556 60.3562 25.6664C60.3307 25.6773 60.3033 25.6829 60.2756 25.6829H57.6641C57.6362 25.6832 57.6085 25.6779 57.5827 25.6672C57.5569 25.6565 57.5334 25.6406 57.5137 25.6205C57.494 25.6004 57.4784 25.5765 57.4679 25.5502C57.4573 25.5239 57.4521 25.4957 57.4524 25.4673V23.1657C56.9116 24.0544 56.1527 24.7842 55.2507 25.2832C54.3486 25.7822 53.3345 26.0332 52.3082 26.0113C48.37 26.0113 45.4902 22.752 45.4902 18.164C45.4902 13.5759 48.4069 10.3141 52.2713 10.3141C53.3057 10.2986 54.3263 10.5577 55.2326 11.0659C56.1389 11.5741 56.8997 12.3138 57.4401 13.2124V10.8557C57.4401 10.8275 57.4456 10.7996 57.4563 10.7735C57.4669 10.7475 57.4826 10.7239 57.5023 10.7041C57.5219 10.6843 57.5453 10.6686 57.571 10.6581C57.5966 10.6475 57.6241 10.6422 57.6518 10.6426H60.2633C60.3188 10.6426 60.372 10.665 60.4112 10.705C60.4505 10.745 60.4725 10.7992 60.4725 10.8557L60.4848 10.8582ZM57.477 18.164C57.477 15.2933 55.508 13.27 52.9408 13.27C50.3736 13.27 48.5374 15.2933 48.5374 18.164C48.5374 21.0347 50.3908 23.0579 52.9408 23.0579C55.4907 23.0579 57.477 21.0522 57.477 18.164Z" fill="#010101"/>
<path d="M64.1604 4.62842H66.799C66.8549 4.62907 66.9084 4.65199 66.9479 4.69229C66.9875 4.73258 67.01 4.78705 67.0106 4.84403V25.4678C67.0106 25.5249 66.9883 25.5798 66.9486 25.6202C66.909 25.6606 66.8551 25.6834 66.799 25.6834H64.1604C64.1327 25.6834 64.1053 25.6778 64.0798 25.6669C64.0542 25.656 64.0311 25.6401 64.0116 25.6201C63.9921 25.6 63.9768 25.5762 63.9664 25.5501C63.956 25.5239 63.9509 25.4959 63.9512 25.4678V4.84403C63.9512 4.78728 63.9731 4.73281 64.0123 4.69245C64.0515 4.65208 64.1047 4.62908 64.1604 4.62842Z" fill="#010101"/>
<path d="M84.678 10.6451C84.7337 10.6451 84.7872 10.6675 84.8268 10.7074C84.8664 10.7473 84.889 10.8015 84.8897 10.8582V25.4924C84.8897 29.9752 82.1231 32.8458 77.7518 32.8458C74.3059 32.8458 71.1873 31.0733 70.444 27.4981C70.439 27.4672 70.4407 27.4356 70.4489 27.4054C70.4571 27.3752 70.4717 27.3472 70.4916 27.3234C70.5115 27.2995 70.5363 27.2804 70.5642 27.2672C70.5921 27.2541 70.6225 27.2473 70.6532 27.2474H73.3779C73.4229 27.2477 73.4666 27.2627 73.5025 27.2903C73.5384 27.3178 73.5646 27.3564 73.5773 27.4003C74.1336 29.2356 75.7359 30.0905 77.6681 30.0905C80.3756 30.0905 81.8524 28.5311 81.8524 25.6052V23.0304C81.2974 23.906 80.5341 24.6245 79.6334 25.1189C78.7327 25.6134 77.7239 25.8678 76.7008 25.8584C72.7626 25.8584 69.8828 22.5992 69.8828 18.0863C69.8828 13.5735 72.8094 10.3142 76.7008 10.3142C77.7309 10.3053 78.7459 10.5677 79.6472 11.0759C80.5485 11.5841 81.3055 12.321 81.845 13.2149V10.8582C81.8456 10.8015 81.8682 10.7473 81.9079 10.7074C81.9475 10.6675 82.0009 10.6451 82.0567 10.6451H84.678ZM81.8819 18.0863C81.8819 15.2984 79.9128 13.2751 77.3456 13.2751C74.7784 13.2751 72.9447 15.2984 72.9447 18.0863C72.9447 20.8743 74.7957 22.9 77.3456 22.9C79.8956 22.9 81.8819 20.8943 81.8819 18.0863Z" fill="#010101"/>
<path d="M103.038 18.1642C103.038 22.6771 99.6832 26.0116 95.3882 26.0116C91.0931 26.0116 87.7383 22.647 87.7383 18.1642C87.7383 13.6238 91.1842 10.3169 95.3882 10.3169C99.5922 10.3169 103.038 13.6238 103.038 18.1642ZM90.7977 18.1642C90.7977 21.0625 92.8111 23.0582 95.3882 23.0582C97.9652 23.0582 99.9786 21.0525 99.9786 18.1642C99.9786 15.276 97.9381 13.2703 95.3882 13.2703C92.8382 13.2703 90.7977 15.276 90.7977 18.1642Z" fill="#010101"/>
<path d="M106.037 18.6682C105.967 17.6091 106.11 16.5468 106.456 15.5456C106.801 14.5444 107.344 13.6253 108.049 12.844C108.754 12.0627 109.608 11.4356 110.559 11.0008C111.509 10.5659 112.536 10.3324 113.578 10.3144C117.024 10.2642 120.121 12.3201 120.896 15.8526C120.901 15.8834 120.9 15.915 120.892 15.9452C120.884 15.9754 120.87 16.0034 120.85 16.0273C120.83 16.0512 120.806 16.0705 120.778 16.0836C120.75 16.0967 120.72 16.1035 120.689 16.1034H117.959C117.915 16.103 117.872 16.0886 117.836 16.062C117.801 16.0355 117.774 15.9982 117.76 15.9554C117.157 14.1628 115.557 13.1775 113.701 13.1775C110.962 13.1775 109.084 15.2559 109.084 18.1542C109.084 21.0524 111.016 23.1309 113.674 23.1309C115.555 23.1309 117.157 22.0929 117.76 20.3229C117.774 20.2806 117.801 20.2438 117.837 20.2178C117.873 20.1917 117.916 20.1776 117.959 20.1775H120.689C120.72 20.1773 120.75 20.1841 120.778 20.1972C120.806 20.2104 120.83 20.2296 120.85 20.2535C120.87 20.2774 120.884 20.3055 120.892 20.3356C120.9 20.3658 120.901 20.3974 120.896 20.4282C120.103 23.9858 117.056 25.994 113.674 25.994C109.463 25.994 106.273 22.8802 106.044 18.6506" fill="#010101"/>
<path d="M138.209 10.8586V25.4677C138.209 25.5249 138.187 25.5798 138.147 25.6202C138.107 25.6606 138.053 25.6833 137.997 25.6833H135.391C135.335 25.6833 135.281 25.6606 135.241 25.6202C135.201 25.5798 135.179 25.5249 135.179 25.4677V23.1662C134.637 24.0564 133.877 24.7871 132.973 25.2862C132.069 25.7853 131.053 26.0354 130.025 26.0118C126.087 26.0118 123.207 22.7525 123.207 18.1644C123.207 13.5764 126.134 10.3171 130 10.3171C131.035 10.3013 132.055 10.5603 132.962 11.0685C133.868 11.5767 134.629 12.3166 135.169 13.2153V10.8586C135.17 10.8019 135.192 10.7477 135.232 10.7078C135.272 10.6679 135.325 10.6455 135.381 10.6455H137.992C138.048 10.6455 138.102 10.6679 138.141 10.7078C138.181 10.7477 138.203 10.8019 138.204 10.8586H138.209ZM135.206 18.1644C135.206 15.2938 133.237 13.2705 130.67 13.2705C128.103 13.2705 126.269 15.2938 126.269 18.1644C126.269 21.0351 128.12 23.0584 130.67 23.0584C133.22 23.0584 135.206 21.0527 135.206 18.1644Z" fill="#010101"/>
<path d="M150.501 10.5652V13.2954C150.501 13.3253 150.495 13.3548 150.484 13.3822C150.472 13.4096 150.455 13.4342 150.433 13.4545C150.412 13.4747 150.386 13.4902 150.359 13.5C150.331 13.5097 150.302 13.5135 150.272 13.5111C150.083 13.4935 149.876 13.4785 149.591 13.4785C146.824 13.4785 144.705 15.0655 144.705 18.7836V25.4576C144.705 25.486 144.7 25.5142 144.689 25.5405C144.679 25.5668 144.663 25.5907 144.644 25.6108C144.624 25.6309 144.6 25.6467 144.574 25.6575C144.549 25.6682 144.521 25.6735 144.493 25.6732H141.882C141.825 25.6732 141.772 25.6505 141.732 25.61C141.692 25.5696 141.67 25.5148 141.67 25.4576V10.8585C141.671 10.8018 141.693 10.7476 141.733 10.7077C141.772 10.6678 141.826 10.6454 141.882 10.6454H144.493C144.521 10.6451 144.548 10.6503 144.574 10.6609C144.6 10.6715 144.623 10.6871 144.643 10.7069C144.662 10.7267 144.678 10.7503 144.689 10.7764C144.699 10.8024 144.705 10.8303 144.705 10.8585V13.6164C145.591 11.5129 147.282 10.3094 149.627 10.3094C149.865 10.3065 150.101 10.3216 150.336 10.3546C150.385 10.3634 150.43 10.3897 150.462 10.4287C150.494 10.4676 150.511 10.5169 150.511 10.5677" fill="#010101"/>
<path d="M166.733 19.0117H154.948C155.194 21.7696 157.094 23.3039 159.563 23.3039C161.286 23.3039 162.733 22.5794 163.452 21.1779C163.47 21.1431 163.497 21.114 163.53 21.0937C163.563 21.0734 163.601 21.0626 163.639 21.0626H166.347C166.381 21.0624 166.414 21.0706 166.444 21.0865C166.474 21.1024 166.5 21.1256 166.519 21.154C166.539 21.1823 166.551 21.2151 166.555 21.2494C166.56 21.2837 166.555 21.3185 166.543 21.3509C165.33 24.5149 162.583 26.0116 159.536 26.0116C154.96 26.0116 151.726 22.5919 151.862 17.9086C151.923 15.8787 152.755 13.9524 154.184 12.5357C155.612 11.119 157.525 10.3226 159.519 10.3145C164.176 10.3395 167.149 13.9724 166.945 18.8036C166.942 18.8591 166.919 18.9114 166.879 18.9496C166.84 18.9879 166.787 19.0093 166.733 19.0092V19.0117ZM155.096 16.5021H163.686C163.231 14.4512 161.7 12.9921 159.472 12.9921C157.163 12.9921 155.605 14.4688 155.096 16.5021Z" fill="#010101"/>
<path d="M17.6725 0C14.1771 3.4532e-08 10.7602 1.05582 7.85394 3.03393C4.94766 5.01205 2.68253 7.82361 1.34501 11.1131C0.00749409 14.4025 -0.342337 18.0221 0.339761 21.514C1.02186 25.006 2.70525 28.2135 5.17704 30.731C7.64883 33.2484 10.798 34.9626 14.2263 35.6569C17.6546 36.3512 21.208 35.9944 24.4372 34.6315C27.6664 33.2687 30.4263 30.961 32.3679 28.0004C34.3095 25.0398 35.3455 21.5592 35.3451 17.9987C35.3444 13.225 33.4822 8.64691 30.168 5.27156C26.8538 1.89621 22.3591 -4.63004e-08 17.6725 0Z" fill="#010101"/>
<path d="M26.2795 16.4016V8.80998C26.2802 8.71799 26.2451 8.62946 26.1819 8.5637C26.1188 8.49795 26.0326 8.46031 25.9423 8.45898H23.2004C23.1101 8.46031 23.0239 8.49795 22.9608 8.5637C22.8976 8.62946 22.8625 8.71799 22.8632 8.80998V11.6581C22.8627 11.6658 22.8599 11.6731 22.8552 11.6791C22.8505 11.6852 22.8441 11.6896 22.8368 11.6917C22.8296 11.6939 22.8218 11.6938 22.8147 11.6914C22.8075 11.6889 22.8012 11.6843 22.7967 11.6781C21.9155 10.1914 19.6856 8.9554 16.8304 8.9554C14.501 8.9949 12.2802 9.96517 10.6467 11.657C9.01311 13.3489 8.09766 15.6269 8.09766 17.9999C8.09766 20.3729 9.01311 22.6509 10.6467 24.3427C12.2802 26.0346 14.501 27.0049 16.8304 27.0444C19.6856 27.0444 21.9155 25.7006 22.7967 24.2163C22.798 24.2119 22.8001 24.2078 22.803 24.2042C22.8059 24.2006 22.8094 24.1976 22.8134 24.1954C22.8174 24.1931 22.8218 24.1918 22.8263 24.1913C22.8308 24.1908 22.8354 24.1912 22.8398 24.1925C22.8441 24.1938 22.8482 24.196 22.8517 24.1989C22.8553 24.2019 22.8582 24.2055 22.8604 24.2095C22.8626 24.2136 22.8639 24.2181 22.8644 24.2227C22.8649 24.2273 22.8645 24.232 22.8632 24.2364V27.1898C22.8628 27.2352 22.8713 27.2803 22.8881 27.3224C22.9048 27.3645 22.9296 27.4028 22.9609 27.4352C22.9922 27.4676 23.0295 27.4933 23.0706 27.511C23.1117 27.5287 23.1558 27.538 23.2004 27.5383H25.9423C25.9869 27.538 26.031 27.5287 26.0721 27.511C26.1132 27.4933 26.1505 27.4676 26.1818 27.4352C26.2131 27.4028 26.2378 27.3645 26.2546 27.3224C26.2714 27.2803 26.2798 27.2352 26.2795 27.1898V19.5907C26.2789 19.4878 26.2385 19.3894 26.1671 19.3166C26.0957 19.2439 25.999 19.2027 25.898 19.2021H23.2496C23.1655 19.2019 23.0836 19.2301 23.0169 19.2823C22.9501 19.3344 22.9021 19.4076 22.8804 19.4904C22.5225 20.8977 21.6732 22.1239 20.4915 22.9391C19.3098 23.7543 17.8768 24.1027 16.4611 23.919C15.0453 23.7353 13.7439 23.032 12.8006 21.941C11.8573 20.85 11.3369 19.4461 11.3369 17.9924C11.3369 16.5386 11.8573 15.1347 12.8006 14.0437C13.7439 12.9527 15.0453 12.2495 16.4611 12.0658C17.8768 11.882 19.3098 12.2304 20.4915 13.0457C21.6732 13.8609 22.5225 15.087 22.8804 16.4944C22.9022 16.5769 22.9503 16.6498 23.0171 16.7015C23.0839 16.7532 23.1657 16.7809 23.2496 16.7802H25.898C25.9988 16.7802 26.0954 16.7396 26.1669 16.6672C26.2384 16.5949 26.2789 16.4967 26.2795 16.3941" fill="#FEFEFE"/>
<path d="M19.8908 17.9986C19.8913 18.5228 19.7391 19.0355 19.4535 19.4716C19.168 19.9077 18.7618 20.2478 18.2865 20.4487C17.8111 20.6497 17.2879 20.7025 16.7831 20.6006C16.2783 20.4986 15.8145 20.2464 15.4504 19.8759C15.0863 19.5054 14.8383 19.0332 14.7377 18.519C14.6371 18.0049 14.6885 17.472 14.8853 16.9876C15.0821 16.5032 15.4156 16.0892 15.8435 15.7979C16.2714 15.5066 16.7745 15.3511 17.2892 15.3511C17.9787 15.3511 18.6401 15.6299 19.1279 16.1264C19.6158 16.6228 19.8901 17.2962 19.8908 17.9986Z" fill="#FEFEFE"/>
</g>
<defs>
<clipPath id="clip0_365_16026">
<rect width="167" height="36" fill="white"/>
</clipPath>
</defs>
</svg>
