<svg width="40" height="40" viewBox="0 0 40 40" fill="none" xmlns="http://www.w3.org/2000/svg">
<rect width="40" height="40" rx="20" fill="#FEFEFE"/>
<path d="M31.657 18.229C31.0459 17.9835 30.6199 18.0159 30.3283 18.1503C30.3283 18.1364 30.3283 18.1225 30.3283 18.1039C31.4209 6.42871 20.3607 6.42871 20.3607 6.42871C20.3607 6.42871 9.30512 6.42871 10.3885 18.1039C10.3885 18.1178 10.3885 18.1317 10.3885 18.1503C10.0968 18.0159 9.67549 17.9835 9.05975 18.229C7.17086 18.9885 7.35142 23.8559 10.7172 23.7586C10.8838 23.754 11.0412 23.7308 11.1986 23.703C12.7357 30.9045 15.782 33.9287 20.356 33.9287C24.9301 33.9287 27.9764 30.8999 29.5135 23.703C29.6709 23.7262 29.8283 23.754 29.9949 23.7586C33.3607 23.8605 33.5412 18.9885 31.6523 18.229H31.657Z" fill="#E0E0E0"/>
<path d="M10.3977 18.3494C10.6014 21.3597 11.5505 21.3411 11.4162 21.1513C11.3005 20.9845 11.8699 19.4099 11.8699 19.4099C14.0135 19.359 16.4996 16.0014 16.4996 16.0014C16.4996 17.5714 14.0412 19.3497 14.0412 19.3497C23.5551 18.9329 24.2588 14.6676 24.2588 14.6676C24.2588 14.6676 24.2496 17.9882 28.4811 18.8079C28.4811 18.8079 29.444 19.5905 29.7542 20.9151C29.7681 20.9799 29.8561 20.9845 29.8746 20.9243C29.9486 20.6511 30.0829 19.9888 30.2959 18.3864C30.2959 18.3725 30.3375 18.1271 30.3375 18.1132C31.4209 6.42871 20.3422 6.42871 20.3422 6.42871C20.3422 6.42871 9.28661 6.42871 10.3653 18.1039" fill="#E0E0E0"/>
<path d="M31.657 18.2336C31.0459 17.9882 30.6199 18.0206 30.3283 18.1549C30.3283 18.141 30.3283 18.1271 30.3283 18.1086C30.3283 18.1225 30.2866 18.3679 30.2866 18.3818C30.0736 19.9842 29.9394 20.6465 29.8653 20.9197C29.8468 20.9845 29.7588 20.9753 29.7449 20.9104C29.4348 19.5859 28.4718 18.8032 28.4718 18.8032C27.1986 18.5578 26.3144 18.0808 25.694 17.5389C26.0227 22.5962 25.4718 28.3296 22.7959 33.5906C26.0273 32.6227 28.2635 29.5291 29.5088 23.703C29.6662 23.7262 29.8236 23.754 29.9903 23.7586C33.3561 23.8605 33.5366 18.9885 31.6477 18.229L31.657 18.2336Z" fill="#E0E0E0"/>
<path d="M23.782 7.05392C24.5551 9.65202 25.4301 13.3709 25.7033 17.5528C26.3236 18.0947 27.2079 18.5671 28.4811 18.8171C28.4811 18.8171 29.444 19.5998 29.7542 20.9243C29.7681 20.9892 29.8561 20.9938 29.8746 20.9336C29.9486 20.6604 30.0829 19.9981 30.2959 18.3957C30.2959 18.3818 30.3375 18.1364 30.3375 18.1225C31.0135 10.8191 26.9348 8.08205 23.782 7.05855V7.05392Z" fill="#E0E0E0"/>
<circle cx="14.1104" cy="23.1786" r="0.75" fill="#EF3340"/>
<circle cx="23.6108" cy="23.1786" r="0.75" fill="#EF3340"/>
<circle cx="17.1113" cy="23.1786" r="0.75" fill="#EF3340"/>
<circle cx="26.6104" cy="23.1786" r="0.75" fill="#EF3340"/>
<circle cx="15.6113" cy="25.6786" r="0.75" fill="#EF3340"/>
<circle cx="25.1108" cy="25.6786" r="0.75" fill="#EF3340"/>
</svg>
