<svg width="40" height="40" viewBox="0 0 40 40" fill="none" xmlns="http://www.w3.org/2000/svg">
<rect width="40" height="40" rx="20" fill="#FEFEFE"/>
<g clip-path="url(#clip0_2299_2435)">
<path d="M12.8569 11.4287H8.57122C8.17673 11.4287 7.85693 11.7485 7.85693 12.143V27.8573C7.85693 28.2518 8.17673 28.5716 8.57122 28.5716H12.8569C13.2514 28.5716 13.5712 28.2518 13.5712 27.8573V12.143C13.5712 11.7485 13.2514 11.4287 12.8569 11.4287Z" fill="#7A58C8"/>
<path d="M5.71422 13.5715H7.85707V25.7144H5.71422C5.33534 25.7144 4.97197 25.5639 4.70406 25.296C4.43615 25.0281 4.28564 24.6647 4.28564 24.2858V15.0001C4.28564 14.6212 4.43615 14.2579 4.70406 13.99C4.97197 13.722 5.33534 13.5715 5.71422 13.5715Z" fill="#4F3981"/>
<path d="M27.1426 28.5715H31.4283C31.8228 28.5715 32.1426 28.2517 32.1426 27.8572V12.143C32.1426 11.7485 31.8228 11.4287 31.4283 11.4287H27.1426C26.7481 11.4287 26.4283 11.7485 26.4283 12.143V27.8572C26.4283 28.2517 26.7481 28.5715 27.1426 28.5715Z" fill="#7A58C8"/>
<path d="M34.2858 25.7145H32.1429V13.5716H34.2858C34.6647 13.5716 35.028 13.7221 35.2959 13.99C35.5638 14.2579 35.7144 14.6213 35.7144 15.0002V24.2859C35.7144 24.6648 35.5638 25.0281 35.2959 25.2961C35.028 25.564 34.6647 25.7145 34.2858 25.7145Z" fill="#4F3981"/>
<path d="M13.5713 17.8573H24.2856C24.475 17.8573 24.6567 17.9326 24.7907 18.0665C24.9246 18.2005 24.9999 18.3821 24.9999 18.5716V21.4287C24.9999 21.6182 24.9246 21.7998 24.7907 21.9338C24.6567 22.0678 24.475 22.143 24.2856 22.143H13.5713V17.8573Z" fill="#E0E0E0"/>
</g>
<defs>
<clipPath id="clip0_2299_2435">
<rect width="31.4286" height="17.1429" fill="white" transform="translate(4.28564 11.4287)"/>
</clipPath>
</defs>
</svg>
