<svg width="40" height="40" viewBox="0 0 40 40" fill="none" xmlns="http://www.w3.org/2000/svg">
<rect width="40" height="40" rx="20" fill="#FEFEFE"/>
<path d="M20.1608 15.5223L18.8751 8.01481C18.6784 6.6955 17.3095 5.71387 15.7137 5.71387C14.1179 5.71387 12.7717 6.6955 12.5524 8.00696L11.2894 15.5145C11.2894 15.5145 9.28516 16.5746 9.28516 18.585C9.28516 20.5954 10.9036 21.0901 12.1213 20.4305C13.3389 19.7708 13.2406 22.1424 15.7137 22.1424C18.1868 22.1424 18.081 19.7708 19.3062 20.4226C20.5314 21.0744 22.1423 20.5718 22.1423 18.5772C22.1423 16.5825 20.1608 15.5145 20.1608 15.5145V15.5223Z" fill="#E0E0E0"/>
<path d="M20.1678 15.523L18.8869 8.00896C18.691 6.69636 17.3197 5.71387 15.7374 5.71387C15.4888 5.71387 15.2401 5.74531 14.999 5.80033C16.2422 6.04398 17.2293 6.90857 17.4101 8.00896L18.691 15.5152C18.691 15.5152 20.6651 16.592 20.6651 18.5963C20.7028 19.005 20.6199 19.4058 20.4315 19.7595C20.2356 20.1132 19.9418 20.3962 19.5876 20.5691C20.763 21.0171 22.1419 20.4433 22.1419 18.5963C22.1419 16.5841 20.1678 15.5152 20.1678 15.5152V15.523Z" fill="#D3D3D3"/>
<path d="M23.3398 11.0715C23.5651 11.0716 23.7812 11.1188 23.999 11.2122V11.2112C24.2037 11.3022 24.3852 11.4338 24.5215 11.5872L24.5273 11.594L24.5332 11.5999C32.2516 19.7117 30.9333 26.8302 30.6943 27.8352L30.6885 27.8606L30.6846 27.886C30.4748 29.4917 29.6215 30.953 28.2461 31.9993L28.2412 32.0022C26.8874 33.0543 25.1429 33.6418 23.3398 33.6418C21.537 33.6418 19.7911 33.0552 18.4287 32.0022L18.4268 32.0002L18.1758 31.7991C16.9537 30.7704 16.1909 29.3916 15.9941 27.886L15.9912 27.8625L15.9863 27.8401L15.9336 27.5833C15.633 25.9515 14.9398 19.2033 22.1621 11.5833L22.1709 11.5745L22.1777 11.5667C22.2734 11.4559 22.4621 11.3076 22.6855 11.2083C22.8897 11.1183 23.1122 11.0715 23.3398 11.0715Z" fill="#FEFEFE" stroke="#FEFEFE"/>
<path d="M23.7411 12.3157C23.6939 12.2607 23.6311 12.2135 23.5682 12.19C23.4975 12.1585 23.4268 12.1428 23.3482 12.1428C23.2697 12.1428 23.1989 12.1585 23.1282 12.19C23.0575 12.2214 23.0025 12.2607 22.9554 12.3157C15.1301 20.5809 17.0629 27.6677 17.0629 27.6677C17.2121 29.019 17.9428 30.2682 19.0977 31.1482C20.2841 32.0596 21.7926 32.5703 23.3561 32.5703C24.9196 32.5703 26.4281 32.0674 27.6144 31.1482C28.7694 30.2682 29.5 29.019 29.6493 27.6677C29.6493 27.6677 31.637 20.5809 23.7568 12.3157H23.7411Z" fill="#FFC847"/>
<path d="M29.3494 21.7516C29.3337 22.4037 29.2394 23.0558 29.0901 23.6922C28.8858 25.3185 27.998 26.8192 26.5995 27.8798C25.1539 28.9562 23.3233 29.5454 21.4377 29.5297C19.9528 29.5297 18.4993 29.1605 17.2422 28.4534C17.5407 29.4826 18.185 30.4097 19.0807 31.1089C20.2749 32.0124 21.7834 32.5074 23.3468 32.5074C24.9103 32.5074 26.4188 32.0124 27.613 31.1089C28.7601 30.2211 29.4908 28.9798 29.6479 27.6284C30.0172 25.6799 29.9151 23.6843 29.3572 21.7673L29.3494 21.7516Z" fill="#D9AA3C"/>
</svg>
