<svg width="40" height="40" viewBox="0 0 40 40" fill="none" xmlns="http://www.w3.org/2000/svg">
<rect width="40" height="40" rx="20" fill="#FEFEFE"/>
<path d="M20.0001 33.5716C27.4954 33.5716 33.5716 27.4954 33.5716 20.0001C33.5716 12.5048 27.4954 6.42871 20.0001 6.42871C12.5048 6.42871 6.42871 12.5048 6.42871 20.0001C6.42871 27.4954 12.5048 33.5716 20.0001 33.5716Z" fill="#FFC847"/>
<path fill-rule="evenodd" clip-rule="evenodd" d="M14.4949 14.4951C14.7738 14.2162 15.2261 14.2162 15.505 14.4951L16.4285 15.4186L17.352 14.4951C17.6309 14.2162 18.0832 14.2162 18.3621 14.4951C18.6411 14.774 18.6411 15.2263 18.3621 15.5053L17.4387 16.4287L18.3621 17.3522C18.6411 17.6312 18.6411 18.0834 18.3621 18.3624C18.0832 18.6413 17.6309 18.6413 17.352 18.3624L16.4285 17.4389L15.505 18.3624C15.2261 18.6413 14.7738 18.6413 14.4949 18.3624C14.2159 18.0834 14.2159 17.6312 14.4949 17.3522L15.4183 16.4287L14.4949 15.5053C14.2159 15.2263 14.2159 14.774 14.4949 14.4951Z" fill="#33280E"/>
<path fill-rule="evenodd" clip-rule="evenodd" d="M21.6379 14.4951C21.9169 14.2162 22.3691 14.2162 22.6481 14.4951L23.5716 15.4186L24.4951 14.4951C24.774 14.2162 25.2263 14.2162 25.5052 14.4951C25.7842 14.774 25.7842 15.2263 25.5052 15.5053L24.5817 16.4287L25.5052 17.3522C25.7842 17.6312 25.7842 18.0834 25.5052 18.3624C25.2263 18.6413 24.774 18.6413 24.4951 18.3624L23.5716 17.4389L22.6481 18.3624C22.3691 18.6413 21.9169 18.6413 21.6379 18.3624C21.359 18.0834 21.359 17.6312 21.6379 17.3522L22.5614 16.4287L21.6379 15.5053C21.359 15.2263 21.359 14.774 21.6379 14.4951Z" fill="#33280E"/>
<path d="M22.8574 23.5716C22.8574 25.544 21.5782 27.143 20.0002 27.143C18.4223 27.143 17.1431 25.544 17.1431 23.5716C17.1431 21.5991 18.4223 20.0001 20.0002 20.0001C21.5782 20.0001 22.8574 21.5991 22.8574 23.5716Z" fill="#33280E"/>
</svg>
