<svg width="40" height="40" viewBox="0 0 40 40" fill="none" xmlns="http://www.w3.org/2000/svg">
<rect width="40" height="40" rx="20" fill="#FEFEFE"/>
<path fill-rule="evenodd" clip-rule="evenodd" d="M10.1561 27.8968C9.05475 28.0754 6.82237 27.8522 6.108 27.0187L5.55735 26.3713C5.0439 25.7686 4.87275 24.9649 5.09599 24.2134L8.98034 11.0869C9.16637 10.447 9.6575 9.93354 10.3049 9.69542L13.5939 8.49737C13.7725 8.4304 13.9065 8.28902 13.9511 8.11787L14.3529 6.58496H22.0919L22.4547 7.74535C22.5961 8.043 22.9533 8.31089 23.4444 8.44483C24.3076 8.68295 24.4715 8.7724 26.4286 9.28585C26.9048 9.41236 27.9278 9.85511 28.2143 10.7144C28.9286 12.8573 30.3422 15.2379 30.7143 18.2144C31.1384 21.9127 29.8457 25.523 29.7266 28.7005C29.7043 29.3107 29.362 29.8687 28.8188 30.1664L19.9711 35.2265C19.8074 35.3232 19.5842 35.286 19.4577 35.1297L17.828 33.0462C17.7015 32.8825 17.7239 32.6518 17.8876 32.5178L18.5945 31.9225L10.3421 31.8109C10.0965 31.8109 9.88818 31.5951 9.9105 31.357L10.1561 27.8819V27.8968Z" fill="#E0E0E0"/>
<path d="M10.0437 22.0703C14.8508 21.1253 19.0849 22.7772 19.0849 22.7772L19.9258 22.2489C20.4392 21.9289 21.0345 21.7801 21.6447 21.8173L25.5588 22.0629C26.3253 22.0629 26.8834 22.7623 26.6899 23.4841L26.0127 25.977C25.7821 26.8327 24.9858 27.428 24.0631 27.428H21.2652C20.841 27.428 20.2011 27.2643 19.8365 27.0634C19.1593 26.6913 18.378 26.5574 17.6041 26.6839L9.0466 28.0754C7.95273 28.254 6.82909 27.8447 6.12217 27.0188L5.60128 26.416C5.06551 25.7835 4.87948 24.9426 5.1176 24.1613L8.94986 11.1837C9.15822 10.4842 9.69399 9.92612 10.3935 9.66567L13.1393 8.66854C13.6007 8.49739 13.9578 8.12532 14.0769 7.65652L14.3671 6.42871" fill="#E0E0E0"/>
<mask id="path-4-inside-1_2299_2453" fill="white">
<path d="M24.0422 16.7011C24.0448 16.5744 23.9407 16.4765 23.8214 16.4745C23.6947 16.4719 23.5968 16.5761 23.5948 16.6954L24.0422 16.7011ZM23.5528 21.9174L23.5499 22.1411L23.9974 22.1468L24.0002 21.9231L23.5528 21.9174ZM23.5948 16.6954L23.5528 21.9174L24.0002 21.9231L24.0422 16.7011L23.5948 16.6954Z"/>
</mask>
<path d="M24.0422 16.7011C24.0448 16.5744 23.9407 16.4765 23.8214 16.4745C23.6947 16.4719 23.5968 16.5761 23.5948 16.6954L24.0422 16.7011ZM23.5528 21.9174L23.5499 22.1411L23.9974 22.1468L24.0002 21.9231L23.5528 21.9174ZM23.5948 16.6954L23.5528 21.9174L24.0002 21.9231L24.0422 16.7011L23.5948 16.6954Z" fill="#FEFEFE"/>
<path d="M23.5884 17.1953L24.0358 17.201L24.0486 16.2011L23.6012 16.1954L23.5884 17.1953ZM24.0066 21.4231L23.5592 21.4174L23.5464 22.4173L23.9938 22.423L24.0066 21.4231ZM24.0422 16.7011L23.0424 16.6805L23.0423 16.693L24.0422 16.7011ZM23.8214 16.4745L23.8008 17.4743L23.8044 17.4744L23.8214 16.4745ZM23.5948 16.6954L22.5949 16.6784L22.5948 16.6873L23.5948 16.6954ZM23.5528 21.9174L24.5527 21.9301L24.5528 21.9254L23.5528 21.9174ZM23.5499 22.1411L22.55 22.1283L22.5372 23.1282L23.5371 23.141L23.5499 22.1411ZM23.9974 22.1468L23.9846 23.1467L24.9845 23.1595L24.9973 22.1596L23.9974 22.1468ZM24.0002 21.9231L25.0002 21.9359L25.0002 21.9311L24.0002 21.9231ZM25.042 16.7217C25.0568 16.0045 24.4737 15.4854 23.8383 15.4746L23.8044 17.4744C23.4077 17.4676 23.0329 17.1442 23.0424 16.6805L25.042 16.7217ZM23.842 15.4747C23.1248 15.4599 22.6057 16.0431 22.5949 16.6784L24.5947 16.7123C24.5879 17.1091 24.2645 17.4838 23.8008 17.4743L23.842 15.4747ZM22.5529 21.9046L22.55 22.1283L24.5498 22.1539L24.5527 21.9301L22.5529 21.9046ZM23.5371 23.141L23.9846 23.1467L24.0101 21.1469L23.5627 21.1412L23.5371 23.141ZM24.9973 22.1596L25.0001 21.9359L23.0003 21.9103L22.9974 22.134L24.9973 22.1596ZM22.5948 16.6873L22.5528 21.9093L24.5528 21.9254L24.5948 16.7034L22.5948 16.6873ZM25.0002 21.9311L25.0422 16.7091L23.0423 16.693L23.0003 21.915L25.0002 21.9311Z" fill="#FEFEFE" mask="url(#path-4-inside-1_2299_2453)"/>
<path d="M17.6562 32.4806L23.6093 27.6438" stroke="#FEFEFE" stroke-width="0.6" stroke-linecap="round" stroke-linejoin="round"/>
<path d="M11.3311 21.6908C16.1381 20.7457 19.0849 22.7772 19.0849 22.7772L19.9258 22.2489C20.4392 21.9289 21.0345 21.7801 21.6447 21.8173L25.5588 22.0628C26.3253 22.0628 26.8834 22.7623 26.6899 23.4841L26.0127 25.977C25.7821 26.8327 24.9858 27.428 24.0631 27.428H21.2652C20.841 27.428 20.2011 27.2643 19.8365 27.0634C19.1593 26.6913 18.378 26.5574 17.6041 26.6839L9.0466 28.0754C7.95273 28.254 6.82909 27.8447 6.12217 27.0187L5.60128 26.416C5.06551 25.7835 4.87948 24.9426 5.1176 24.1613L8.94986 11.1837C9.15822 10.4842 9.69399 9.92609 10.3935 9.66565" stroke="#FEFEFE" stroke-width="0.6" stroke-linecap="round" stroke-linejoin="round"/>
<path d="M11.3311 21.6907L12.0752 16.1097L15.2087 21.3112L11.3311 21.6907Z" fill="#E0E0E0"/>
<circle cx="28.571" cy="20.7144" r="7.85714" fill="#FFD3B3"/>
<circle cx="2.02022" cy="2.02022" r="2.52022" transform="matrix(0.520147 -0.854077 -0.854077 -0.520147 33.4512 26.267)" fill="#F36670" stroke="#CB2B36"/>
<circle cx="0.417483" cy="0.417483" r="0.417483" transform="matrix(0.520147 -0.854077 -0.854077 -0.520147 33.5693 23.2905)" fill="#A7242D"/>
<circle cx="0.417483" cy="0.417483" r="0.417483" transform="matrix(0.520147 -0.854077 -0.854077 -0.520147 32.1406 24.7191)" fill="#A7242D"/>
<mask id="path-13-outside-2_2299_2453" maskUnits="userSpaceOnUse" x="23.1922" y="10.3116" width="12.8882" height="13.2221" fill="black">
<rect fill="white" x="23.1922" y="10.3116" width="12.8882" height="13.2221"/>
<path fill-rule="evenodd" clip-rule="evenodd" d="M28.6552 15.6308C29.3748 14.4492 30.916 14.0747 32.0975 14.7943C33.2791 15.5139 33.6536 17.055 32.934 18.2366C32.2144 19.4181 30.6732 19.7926 29.4917 19.073C29.2051 18.8985 28.9659 18.6756 28.7784 18.4212C28.743 18.6189 28.6712 18.8136 28.5604 18.9956C28.0807 19.7832 27.0532 20.0329 26.2655 19.5532C25.4778 19.0735 25.2282 18.046 25.7079 17.2583C26.1876 16.4706 27.215 16.221 28.0027 16.7007C28.1081 16.7648 28.2038 16.8388 28.2894 16.9206C28.2913 16.4801 28.4094 16.0344 28.6552 15.6308Z"/>
</mask>
<path fill-rule="evenodd" clip-rule="evenodd" d="M28.6552 15.6308C29.3748 14.4492 30.916 14.0747 32.0975 14.7943C33.2791 15.5139 33.6536 17.055 32.934 18.2366C32.2144 19.4181 30.6732 19.7926 29.4917 19.073C29.2051 18.8985 28.9659 18.6756 28.7784 18.4212C28.743 18.6189 28.6712 18.8136 28.5604 18.9956C28.0807 19.7832 27.0532 20.0329 26.2655 19.5532C25.4778 19.0735 25.2282 18.046 25.7079 17.2583C26.1876 16.4706 27.215 16.221 28.0027 16.7007C28.1081 16.7648 28.2038 16.8388 28.2894 16.9206C28.2913 16.4801 28.4094 16.0344 28.6552 15.6308Z" fill="#F36670"/>
<path d="M28.7784 18.4212L27.794 18.2453L28.2031 15.9556L29.5833 17.8278L28.7784 18.4212ZM28.2894 16.9206L29.2894 16.9249L29.2795 19.2503L27.5984 17.6435L28.2894 16.9206ZM31.5774 15.6484C30.8675 15.2161 29.9416 15.4411 29.5093 16.1509L27.8012 15.1106C28.808 13.4574 30.9644 12.9334 32.6177 13.9402L31.5774 15.6484ZM32.0799 17.7164C32.5122 17.0066 32.2872 16.0807 31.5774 15.6484L32.6177 13.9402C34.2709 14.9471 34.7949 17.1035 33.7881 18.7567L32.0799 17.7164ZM30.0118 18.219C30.7217 18.6513 31.6476 18.4263 32.0799 17.7164L33.7881 18.7567C32.7812 20.41 30.6248 20.934 28.9716 19.9271L30.0118 18.219ZM29.5833 17.8278C29.6951 17.9794 29.8381 18.1131 30.0118 18.219L28.9716 19.9271C28.5721 19.6838 28.2368 19.3717 27.9735 19.0146L29.5833 17.8278ZM27.7063 18.4754C27.7517 18.4009 27.7801 18.3232 27.794 18.2453L29.7628 18.5971C29.706 18.9147 29.5906 19.2264 29.4145 19.5157L27.7063 18.4754ZM26.7857 18.6991C27.1017 18.8916 27.5138 18.7914 27.7063 18.4754L29.4145 19.5157C28.6475 20.7751 27.0048 21.1743 25.7454 20.4073L26.7857 18.6991ZM26.5619 17.7785C26.3695 18.0945 26.4697 18.5067 26.7857 18.6991L25.7454 20.4073C24.486 19.6403 24.0868 17.9976 24.8538 16.7382L26.5619 17.7785ZM27.4826 17.5548C27.1666 17.3623 26.7544 17.4625 26.5619 17.7785L24.8538 16.7382C25.6208 15.4788 27.2635 15.0796 28.5229 15.8466L27.4826 17.5548ZM27.5984 17.6435C27.5645 17.6111 27.526 17.5812 27.4826 17.5548L28.5229 15.8466C28.6901 15.9484 28.843 16.0664 28.9803 16.1977L27.5984 17.6435ZM29.5093 16.1509C29.3608 16.3948 29.2905 16.6613 29.2894 16.9249L27.2894 16.9163C27.292 16.2989 27.458 15.6741 27.8012 15.1106L29.5093 16.1509Z" fill="#CB2B36" mask="url(#path-13-outside-2_2299_2453)"/>
<circle cx="0.417483" cy="0.417483" r="0.417483" transform="matrix(0.520147 -0.854077 -0.854077 -0.520147 32.2207 17.8014)" fill="#A7242D"/>
<circle cx="0.417483" cy="0.417483" r="0.417483" transform="matrix(0.520147 -0.854077 -0.854077 -0.520147 30.2832 18.5763)" fill="#A7242D"/>
<circle cx="0.417483" cy="0.417483" r="0.417483" transform="matrix(0.520147 -0.854077 -0.854077 -0.520147 26.7021 18.8396)" fill="#A7242D"/>
<circle cx="0.417483" cy="0.417483" r="0.417483" transform="matrix(0.520147 -0.854077 -0.854077 -0.520147 30.9951 15.9558)" fill="#A7242D"/>
<circle cx="28.571" cy="20.7144" r="6.85714" stroke="#FEFEFE" stroke-width="2"/>
<path d="M11.3311 21.8173C16.1381 20.8722 19.0849 22.7772 19.0849 22.7772L19.9258 22.2489C20.4392 21.9289 21.0345 21.7801 21.6447 21.8173L25.5588 22.0629C26.3253 22.0629 26.8834 22.7623 26.6899 23.4841L26.0127 25.977C25.7821 26.8327 24.9858 27.428 24.0631 27.428H21.2652C20.841 27.428 20.2011 27.2643 19.8365 27.0634C19.1593 26.6913 18.378 26.5574 17.6041 26.6839L9.0466 28.0754C7.95273 28.254 6.82909 27.8447 6.12217 27.0188L5.60128 26.416C5.06551 25.7835 4.87948 24.9426 5.1176 24.1613L8.94986 11.1837C9.15822 10.4842 9.69399 9.92612 10.3935 9.66567L13.1393 8.66854C13.6007 8.49739 13.9578 8.12532 14.0769 7.65652L14.3671 6.42871" fill="#E0E0E0"/>
<path d="M11.3311 21.6908L12.0752 16.4819" stroke="#FEFEFE" stroke-width="0.6" stroke-linecap="round" stroke-linejoin="round"/>
<path d="M11.3311 21.6908C16.1381 20.7457 19.0849 22.7772 19.0849 22.7772L19.9258 22.2489C20.4392 21.9289 21.0345 21.7801 21.6447 21.8173L25.5588 22.0628C26.3253 22.0628 26.8834 22.7623 26.6899 23.4841L26.0127 25.977C25.7821 26.8327 24.9858 27.428 24.0631 27.428H21.2652C20.841 27.428 20.2011 27.2643 19.8365 27.0634C19.1593 26.6913 18.378 26.5574 17.6041 26.6839L9.0466 28.0754C7.95273 28.254 6.82909 27.8447 6.12217 27.0187L5.60128 26.416C5.06551 25.7835 4.87948 24.9426 5.1176 24.1613L8.94986 11.1837C9.15822 10.4842 9.69399 9.92609 10.3935 9.66565" stroke="#FEFEFE" stroke-width="0.6" stroke-linecap="round" stroke-linejoin="round"/>
</svg>
