<svg width="40" height="40" viewBox="0 0 40 40" fill="none" xmlns="http://www.w3.org/2000/svg">
<rect width="40" height="40" rx="20" fill="#FEFEFE"/>
<path d="M19.2859 16.2V5.72857C19.2859 5.32143 18.9644 5 18.5716 5H15.7144C15.3216 5 15.0001 5.32857 15.0001 5.72857V16.2C15.0001 16.5143 14.8073 16.8071 14.5073 16.8929C12.7287 17.4286 11.4287 19.1071 11.4287 21.1071V33.5571C11.4287 33.9643 11.7501 34.2857 12.143 34.2857H22.143C22.5359 34.2857 22.8573 33.9571 22.8573 33.5571V21.1071C22.8573 19.1071 21.5573 17.4286 19.7787 16.8929C19.4859 16.8071 19.2859 16.5143 19.2859 16.2Z" fill="#D3D3D3"/>
<path d="M19.7788 16.8929C19.4859 16.8071 19.2859 16.5143 19.2859 16.2V5.72857C19.2859 5.32143 18.9645 5 18.5716 5H17.1431V16.2C17.1431 17.15 17.7645 17.9929 18.6502 18.2643C19.8645 18.6286 20.7145 19.8 20.7145 21.1071V34.2857H22.1431C22.5359 34.2857 22.8574 33.9571 22.8574 33.55V21.1071C22.8574 19.1071 21.5574 17.4286 19.7788 16.8929Z" fill="#C6C6C6"/>
<path d="M11.4287 21.4287H16.4287C16.8216 21.4287 17.143 21.7501 17.143 22.143V32.143C17.143 32.5359 16.8216 32.8573 16.4287 32.8573H11.4287V21.4287Z" fill="#EAEAEA"/>
<path d="M25.0047 32.7069C23.0783 32.7069 18.1124 30.2904 17.2419 24.306L16.4357 17.5114C16.3928 17.0068 16.5498 16.552 16.8566 16.2179C17.1634 15.8839 17.5986 15.6991 18.0481 15.6991C19.2468 15.6564 20.1672 15.6067 20.8094 15.5285C21.6798 15.429 22.8071 15.031 23.9915 14.4127C24.0201 14.3984 24.0415 14.3842 24.07 14.37C24.4482 14.1639 24.7978 14.1426 24.9761 14.1426C24.9904 14.1426 25.0047 14.1426 25.0261 14.1426C25.4042 14.1497 25.6896 14.2279 25.9536 14.3842C27.138 15.0168 28.301 15.429 29.2 15.5356C29.835 15.6067 30.7554 15.6635 32.0112 15.7062C32.0968 15.7062 32.1824 15.7204 32.268 15.7346C32.6034 15.7986 32.9102 15.9692 33.1385 16.225C33.4453 16.5591 33.6023 17.0139 33.5666 17.4688L32.7603 24.306C31.8471 30.5321 26.7313 32.6714 25.0689 32.714C25.0546 32.714 25.0475 32.714 25.0332 32.714H25.0047V32.7069Z" fill="#FEFEFE"/>
<path d="M31.9472 17.1134H31.9686C31.0625 17.085 29.8995 17.0352 29.0433 16.9357C27.6663 16.7794 26.1965 16.1113 25.2475 15.5996C25.1833 15.564 25.112 15.5498 25.0406 15.5498C24.955 15.5498 24.8694 15.5498 24.7838 15.5996H24.7909C23.842 16.1042 22.3722 16.7723 20.9951 16.9357C20.1389 17.0352 18.9902 17.085 18.0698 17.1134C17.9485 17.1134 17.8629 17.22 17.87 17.3408L18.6692 24.0999C19.4611 29.4944 23.9062 31.2854 25.0192 31.2854H25.0478C26.2179 31.257 30.5845 29.4446 31.3622 24.1283L32.1613 17.3408C32.1684 17.22 32.0899 17.1134 31.9615 17.1134H31.9472Z" fill="#A8A8A8"/>
<path d="M25.0127 17.2771C26.0829 17.803 27.4814 18.3645 28.8584 18.5209C29.2865 18.5706 29.8002 18.6133 30.3995 18.6488L29.7788 23.9011C29.1224 28.3361 25.5407 29.6438 25.0056 29.7007C24.3991 29.6225 20.8816 28.2863 20.2394 23.9224L19.6187 18.6488C20.218 18.6204 20.7246 18.5706 21.1598 18.5209C22.5369 18.3645 23.9496 17.803 25.0056 17.2771M25.0056 15.5571C24.9271 15.5571 24.8486 15.5785 24.7772 15.614C23.8283 16.1186 22.3585 16.7867 20.9815 16.9502C20.1253 17.0497 18.9766 17.0994 18.0561 17.1278C17.9349 17.1278 17.8492 17.2345 17.8564 17.3553L18.6555 24.1143C19.4475 29.5088 23.8925 31.2998 25.0056 31.2998H25.0341C26.1899 31.2785 30.5779 29.4662 31.3556 24.1428L32.1547 17.3553C32.1619 17.2345 32.0834 17.1278 31.955 17.1278C31.0488 17.0994 29.8858 17.0497 29.0296 16.9502C27.6526 16.7938 26.1828 16.1257 25.2339 15.614C25.1625 15.5713 25.0912 15.5642 25.0127 15.5642H25.0056V15.5571Z" fill="#A8A8A8"/>
<path fill-rule="evenodd" clip-rule="evenodd" d="M21.3528 24.328C21.2704 22.9286 21.1845 21.468 22.8788 21.1574H22.8931C23.7279 21.0011 24.7125 21.1503 25.5901 21.392C25.8327 21.4559 26.0111 21.726 25.9897 22.0245L25.8541 23.8227C25.8327 24.1354 25.6115 24.3912 25.3404 24.3912C25.2377 24.3938 25.1101 24.4387 24.9346 24.5004C24.6223 24.6102 24.1585 24.7733 23.4139 24.8461C22.8537 24.903 22.5726 25.189 22.332 25.4337C22.2416 25.5256 22.157 25.6117 22.0655 25.6777C21.7658 25.8909 21.3876 25.6137 21.3876 25.2015C21.3876 24.9209 21.3703 24.6258 21.3528 24.328ZM26.3397 24.0301L26.6955 21.8471C26.6955 21.705 26.8168 21.6126 26.9309 21.6481C27.6587 21.9253 28.0012 22.2025 28.2723 22.4512C28.9073 23.0269 29.0429 23.6524 27.8727 24.0077L26.6384 24.3418C26.4814 24.3844 26.3245 24.2281 26.3387 24.0291L26.3397 24.0301Z" fill="#FEFEFE"/>
</svg>
