<svg width="40" height="40" viewBox="0 0 40 40" fill="none" xmlns="http://www.w3.org/2000/svg">
<rect width="40" height="40" rx="20" fill="#FEFEFE"/>
<g clip-path="url(#clip0_2299_2462)">
<path d="M28.4067 16.1005C26.8996 14.3219 25.5639 12.7862 26.3782 9.03618C26.3996 8.96475 26.3924 8.88618 26.3639 8.81475C26.3353 8.74332 26.2782 8.68618 26.2139 8.64332C26.1496 8.60046 26.0782 8.57903 25.9996 8.57903C25.921 8.57903 25.8496 8.60046 25.7853 8.64332C25.6496 8.75046 22.871 10.9362 22.6353 14.129C21.3853 12.2005 19.0639 9.13618 21.2639 4.82903C21.2996 4.76475 21.3139 4.68618 21.2996 4.6076C21.2924 4.53618 21.2567 4.46475 21.2067 4.4076C21.1567 4.35046 21.0853 4.31475 21.0139 4.29332C20.9424 4.27903 20.8639 4.27903 20.7924 4.3076C20.571 4.38618 15.5139 6.4076 14.4924 10.8076C14.1567 12.6862 14.1139 13.229 14.221 15.1362C14.221 16.8719 14.271 18.529 13.8567 19.3005C13.7139 17.5362 13.2424 14.3433 11.7353 14.2933C11.6496 14.2933 11.5639 14.3219 11.4924 14.379C11.421 14.4362 11.3782 14.5076 11.3567 14.5933C11.0424 15.9219 10.6139 17.2219 10.071 18.479C9.52101 19.879 9.25672 21.3719 9.28529 22.8719C9.32101 24.3719 9.64958 25.8505 10.2639 27.2219C11.5639 30.429 15.8782 33.7219 20.2567 33.7219C20.5139 33.7219 20.771 33.7219 21.0139 33.6862C26.1924 33.2076 31.3782 29.6862 31.2853 22.879C31.2567 19.4219 29.7424 17.6576 28.4139 16.1005H28.4067Z" fill="#D3D3D3"/>
<path d="M26.4061 24.8361C25.7919 23.2861 24.2633 23.0147 24.0847 22.2575C24.0704 22.2075 22.7062 22.4933 24.0419 22.5433C24.0062 22.5147 24.1347 22.3575 24.0847 22.3575C23.2347 22.3575 24.299 24.2861 24.2204 25.2933C24.5419 24.5433 23.9847 23.7361 24.0633 22.9361C24.1204 21.8504 24.0562 20.7647 23.8704 19.6933C23.3062 17.1504 20.4633 16.029 20.299 15.9861C20.2633 15.9718 20.2204 15.9647 20.1776 15.979C20.1347 15.9861 20.099 16.0076 20.0704 16.0361C20.0419 16.0718 20.0347 16.1147 20.0347 16.1576C20.0347 16.2004 20.049 16.2433 20.0704 16.279C21.3133 18.7433 20.0704 21.2647 19.3347 22.3647C19.1562 21.1361 18.5204 20.0147 17.5562 19.229C17.5204 19.2075 17.4776 19.1933 17.4347 19.1933C17.3919 19.1933 17.349 19.2075 17.3133 19.229C17.2776 19.2504 17.2419 19.2861 17.2276 19.3218C17.2133 19.3647 17.2062 19.4075 17.2204 19.4504C17.4276 20.1647 17.4276 20.9147 17.2204 21.629C17.0204 22.3433 16.6204 22.9861 16.0633 23.479C15.0204 24.5076 14.4347 25.9004 14.4276 27.3575C14.3704 31.2433 17.3062 33.2861 20.2419 33.529H20.6776C21.8704 33.479 23.0276 33.1075 24.0276 32.4504C25.0276 31.8004 25.8204 30.8861 26.3419 29.8147C26.6847 29.029 26.8704 28.1861 26.8847 27.329C26.899 26.4718 26.7419 25.6218 26.4204 24.829L26.4061 24.8361Z" fill="#A8A8A8"/>
<mask id="mask0_2299_2462" style="mask-type:luminance" maskUnits="userSpaceOnUse" x="15" y="10" width="12" height="26">
<path d="M26.2852 10.7861H15.2852V35.7861H26.2852V10.7861Z" fill="white"/>
</mask>
<g mask="url(#mask0_2299_2462)">
<path d="M26.278 17.2504C26.278 16.6504 26.2066 16.0504 26.0709 15.4718C25.6352 13.629 24.528 12.129 23.0566 11.3504C22.3423 10.9718 21.5709 10.7861 20.7852 10.7861C19.9994 10.7861 19.2923 10.9647 18.5923 11.3147C16.578 12.3218 15.2852 14.6576 15.2852 17.2504C15.2852 17.3504 15.2852 17.4576 15.2923 17.5576V17.629C15.4209 20.2647 16.8709 22.4933 18.9209 23.3361C19.078 24.129 19.0637 24.5361 19.0423 24.7147C18.9637 25.2361 18.8423 25.629 18.7352 25.979C18.5709 26.5218 18.4066 27.0361 18.5352 27.6433C18.5494 27.8861 18.2566 28.6576 17.9352 29.279C17.8923 29.3504 17.8709 29.4218 17.8494 29.4933L17.2066 31.8861C17.1852 31.9718 17.178 32.0504 17.178 32.1361V34.6861C17.178 35.2933 17.7494 35.7861 18.4494 35.7861H23.1066C23.8066 35.7861 24.378 35.2933 24.378 34.6861V32.1361C24.378 32.0433 24.3637 31.9576 24.3352 31.8718C24.3352 31.8504 24.3209 31.829 24.3137 31.8076C24.3066 31.7861 24.2994 31.7576 24.2923 31.7361C24.2709 31.6861 24.2423 31.6433 24.2209 31.6076C24.2137 31.5933 24.2066 31.579 24.1994 31.5647C24.1566 31.5004 24.1137 31.4504 24.0566 31.3933V31.379C24.0566 31.379 24.0066 31.3433 23.9709 31.2933H23.9637C23.9137 31.229 23.8423 31.1647 23.7709 31.079C23.6923 30.9861 23.6137 30.8861 23.528 30.779C23.4423 30.6718 23.3566 30.5433 23.2709 30.429C22.9994 30.0076 22.9923 29.829 22.9923 29.829C22.9923 29.5647 23.0852 29.3433 23.2066 29.0933C23.378 28.7076 23.6352 28.1433 23.3352 27.5218C23.328 27.2004 23.4923 26.3361 23.5709 25.9147C23.6923 25.3147 23.7566 24.9576 23.7566 24.6861C23.7566 24.329 23.6709 23.5361 23.5852 22.8433C24.7494 22.0504 25.6352 20.779 26.0423 19.229C26.2137 18.579 26.3066 17.9218 26.3066 17.2504H26.2994H26.278Z" fill="#FEFEFE"/>
<path d="M20.5427 29.7861C20.5427 28.829 21.1641 28.3433 20.8855 27.9076C20.607 27.4718 21.2855 25.3361 21.2855 24.7861C21.2855 24.4076 21.0998 23.2433 21.0141 22.6004C20.9355 22.6004 20.857 22.6147 20.7784 22.6147C20.5213 22.6147 20.2784 22.579 20.0284 22.5219C20.2284 23.3361 20.3855 24.2361 20.2927 24.8576C20.0855 26.2218 19.6427 26.779 19.7855 27.4647C19.9284 28.1504 19.0784 29.7361 19.0784 29.7361L18.4355 32.129V34.179C18.4355 34.4576 18.657 34.679 18.9355 34.679H21.8713V32.129C21.8713 32.129 20.5355 30.7433 20.5355 29.7861H20.5427Z" fill="#66501C"/>
<path d="M21.2347 24.6933C21.2347 25.2362 20.2561 27.6005 20.5347 28.0362C20.8133 28.4719 20.4775 28.879 20.4775 29.8362C20.4775 30.7933 21.5347 32.2862 21.5347 32.2862L21.8847 34.6862H22.6061C22.8847 34.6862 23.1061 34.4648 23.1061 34.1862V32.1362C23.1061 32.1362 22.5561 31.6148 22.1418 30.9862C21.899 30.6148 21.699 30.2005 21.699 29.8433C21.699 28.8862 22.3918 28.3505 22.1133 27.9148C21.8347 27.479 22.4561 25.2433 22.4561 24.7005C22.4561 24.2505 22.2704 22.8148 22.199 22.3076C21.8275 22.479 21.1918 22.5148 20.7847 22.5433C20.8633 23.179 21.2347 24.3219 21.2347 24.7005V24.6933Z" fill="#33280E"/>
<path d="M24.8352 15.7004C24.4709 14.1575 23.5638 12.9075 22.4066 12.2933C21.9066 12.029 21.3638 11.8861 20.7852 11.8861C20.2066 11.8861 19.7138 12.0218 19.2281 12.2647C17.6638 13.0504 16.5566 14.9861 16.5566 17.2504C16.5566 17.3575 16.5566 17.4718 16.5709 17.579C16.6924 20.0647 18.1424 22.1004 20.0424 22.529C20.2781 22.5861 20.5352 22.6218 20.7924 22.6218C20.8709 22.6218 20.9495 22.6218 21.0281 22.6075C21.4424 22.579 21.8352 22.479 22.2138 22.3075C23.4209 21.7575 24.3709 20.5361 24.7852 18.9861C24.9281 18.4433 25.0138 17.8647 25.0138 17.2647C25.0138 16.729 24.9495 16.2004 24.8281 15.7147L24.8352 15.7004Z" fill="#66501C"/>
<path d="M24.8354 15.7076C24.4712 14.1647 23.564 12.9147 22.4069 12.3005C21.9069 12.0362 21.364 11.8933 20.7854 11.8933C20.2997 11.8933 19.8354 12.0005 19.3926 12.1933C19.4711 12.1933 19.5569 12.179 19.6354 12.179C20.2069 12.179 20.7569 12.3219 21.2569 12.5862C22.414 13.2005 23.3211 14.4505 23.6854 15.9933C23.8069 16.4862 23.8712 17.0076 23.8712 17.5433C23.8712 18.1505 23.7926 18.729 23.6426 19.2647C23.2283 20.8076 22.264 22.029 21.0426 22.579C21.0354 22.579 21.0211 22.579 21.014 22.5933C21.4211 22.5576 21.8354 22.4719 22.1997 22.2933C23.4069 21.7433 24.3569 20.5219 24.7712 18.9719C24.914 18.429 24.9997 17.8505 24.9997 17.2505C24.9997 16.7147 24.9354 16.1862 24.814 15.7005H24.8283L24.8354 15.7076Z" fill="#33280E"/>
<path d="M20.8998 34.6861H18.9355C18.657 34.6861 18.4355 34.4647 18.4355 34.1861V32.1361L20.1284 32.8575L20.8998 32.1361V34.6861Z" fill="#FFD3B3"/>
<path d="M23.1066 34.1862C23.1066 34.4648 22.8851 34.6862 22.6066 34.6862H20.8994V32.1362L21.4851 31.3505L23.1066 32.1362V34.1862Z" fill="#FFD3B3"/>
</g>
</g>
<defs>
<clipPath id="clip0_2299_2462">
<rect width="22" height="31.5" fill="white" transform="translate(9.28516 4.28613)"/>
</clipPath>
</defs>
</svg>
