<svg width="40" height="40" viewBox="0 0 40 40" fill="none" xmlns="http://www.w3.org/2000/svg">
<rect width="40" height="40" rx="20" fill="#FEFEFE"/>
<g clip-path="url(#clip0_2299_2456)">
<path d="M23.5518 16.7191V17.3487H26.4608V8.94289C26.4608 8.34301 25.8663 7.75793 25.0027 7.75793C24.1392 7.75793 23.6155 8.28376 23.5588 8.85402V15.6453C23.5588 15.6453 23.5588 15.6601 23.5588 15.6675V16.6081V16.6895C23.5588 16.6895 23.5588 16.7117 23.5588 16.7191H23.5518Z" fill="#1B58B3"/>
<path d="M22.9291 8.94297V6.92114C22.9008 6.58047 22.738 6.26201 22.469 6.03242C22.2 5.80284 21.8532 5.69175 21.4993 5.71397H21.4922H21.4852C20.6216 5.71397 20.0271 6.29904 20.0271 6.90633V15.6454C20.0271 15.6454 20.02 15.6824 20.02 15.6972V16.6007H22.9291V8.94297Z" fill="#1B58B3"/>
<path d="M15.8512 17.3413V16.7266L15.8441 12.1275C15.8016 11.5572 15.2141 11.0092 14.3577 11.0092C13.4659 11.0092 12.8643 11.5942 12.8643 12.1941V18.8224H15.8512V17.3413Z" fill="#1B58B3"/>
<path d="M19.39 16.7413L19.3829 8.82432C19.3546 8.48365 19.1918 8.16519 18.9229 7.93561C18.6539 7.70602 18.3071 7.58753 17.9461 7.61715H17.9319H17.9178C17.1817 7.61715 16.6438 8.0467 16.5022 8.5429C16.4951 8.58733 16.481 8.63177 16.481 8.6688C16.481 8.68361 16.481 8.69842 16.481 8.71323V17.3412H19.39V16.7339V16.7413Z" fill="#1B58B3"/>
<path d="M29.5822 16.8821C29.3132 16.6155 28.9381 16.46 28.5488 16.46C28.1595 16.46 27.7915 16.6155 27.5154 16.8821C27.2465 17.1487 27.0907 17.5116 27.0907 17.8893V20.8665V21.7848C27.0907 21.9256 26.8713 22.0959 26.475 22.0292C26.3759 22.0144 26.2343 22.0144 26.0644 22.0144C25.7176 22.0144 25.2717 22.0589 24.8329 22.207C24.394 22.3551 23.9694 22.6069 23.6579 23.0216C23.3465 23.4364 23.12 24.0437 23.12 24.9472C23.12 25.1472 22.9643 25.3101 22.7661 25.3101C22.5679 25.3101 22.4122 25.1472 22.4122 24.9472C22.4122 23.9104 22.6741 23.1401 23.0988 22.5773C23.5164 22.0144 24.0755 21.696 24.6135 21.5108C25.1443 21.3331 25.6751 21.2812 26.0644 21.2812C26.2272 21.2812 26.3617 21.2812 26.4679 21.2961V19.4964V17.3487H23.5588V19.489C23.5588 19.6741 23.4173 19.8223 23.2474 19.8223C23.0775 19.8223 22.936 19.6741 22.936 19.4964V17.3487V16.6081H20.0269V17.3487V19.489C20.0269 19.6741 19.8854 19.8223 19.7155 19.8223C19.5456 19.8223 19.4041 19.6741 19.4041 19.489V17.3487H16.4809V19.4816C16.4809 19.4816 16.4809 19.4816 16.4809 19.489C16.4809 19.6741 16.3393 19.8223 16.1623 19.8223C15.9854 19.8223 15.8438 19.6741 15.8438 19.489C15.8438 19.489 15.8438 19.489 15.8438 19.4816V19.3113C15.8438 19.3113 15.8438 19.3113 15.8438 19.3039V18.8299H12.8569V19.3039H12.8782V25.9396C12.8782 27.7837 13.6072 29.5241 14.9237 30.8275C16.2473 32.1384 18.0026 32.8642 19.8712 32.8642H22.9997C24.8683 32.8642 26.6236 32.1384 27.9472 30.8275C29.2637 29.5167 29.9856 27.7837 29.9856 25.9396V19.3039H30.0069V17.8967C30.0069 17.519 29.8582 17.1561 29.5822 16.8895V16.8821Z" fill="#E0E0E0"/>
</g>
<path d="M15.0036 34.9996C14.1893 34.9996 13.5036 34.4789 13.2608 33.7443C12.9893 33.6587 12.7393 33.5018 12.5251 33.2879C12.4108 33.1666 12.3179 33.0454 12.2393 32.9099C12.1679 32.917 12.0965 32.9241 12.0179 32.9241C11.6179 32.9241 11.2393 32.7957 10.9108 32.5461C10.8679 32.5105 10.8251 32.4819 10.7822 32.4391C10.6536 32.4677 10.5179 32.4819 10.3893 32.4819C9.7322 32.4819 9.14649 32.1396 8.81792 31.569C8.41078 30.8701 8.52506 30.0142 9.05363 29.4365C8.93935 28.923 9.05363 28.3881 9.3822 27.953C9.3822 27.953 9.3822 27.953 9.38935 27.9459C9.24649 27.7604 9.13935 27.5393 9.07506 27.2969C8.99649 27.0044 8.98935 26.712 9.04649 26.4339C8.5322 25.8633 8.41078 25.0217 8.80363 24.3156C9.14649 23.7236 9.7322 23.3813 10.3893 23.3813C10.5179 23.3813 10.6536 23.3956 10.7822 23.4241C10.8608 23.3528 10.9393 23.2886 11.0251 23.2315C11.3179 23.039 11.6608 22.9391 12.0179 22.9391C12.0679 22.9391 12.1179 22.9391 12.1679 22.9391C12.3751 22.4755 12.7751 22.1189 13.2679 21.9763C13.5108 21.2488 14.1679 20.7353 14.9608 20.7139C15.8036 20.7139 16.4822 21.2345 16.7251 21.9763C16.7465 21.9834 16.7751 21.9905 16.7965 21.9977C17.3036 22.176 17.7036 22.5682 17.8893 23.0746C17.9251 23.0746 17.9536 23.0746 17.9893 23.0746C18.4536 23.0746 18.8893 23.2529 19.2251 23.5596C19.3608 23.5311 19.5036 23.5168 19.6393 23.5168C19.6822 23.5168 19.7679 23.5168 19.8108 23.5168C20.6679 23.6167 21.3036 24.2657 21.4108 25.093C21.4679 25.6565 21.3036 26.17 20.9536 26.5551C21.0608 27.0116 20.9751 27.4894 20.7179 27.896C20.8822 28.167 20.9893 28.4808 20.9965 28.8231C20.9965 28.9729 20.9893 29.1156 20.9536 29.2582C21.4751 29.8216 21.5893 30.6989 21.1751 31.4121C20.8536 31.9684 20.2536 32.3179 19.6036 32.3179C19.4751 32.3179 19.3393 32.3036 19.2108 32.2751C19.0036 32.4605 18.7536 32.596 18.4679 32.6816C18.3036 32.7244 18.1393 32.7458 17.9822 32.7458C17.9322 32.7458 17.8822 32.7458 17.8322 32.7458C17.6251 33.2023 17.2322 33.5518 16.7322 33.7087C16.4965 34.4361 15.8322 34.9568 15.0251 34.9711H14.9965L15.0036 34.9996Z" fill="#FEFEFE"/>
<path d="M11.368 29.6292C11.1395 29.565 10.9395 29.508 10.7395 29.458C10.5895 29.4152 10.4895 29.3225 10.4466 29.1727C10.3609 28.8589 10.6323 28.5808 10.968 28.6592C11.2109 28.7163 11.4466 28.7876 11.6895 28.8518C11.868 28.9017 12.0466 28.9374 12.218 28.9944C12.3466 29.0372 12.4466 29.0158 12.5609 28.9445C13.0895 28.6307 13.618 28.3311 14.1537 28.0245C14.1966 28.0031 14.2395 27.9674 14.2895 27.9317C13.7895 27.6465 13.2966 27.3826 12.8252 27.0759C12.5252 26.8762 12.2466 26.8263 11.9037 26.9546C11.6037 27.0688 11.2823 27.1258 10.9752 27.2043C10.7252 27.2685 10.5037 27.1543 10.4466 26.9261C10.3823 26.6907 10.5109 26.4768 10.768 26.4055C10.9537 26.3484 11.1466 26.2985 11.3752 26.2414C11.1252 26.0916 10.8966 25.9633 10.6752 25.8349C10.5252 25.7422 10.3752 25.6637 10.2252 25.571C9.99659 25.4355 9.92516 25.2001 10.0395 24.9933C10.1609 24.7793 10.4037 24.7223 10.6395 24.8578C11.0037 25.0646 11.3609 25.2715 11.7323 25.4854C11.7395 25.4854 11.7537 25.4854 11.7895 25.4997C11.7323 25.2928 11.6752 25.0931 11.6252 24.8934C11.5752 24.7009 11.6466 24.5226 11.7966 24.4227C11.9395 24.33 12.1395 24.33 12.268 24.4441C12.3395 24.5154 12.4037 24.6224 12.4395 24.7294C12.5609 25.1502 12.668 25.5781 12.7895 25.9989C12.8037 26.0489 12.8323 26.113 12.868 26.1344C13.4323 26.4697 14.0037 26.7906 14.5895 27.1329C14.5895 27.0759 14.5966 27.026 14.5966 26.9832V25.2073C14.5966 25.1359 14.5537 25.0361 14.5037 24.9862C14.1966 24.6652 13.8823 24.3585 13.5609 24.0376C13.4323 23.9092 13.3823 23.7523 13.4537 23.574C13.5109 23.41 13.6466 23.303 13.818 23.3244C13.9395 23.3315 14.068 23.3957 14.1537 23.467C14.3037 23.5883 14.4252 23.738 14.5609 23.8807H14.6037V22.5969C14.6037 22.3259 14.7752 22.1404 15.0109 22.1333C15.2609 22.1333 15.4252 22.3187 15.4252 22.5969V23.8664L15.468 23.8878C15.6109 23.738 15.7537 23.5883 15.8966 23.4385C16.018 23.3172 16.168 23.2744 16.3323 23.3315C16.4895 23.3886 16.5823 23.5027 16.6037 23.6667C16.618 23.8165 16.5609 23.9377 16.4609 24.0376C16.1466 24.3514 15.818 24.6723 15.5109 24.9933C15.468 25.0361 15.4395 25.1003 15.4323 25.1502C15.4323 25.842 15.4323 26.541 15.4323 27.2613C15.4895 27.2328 15.5395 27.2114 15.5895 27.19C16.0966 26.8976 16.6037 26.6052 17.1109 26.3056C17.1752 26.2628 17.2323 26.1844 17.2537 26.113C17.3752 25.6851 17.4895 25.2429 17.6037 24.815C17.6466 24.6438 17.7609 24.5368 17.9252 24.5012C18.0895 24.4726 18.2252 24.5226 18.3323 24.6581C18.4252 24.7793 18.4323 24.9077 18.3895 25.0504C18.3395 25.2358 18.2895 25.4355 18.2252 25.6566C18.6252 25.4212 18.9895 25.2073 19.3609 25.0076C19.4609 24.9505 19.5966 24.9291 19.7109 24.9362C19.8823 24.9576 20.0037 25.1074 20.0252 25.2715C20.0466 25.4569 19.968 25.5995 19.8109 25.6922C19.4966 25.8777 19.1823 26.056 18.868 26.2343C18.8109 26.27 18.7466 26.3056 18.6466 26.3627C18.868 26.4269 19.068 26.4697 19.2537 26.5338C19.3609 26.5766 19.4609 26.6408 19.5323 26.7264C19.6395 26.8619 19.618 27.026 19.518 27.1686C19.4037 27.3255 19.2395 27.3683 19.0537 27.3255C18.6537 27.2185 18.2609 27.1258 17.8752 27.0046C17.6966 26.9475 17.5609 26.976 17.4037 27.0688C16.9395 27.354 16.4609 27.6179 15.968 27.9032C16.018 27.9317 16.0537 27.9603 16.0895 27.9817C16.568 28.2598 17.0537 28.5451 17.5395 28.8161C17.5966 28.8447 17.6752 28.8589 17.7395 28.8375C18.1609 28.7305 18.5752 28.6164 18.9966 28.5023C19.0823 28.4809 19.1895 28.4595 19.2823 28.4809C19.468 28.5166 19.5966 28.6806 19.5966 28.8661C19.5966 29.0586 19.4895 29.2227 19.2966 29.2797C19.1323 29.3296 18.9609 29.3724 18.7966 29.4152C18.7537 29.4224 18.7252 29.4366 18.6609 29.458C18.968 29.6363 19.2537 29.8004 19.5395 29.9715C19.6323 30.0286 19.7252 30.0785 19.818 30.1356C20.0252 30.264 20.0966 30.4993 19.9752 30.7062C19.8609 30.9059 19.618 30.9772 19.4037 30.8488C19.0752 30.6634 18.7395 30.4637 18.4109 30.2711C18.3609 30.2426 18.3109 30.2212 18.2395 30.1784C18.2966 30.4209 18.3609 30.6348 18.4109 30.8488C18.4609 31.0628 18.3252 31.2553 18.1109 31.3124C17.9109 31.3694 17.6966 31.2553 17.618 31.0556C17.5966 30.9986 17.5895 30.9486 17.5752 30.8916C17.468 30.4922 17.368 30.1071 17.2537 29.7148C17.2323 29.6363 17.168 29.5579 17.0966 29.5151C16.6037 29.2155 16.1037 28.9374 15.5966 28.645C15.5466 28.6164 15.4966 28.595 15.4395 28.5594C15.4395 28.6164 15.4395 28.6521 15.4395 28.6878V30.4851C15.4395 30.5564 15.4823 30.642 15.5252 30.6919C15.8395 31.0128 16.1609 31.3338 16.4752 31.6476C16.5966 31.7688 16.6466 31.9115 16.5966 32.0827C16.5537 32.2396 16.4395 32.3323 16.2823 32.3679C16.1252 32.4036 15.9966 32.3466 15.8966 32.2396C15.7609 32.0969 15.618 31.94 15.4823 31.7902L15.4395 31.8116V33.1168C15.4395 33.3665 15.268 33.5376 15.0323 33.5448C14.7966 33.5448 14.618 33.3736 14.618 33.1311C14.618 32.7317 14.618 32.3323 14.618 31.94C14.618 31.8972 14.618 31.8616 14.5752 31.8045C14.4466 31.94 14.3252 32.0755 14.1966 32.211C13.9895 32.425 13.7466 32.4393 13.5609 32.2538C13.3895 32.0755 13.4037 31.833 13.6037 31.6333C13.918 31.3195 14.2252 31.0128 14.5323 30.699C14.568 30.6634 14.6109 30.6063 14.6109 30.5635C14.6109 29.9501 14.6109 29.3368 14.6109 28.702C14.518 28.7591 14.4395 28.7947 14.3609 28.8375C13.8823 29.1157 13.4037 29.3867 12.9323 29.6649C12.8752 29.7005 12.8252 29.7718 12.8037 29.836C12.6823 30.264 12.568 30.7062 12.4537 31.1341C12.368 31.4479 12.0466 31.5763 11.7966 31.3837C11.6395 31.2696 11.6109 31.1127 11.6537 30.9344C11.7037 30.7347 11.7609 30.5421 11.818 30.3068C11.6966 30.3781 11.5966 30.428 11.5037 30.4851C11.2323 30.642 10.9609 30.7989 10.6823 30.9629C10.4466 31.0984 10.2037 31.0414 10.0823 30.8345C9.96088 30.6206 10.0252 30.3852 10.268 30.2497C10.5966 30.0571 10.9252 29.8717 11.2466 29.6863C11.2895 29.6649 11.3252 29.6292 11.3966 29.5935L11.368 29.6292Z" fill="#1B58B3"/>
<defs>
<clipPath id="clip0_2299_2456">
<rect width="17.1429" height="27.1429" fill="white" transform="translate(12.8569 5.71387)"/>
</clipPath>
</defs>
</svg>
