<svg width="40" height="40" viewBox="0 0 40 40" fill="none" xmlns="http://www.w3.org/2000/svg">
<rect width="40" height="40" rx="20" fill="#FEFEFE"/>
<path d="M29.6984 33.5716H25.2943V32.5987C25.287 32.3804 25.2363 32.1658 25.1451 31.9671C25.0539 31.7684 24.924 31.5895 24.7629 31.4408C24.6019 31.2921 24.4128 31.1764 24.2065 31.1005C24.0003 31.0245 23.7809 30.9898 23.5611 30.9983H12.558C10.8625 30.9983 9.23642 30.3298 8.0375 29.1399C6.83858 27.9499 6.16504 26.336 6.16504 24.6532C6.16504 22.9704 6.83858 21.3565 8.0375 20.1665C9.23642 18.9766 10.8625 18.3081 12.558 18.3081H27.1412C27.5841 18.3215 28.0146 18.161 28.339 17.8614C28.6635 17.5617 28.8559 17.1472 28.8744 16.7077V16.1931C28.8577 15.753 28.6659 15.3374 28.341 15.0374C28.0161 14.7374 27.5846 14.5775 27.1412 14.5927H17.1965C15.536 14.5576 13.9575 13.8695 12.808 12.6796C11.6585 11.4898 11.0321 9.8957 11.0663 8.24763V6.42871H15.4917V8.26878C15.4999 8.48641 15.5513 8.70028 15.6429 8.89818C15.7345 9.09607 15.8645 9.2741 16.0255 9.42209C16.1865 9.57007 16.3753 9.6851 16.5811 9.76061C16.7869 9.83611 17.0057 9.8706 17.2249 9.86211H27.1696C28.8301 9.89912 30.4082 10.5876 31.5584 11.7768C32.7086 12.9659 33.3373 14.559 33.3068 16.2072V16.7289C33.3373 18.3771 32.7086 19.9701 31.5584 21.1593C30.4082 22.3485 28.8301 23.037 27.1696 23.074H12.558C12.3378 23.0594 12.1168 23.09 11.9089 23.1636C11.701 23.2373 11.5106 23.3526 11.3494 23.5023C11.1882 23.652 11.0597 23.8329 10.9718 24.0339C10.8839 24.2349 10.8386 24.4517 10.8386 24.6708C10.8386 24.8899 10.8839 25.1067 10.9718 25.3077C11.0597 25.5087 11.1882 25.6897 11.3494 25.8394C11.5106 25.9891 11.701 26.1044 11.9089 26.178C12.1168 26.2517 12.3378 26.2822 12.558 26.2677H23.5256C24.3484 26.2842 25.1598 26.4614 25.9136 26.7892C26.6674 27.1171 27.3487 27.5891 27.9186 28.1783C28.4886 28.7675 28.9359 29.4624 29.2352 30.2233C29.5345 30.9842 29.6798 31.7961 29.6628 32.6128L29.6984 33.5716Z" fill="#E0E0E0"/>
<path d="M25.2073 25.5645C24.2658 25.5643 23.3466 25.2778 22.5716 24.7431C21.7955 25.2781 20.875 25.5647 19.9323 25.5647C18.9896 25.5647 18.0692 25.2781 17.293 24.7431C16.5918 25.2264 15.7718 25.5087 14.9217 25.5597C14.0715 25.6107 13.2237 25.4283 12.4697 25.0322C11.7158 24.6362 11.0844 24.0415 10.644 23.3126C10.2035 22.5837 9.9707 21.7483 9.9707 20.8966C9.9707 20.045 10.2035 19.2096 10.644 18.4807C11.0844 17.7518 11.7158 17.1571 12.4697 16.7611C13.2237 16.365 14.0715 16.1826 14.9217 16.2336C15.7718 16.2846 16.5918 16.5669 17.293 17.0502C18.0692 16.5152 18.9896 16.2286 19.9323 16.2286C20.875 16.2286 21.7955 16.5152 22.5716 17.0502C23.1744 16.6379 23.8657 16.373 24.5897 16.2767C25.3136 16.1804 26.0501 16.2554 26.7398 16.4958C27.4294 16.7362 28.053 17.1351 28.5603 17.6606C29.0676 18.186 29.4444 18.8232 29.6603 19.5209C29.8763 20.2186 29.9254 20.9572 29.8038 21.6774C29.6821 22.3975 29.393 23.079 28.9597 23.667C28.5265 24.255 27.9612 24.733 27.3095 25.0626C26.6577 25.3922 25.9377 25.5641 25.2073 25.5645Z" fill="#FEFEFE"/>
<path d="M25.2074 17.6574C24.6901 17.6564 24.1802 17.7807 23.7212 18.0195C23.2622 18.2583 22.8679 18.6046 22.5717 19.0288C22.2737 18.6058 21.8784 18.2606 21.4191 18.0224C20.9597 17.7841 20.4499 17.6598 19.9325 17.6598C19.415 17.6598 18.9052 17.7841 18.4458 18.0224C17.9865 18.2606 17.5912 18.6058 17.2932 19.0288C16.8964 18.4657 16.3306 18.0436 15.6779 17.8236C15.0251 17.6036 14.3192 17.5972 13.6626 17.8053C13.0059 18.0134 12.4326 18.4252 12.0257 18.9811C11.6188 19.5369 11.3994 20.2078 11.3994 20.8967C11.3994 21.5855 11.6188 22.2565 12.0257 22.8123C12.4326 23.3681 13.0059 23.7799 13.6626 23.988C14.3192 24.1961 15.0251 24.1897 15.6779 23.9697C16.3306 23.7497 16.8964 23.3276 17.2932 22.7645C17.5912 23.1875 17.9865 23.5327 18.4458 23.7709C18.9052 24.0092 19.415 24.1336 19.9325 24.1336C20.4499 24.1336 20.9597 24.0092 21.4191 23.7709C21.8784 23.5327 22.2737 23.1875 22.5717 22.7645C22.893 23.2176 23.3254 23.5804 23.8274 23.8179C24.3294 24.0554 24.8841 24.1598 25.4381 24.1208C25.9922 24.0819 26.5268 23.901 26.9907 23.5956C27.4546 23.2902 27.832 22.8706 28.0867 22.377C28.3414 21.8835 28.4648 21.3327 28.445 20.7777C28.4252 20.2226 28.2629 19.6821 27.9736 19.2079C27.6844 18.7338 27.278 18.3421 26.7935 18.0706C26.309 17.799 25.7628 17.6567 25.2074 17.6574Z" fill="#FFC847"/>
<path d="M25.2065 22.95C24.6895 22.9492 24.1802 22.8242 23.7216 22.5855C23.2629 22.3469 22.8682 22.0016 22.5708 21.5786C22.2728 22.0016 21.8775 22.3468 21.4182 22.585C20.9588 22.8233 20.449 22.9477 19.9315 22.9477C19.4141 22.9477 18.9043 22.8233 18.4449 22.585C17.9856 22.3468 17.5903 22.0016 17.2923 21.5786C16.9266 22.1006 16.4146 22.5027 15.8208 22.7342C15.227 22.9657 14.5779 23.0163 13.9554 22.8796C13.3329 22.7429 12.7648 22.425 12.3226 21.9659C11.8805 21.5069 11.5841 20.9272 11.4708 20.3C11.381 20.7679 11.3961 21.2498 11.515 21.7111C11.6338 22.1724 11.8535 22.6016 12.1582 22.9678C12.4629 23.3339 12.845 23.628 13.277 23.8287C13.709 24.0294 14.1802 24.1319 14.6565 24.1286C15.1739 24.1296 15.6838 24.0053 16.1428 23.7665C16.6018 23.5277 16.9961 23.1814 17.2923 22.7572C17.5903 23.1802 17.9856 23.5254 18.4449 23.7636C18.9043 24.0019 19.4141 24.1262 19.9315 24.1262C20.449 24.1262 20.9588 24.0019 21.4182 23.7636C21.8775 23.5254 22.2728 23.1802 22.5708 22.7572C22.966 23.3212 23.5309 23.7445 24.1832 23.9653C24.8356 24.1862 25.5413 24.1931 26.1979 23.9852C26.8545 23.7772 27.4275 23.3652 27.8338 22.809C28.24 22.2529 28.4582 21.5816 28.4565 20.8929C28.4556 20.694 28.4364 20.4955 28.3994 20.3C28.2626 21.0435 27.8698 21.7156 27.2891 22.1996C26.7085 22.6837 25.9768 22.9492 25.2208 22.95H25.2065Z" fill="#D9AA3C"/>
</svg>
