<svg width="40" height="40" viewBox="0 0 40 40" fill="none" xmlns="http://www.w3.org/2000/svg">
<rect width="40" height="40" rx="20" fill="#FEFEFE"/>
<path d="M20.0001 33.5714C27.4954 33.5714 33.5716 27.4953 33.5716 20C33.5716 12.5047 27.4954 6.42859 20.0001 6.42859C12.5048 6.42859 6.42871 12.5047 6.42871 20C6.42871 27.4953 12.5048 33.5714 20.0001 33.5714Z" fill="#FFC847"/>
<path fill-rule="evenodd" clip-rule="evenodd" d="M14.3155 16.8463C14.3606 16.4544 14.7149 16.1733 15.1068 16.2184L15.0251 16.928C15.1068 16.2184 15.1069 16.2184 15.1068 16.2184L15.1058 16.2183L15.1046 16.2181C15.1045 16.2181 15.1054 16.2182 15.1068 16.2184L15.123 16.2199C15.1391 16.2213 15.1652 16.2233 15.1994 16.2253C15.2684 16.2291 15.3684 16.2323 15.4862 16.2291C15.7309 16.2224 16.0113 16.189 16.2454 16.1038C16.4795 16.0186 16.7158 15.8639 16.9075 15.7118C16.9998 15.6385 17.0744 15.5718 17.1247 15.5245C17.1498 15.501 17.1684 15.4827 17.1798 15.4713L17.1914 15.4596C17.1923 15.4586 17.1928 15.4581 17.1928 15.4581L17.1919 15.459C17.4632 15.1727 17.9147 15.1609 18.2011 15.4321C18.4875 15.7033 18.4999 16.1554 18.2286 16.4419L17.71 15.9508C18.2286 16.4419 18.2287 16.4418 18.2286 16.4419L18.2278 16.4428L18.2267 16.4439L18.2239 16.4468L18.2159 16.4551C18.2095 16.4618 18.2009 16.4705 18.1903 16.4811C18.1691 16.5023 18.1396 16.5312 18.1026 16.5659C18.029 16.635 17.9244 16.7285 17.7955 16.8308C17.5449 17.0297 17.1711 17.2871 16.734 17.4462C16.2969 17.6053 15.845 17.6484 15.5252 17.6571C15.3608 17.6616 15.2205 17.6572 15.1197 17.6516C15.0691 17.6488 15.028 17.6456 14.9981 17.643C14.9831 17.6417 14.9709 17.6405 14.9618 17.6396L14.9503 17.6384L14.9463 17.6379L14.9447 17.6377L14.9437 17.6376C14.9436 17.6376 14.9435 17.6376 15.0251 16.928L14.9437 17.6376C14.5518 17.5925 14.2704 17.2382 14.3155 16.8463Z" fill="#33280E"/>
<path fill-rule="evenodd" clip-rule="evenodd" d="M21.7742 15.432C22.0606 15.1608 22.5127 15.1732 22.7839 15.4596L22.2652 15.9507C22.7839 15.4596 22.784 15.4597 22.7839 15.4596L22.7833 15.4589L22.7824 15.458C22.7824 15.458 22.783 15.4586 22.7839 15.4596L22.7954 15.4712C22.8068 15.4826 22.8254 15.5009 22.8505 15.5244C22.9008 15.5717 22.9754 15.6384 23.0677 15.7117C23.2594 15.8638 23.4957 16.0185 23.7298 16.1037C23.9639 16.1889 24.2443 16.2223 24.489 16.229C24.6068 16.2322 24.7068 16.229 24.7758 16.2252C24.8101 16.2233 24.8361 16.2212 24.8522 16.2198L24.8686 16.2183C24.87 16.2181 24.8707 16.2181 24.8706 16.2181L24.8694 16.2182C25.2612 16.1733 25.6146 16.4544 25.6597 16.8463C25.7048 17.2382 25.4236 17.5924 25.0317 17.6375L24.9501 16.9279C25.0317 17.6375 25.0319 17.6375 25.0317 17.6375L25.0305 17.6377L25.0289 17.6378L25.0249 17.6383L25.0135 17.6395C25.0043 17.6404 24.9921 17.6416 24.9771 17.6429C24.9473 17.6455 24.9061 17.6487 24.8555 17.6515C24.7547 17.6572 24.6144 17.6615 24.45 17.6571C24.1302 17.6483 23.6783 17.6052 23.2412 17.4461C22.8041 17.287 22.4303 17.0296 22.1797 16.8307C22.0508 16.7285 21.9462 16.635 21.8726 16.5658C21.8356 16.5312 21.8061 16.5023 21.7849 16.481C21.7743 16.4704 21.7657 16.4617 21.7593 16.4551L21.7513 16.4468L21.7485 16.4439L21.7474 16.4427L21.7468 16.442C21.7467 16.4419 21.7466 16.4418 22.2652 15.9507L21.7468 16.442C21.4755 16.1556 21.4877 15.7033 21.7742 15.432Z" fill="#33280E"/>
<path fill-rule="evenodd" clip-rule="evenodd" d="M23.5717 5C23.9662 5 24.286 5.3198 24.286 5.71429V11.4286C24.286 11.8231 23.9662 12.1429 23.5717 12.1429C23.1772 12.1429 22.8574 11.8231 22.8574 11.4286V5.71429C22.8574 5.3198 23.1772 5 23.5717 5Z" fill="#33280E"/>
<path fill-rule="evenodd" clip-rule="evenodd" d="M26.4286 7.14282C26.8231 7.14282 27.1429 7.46262 27.1429 7.85711V13.5714C27.1429 13.9659 26.8231 14.2857 26.4286 14.2857C26.0342 14.2857 25.7144 13.9659 25.7144 13.5714V7.85711C25.7144 7.46262 26.0342 7.14282 26.4286 7.14282Z" fill="#33280E"/>
<path fill-rule="evenodd" clip-rule="evenodd" d="M29.2861 5.71423C29.6806 5.71423 30.0003 6.03403 30.0003 6.42852V12.1428C30.0003 12.5373 29.6806 12.8571 29.2861 12.8571C28.8916 12.8571 28.5718 12.5373 28.5718 12.1428V6.42852C28.5718 6.03403 28.8916 5.71423 29.2861 5.71423Z" fill="#33280E"/>
<path d="M20.0001 21.4286C17.6085 21.4286 16.8852 22.7631 16.5733 23.7566C16.4898 24.0227 16.6987 24.2857 16.9775 24.2857H23.0226C23.3014 24.2857 23.5104 24.0227 23.4269 23.7566C23.115 22.7631 22.3916 21.4286 20.0001 21.4286Z" fill="#33280E"/>
</svg>
