<svg width="40" height="40" viewBox="0 0 40 40" fill="none" xmlns="http://www.w3.org/2000/svg">
<rect width="40" height="40" rx="20" fill="#FEFEFE"/>
<path d="M25.3114 21.3063L24.9965 21.1839C24.4254 20.9792 23.9399 20.5762 23.622 20.0431C23.3041 19.5101 23.1734 18.8795 23.2518 18.2579C23.4875 16.4206 23.2848 14.5514 22.6615 12.8144C22.4811 12.2981 22.2709 11.7937 22.0318 11.3038C21.7697 10.758 21.6919 10.1367 21.8108 9.53947C21.9298 8.94228 22.2386 8.40381 22.6877 8.01044L22.9501 7.77909C23.2511 7.51714 23.605 7.32868 23.9856 7.2276C24.3662 7.12652 24.7638 7.11542 25.1491 7.1951C25.5344 7.27478 25.8976 7.44323 26.2117 7.68799C26.5259 7.93275 26.783 8.24757 26.9642 8.60923C28.6009 11.8276 29.2292 15.4954 28.7614 19.1017C28.7087 19.4999 28.5717 19.881 28.3602 20.2177C28.1487 20.5544 27.868 20.8383 27.5381 21.0491C27.2083 21.2598 26.8376 21.3922 26.4525 21.4367C26.0675 21.4812 25.6778 21.4367 25.3114 21.3063Z" fill="#E0E0E0"/>
<path d="M23.8436 7.30563C24.0869 7.39717 24.3165 7.52583 24.5247 7.68799C24.8388 7.93275 25.096 8.24757 25.2771 8.60923C26.9139 11.8276 27.5421 15.4954 27.0743 19.1017C27.0217 19.4998 26.8847 19.881 26.6731 20.2177C26.4616 20.5544 26.1809 20.8383 25.8511 21.0491C25.6988 21.1463 25.5379 21.2269 25.3709 21.2899L25.4132 21.3063C25.7796 21.4367 26.1693 21.4812 26.5544 21.4367C26.9394 21.3922 27.3101 21.2598 27.6399 21.0491C27.9698 20.8383 28.2505 20.5544 28.462 20.2177C28.6735 19.881 28.8105 19.4998 28.8632 19.1017C29.331 15.4954 28.7028 11.8276 27.066 8.60923C26.8848 8.24757 26.6277 7.93275 26.3136 7.68799C25.9994 7.44323 25.6363 7.27478 25.251 7.1951C24.8657 7.11542 24.468 7.12652 24.0874 7.2276C24.0048 7.24954 23.9234 7.2756 23.8436 7.30563Z" fill="#D3D3D3"/>
<path d="M20.3342 29.4546V29.124C20.3976 28.515 20.6771 27.9461 21.1248 27.5145C21.5725 27.0829 22.1609 26.8152 22.7894 26.7571C24.6265 26.5797 26.3913 25.9715 27.9318 24.9852C28.405 24.6936 28.8604 24.3757 29.2958 24.0331C29.767 23.656 30.3553 23.4431 30.9662 23.4288C31.5771 23.4144 32.1753 23.5992 32.6649 23.9537L32.9513 24.1653C33.2759 24.4032 33.5415 24.7085 33.7286 25.0588C33.9158 25.4092 34.0197 25.7956 34.0328 26.1899C34.0458 26.5842 33.9678 26.9764 33.8042 27.3376C33.6407 27.6989 33.3959 28.0201 33.0877 28.2777C30.3307 30.5946 26.8985 32.0226 23.2668 32.3637C22.8676 32.3949 22.4662 32.3405 22.0912 32.2044C21.7161 32.0682 21.3765 31.8537 21.0966 31.576C20.8167 31.2984 20.6032 30.9643 20.4715 30.5977C20.3397 30.231 20.2929 29.8408 20.3342 29.4546Z" fill="#E0E0E0"/>
<path d="M20.3233 29.5934C20.3054 29.9339 20.3555 30.2749 20.4715 30.5977C20.6032 30.9643 20.8167 31.2984 21.0966 31.576C21.3765 31.8537 21.7161 32.0682 22.0912 32.2044C22.4662 32.3405 22.8676 32.3949 23.2668 32.3637C26.8985 32.0226 30.3307 30.5946 33.0877 28.2777C33.3959 28.0201 33.6407 27.6989 33.8042 27.3376C33.9678 26.9764 34.0458 26.5842 34.0328 26.1899C34.0197 25.7956 33.9158 25.4092 33.7286 25.0588C33.6455 24.9031 33.5469 24.7564 33.4345 24.6204C33.4177 24.9401 33.3412 25.2547 33.208 25.5488C33.0445 25.9101 32.7997 26.2313 32.4915 26.4889C29.7345 28.8058 26.3023 30.2338 22.6706 30.5749C22.2714 30.6061 21.87 30.5517 21.495 30.4156C21.1199 30.2795 20.7804 30.0649 20.5004 29.7873C20.438 29.7253 20.3789 29.6606 20.3233 29.5934Z" fill="#D3D3D3"/>
<path d="M7.25416 11.763L7.47127 11.5138C7.91911 11.0962 8.50341 10.8507 9.12453 10.8193C9.74564 10.7878 10.3651 10.9723 10.8773 11.3413C12.3791 12.4141 14.1094 13.1146 15.9188 13.3824C16.4672 13.4733 17.0194 13.5327 17.5727 13.5603C18.1758 13.5854 18.7591 13.8112 19.2293 14.2016C19.6994 14.592 20.0291 15.1243 20.1655 15.7131L20.2425 16.0608C20.3311 16.4534 20.3308 16.858 20.2419 17.2451C20.1529 17.6322 19.9775 17.9919 19.7284 18.2978C19.4793 18.6038 19.1628 18.8482 18.8023 19.0132C18.4417 19.1782 18.0461 19.2597 17.6445 19.2516C14.0439 19.188 10.5177 18.0107 7.55507 15.8828C7.23354 15.6442 6.96659 15.3396 6.77315 14.9906C6.57971 14.6416 6.46455 14.2568 6.43583 13.8636C6.40711 13.4703 6.46551 13.0783 6.60694 12.7152C6.74838 12.3522 6.96936 12.0271 7.25416 11.763Z" fill="#E0E0E0"/>
<path d="M7.15472 11.8604C6.9176 12.1054 6.73147 12.3956 6.60694 12.7152C6.46551 13.0783 6.40711 13.4703 6.43583 13.8636C6.46455 14.2568 6.57971 14.6416 6.77315 14.9906C6.96659 15.3396 7.23354 15.6442 7.55507 15.8828C10.5177 18.0107 14.0439 19.188 17.6445 19.2516C18.0461 19.2597 18.4417 19.1782 18.8023 19.0132C19.1628 18.8482 19.4793 18.6038 19.7284 18.2978C19.9775 17.9919 20.1529 17.6322 20.2419 17.2451C20.2814 17.0731 20.3034 16.8977 20.3079 16.7213C20.0853 16.9513 19.821 17.1383 19.5274 17.2727C19.1668 17.4377 18.7713 17.5191 18.3697 17.511C14.769 17.4475 11.2429 16.2702 8.28021 14.1423C7.95869 13.9036 7.69174 13.599 7.4983 13.25C7.30486 12.901 7.1897 12.5163 7.16098 12.123C7.15457 12.0353 7.1525 11.9477 7.15472 11.8604Z" fill="#D3D3D3"/>
<path d="M19.4595 24.3341L19.545 24.6534C19.6414 25.2581 19.5187 25.8799 19.1979 26.4127C18.8772 26.9455 18.3782 27.3564 17.7861 27.5752C16.0575 28.222 14.5102 29.2662 13.2776 30.6176C12.8959 31.0218 12.5383 31.4467 12.2065 31.8903C11.8489 32.3766 11.3357 32.7344 10.7494 32.9064C10.163 33.0784 9.53734 33.0546 8.97268 32.8389L8.64125 32.7087C8.26612 32.5629 7.93056 32.3368 7.65914 32.0468C7.38772 31.7569 7.18732 31.4104 7.07263 31.033C6.95795 30.6555 6.93188 30.2565 6.99633 29.8652C7.06078 29.474 7.21412 29.1003 7.44512 28.7717C9.50852 25.8202 12.4542 23.5526 15.8739 22.2831C16.2514 22.1497 16.6532 22.0983 17.0507 22.1328C17.4482 22.1672 17.8317 22.2865 18.174 22.4823C18.5162 22.678 18.8088 22.9454 19.031 23.2655C19.2532 23.5855 19.3995 23.9504 19.4595 24.3341Z" fill="#E0E0E0"/>
<path d="M18.3885 23.4522L18.303 23.1329C18.2631 22.8777 18.185 22.6308 18.0718 22.3999C18.1185 22.4231 18.1646 22.4477 18.21 22.4737C18.5523 22.6694 18.8449 22.9368 19.0671 23.2569C19.2892 23.5769 19.4355 23.9418 19.4955 24.3255L19.5811 24.6448C19.6774 25.2495 19.5547 25.8713 19.234 26.4041C18.9132 26.9369 18.4142 27.3478 17.8221 27.5666C16.0936 28.2134 14.5462 29.2576 13.3136 30.609C12.932 31.0132 12.5743 31.4381 12.2425 31.8817C11.8849 32.368 11.3718 32.7258 10.7854 32.8978C10.199 33.0698 9.57338 33.046 9.00872 32.8303L8.67729 32.7001C8.30216 32.5543 7.9666 32.3282 7.69518 32.0382C7.51876 31.8497 7.37235 31.6374 7.25997 31.4082C7.3331 31.4446 7.4081 31.4777 7.48474 31.5075L7.81617 31.6377C8.38084 31.8534 9.00649 31.8772 9.59285 31.7052C10.1792 31.5332 10.6923 31.1753 11.0499 30.6891C11.3818 30.2455 11.7394 29.8206 12.1211 29.4164C13.3537 28.065 14.901 27.0208 16.6296 26.374C17.2217 26.1552 17.7207 25.7443 18.0414 25.2115C18.3622 24.6787 18.4849 24.0569 18.3885 23.4522Z" fill="#D3D3D3"/>
</svg>
