<svg width="40" height="40" viewBox="0 0 40 40" fill="none" xmlns="http://www.w3.org/2000/svg">
<rect width="40" height="40" rx="20" fill="#FEFEFE"/>
<path d="M31.6575 18.229C31.0464 17.9835 30.6204 18.0159 30.3288 18.1503C30.3288 18.1364 30.3288 18.1225 30.3288 18.1039C31.4214 6.42871 20.3612 6.42871 20.3612 6.42871C20.3612 6.42871 9.30561 6.42871 10.3889 18.1039C10.3889 18.1178 10.3889 18.1317 10.3889 18.1503C10.0973 18.0159 9.67598 17.9835 9.06024 18.229C7.17135 18.9885 7.35191 23.8559 10.7176 23.7586C10.8843 23.754 11.0417 23.7308 11.1991 23.703C12.7362 30.9045 15.7825 33.9287 20.3565 33.9287C24.9306 33.9287 27.9769 30.8999 29.5139 23.703C29.6714 23.7262 29.8288 23.754 29.9954 23.7586C33.3612 23.8605 33.5417 18.9885 31.6528 18.229H31.6575Z" fill="#E0E0E0"/>
<path d="M10.3982 18.3494C10.6019 21.3597 11.551 21.3411 11.4167 21.1513C11.301 20.9845 11.8704 19.4099 11.8704 19.4099C14.0139 19.359 16.5001 16.0014 16.5001 16.0014C16.5001 17.5714 14.0417 19.3497 14.0417 19.3497C23.5556 18.9329 24.2593 14.6676 24.2593 14.6676C24.2593 14.6676 24.2501 17.9882 28.4815 18.8079C28.4815 18.8079 29.4445 19.5905 29.7547 20.9151C29.7686 20.9799 29.8565 20.9845 29.8751 20.9243C29.9491 20.6511 30.0834 19.9888 30.2964 18.3864C30.2964 18.3725 30.338 18.1271 30.338 18.1132C31.4214 6.42871 20.3426 6.42871 20.3426 6.42871C20.3426 6.42871 9.28709 6.42871 10.3658 18.1039" fill="#E0E0E0"/>
<path d="M31.6575 18.2336C31.0464 17.9882 30.6204 18.0206 30.3288 18.1549C30.3288 18.141 30.3288 18.1271 30.3288 18.1086C30.3288 18.1225 30.2871 18.3679 30.2871 18.3818C30.0741 19.9842 29.9399 20.6465 29.8658 20.9197C29.8473 20.9845 29.7593 20.9753 29.7454 20.9104C29.4352 19.5859 28.4723 18.8032 28.4723 18.8032C27.1991 18.5578 26.3149 18.0808 25.6945 17.5389C26.0232 22.5962 25.4723 28.3296 22.7964 33.5906C26.0278 32.6227 28.2639 29.5291 29.5093 23.703C29.6667 23.7262 29.8241 23.754 29.9908 23.7586C33.3565 23.8605 33.5371 18.9885 31.6482 18.229L31.6575 18.2336Z" fill="#E0E0E0"/>
<path d="M23.7825 7.05392C24.5556 9.65202 25.4306 13.3709 25.7038 17.5528C26.3241 18.0947 27.2084 18.5671 28.4815 18.8171C28.4815 18.8171 29.4445 19.5998 29.7547 20.9243C29.7686 20.9892 29.8565 20.9938 29.8751 20.9336C29.9491 20.6604 30.0834 19.9981 30.2964 18.3957C30.2964 18.3818 30.338 18.1364 30.338 18.1225C31.0139 10.8191 26.9352 8.08205 23.7825 7.05855V7.05392Z" fill="#E0E0E0"/>
<path d="M22.1436 15.7145H26.4293L22.1436 19.2859H26.4293" stroke="#00154B" stroke-width="1.6" stroke-linecap="round" stroke-linejoin="round"/>
<path d="M26.4287 10.0001H30.0001L26.4287 12.8573H30.0001" stroke="#00154B" stroke-width="1.6" stroke-linecap="round" stroke-linejoin="round"/>
</svg>
