<svg width="40" height="40" viewBox="0 0 40 40" fill="none" xmlns="http://www.w3.org/2000/svg">
<rect width="40" height="40" rx="20" fill="#FEFEFE"/>
<path d="M19.5653 12.4794C10.6302 12.4794 7.60547 18.5309 7.60547 18.5309C7.60547 18.5309 10.6302 24.5824 19.5653 24.5824C29.1487 24.5824 31.5098 18.5309 31.5098 18.5309C31.5098 18.5309 29.1487 12.4794 19.5653 12.4794Z" fill="#FFF0E5"/>
<path d="M31.6416 18.1289C31.6416 18.1289 29.2726 12.6412 19.6571 12.6412C10.6764 12.6553 7.6416 18.1289 7.6416 18.1289C7.6416 18.1289 19.1771 9.98865 31.6416 18.1289Z" fill="#FFD3B3"/>
<path d="M19.5665 23.1275C22.4983 23.1275 24.8751 20.7439 24.8751 17.8035C24.8751 14.863 22.4983 12.4794 19.5665 12.4794C16.6346 12.4794 14.2578 14.863 14.2578 17.8035C14.2578 20.7439 16.6346 23.1275 19.5665 23.1275Z" fill="#525252"/>
<path d="M19.6416 19.8257C20.7462 19.8257 21.6416 18.9323 21.6416 17.8302C21.6416 16.7281 20.7462 15.8347 19.6416 15.8347C18.537 15.8347 17.6416 16.7281 17.6416 17.8302C17.6416 18.9323 18.537 19.8257 19.6416 19.8257Z" fill="#E0E0E0"/>
<path d="M7.6416 17.8302C7.6416 17.8302 10.0106 27.8077 19.6261 27.8077C28.6068 27.7822 31.6416 17.8302 31.6416 17.8302C31.6416 17.8302 20.1061 32.6306 7.6416 17.8302Z" fill="#D3D3D3"/>
<path d="M19.3916 26.6097C13.3916 26.6097 9.22493 21.2883 7.8916 18.6277C8.6416 21.7041 11.9916 27.8569 19.3916 27.8569C26.7916 27.8569 30.6416 21.3715 31.6416 18.1288C30.0583 20.9557 25.3916 26.6097 19.3916 26.6097Z" fill="#C6C6C6"/>
<path fill-rule="evenodd" clip-rule="evenodd" d="M9.74674 15.2456C11.6458 13.6751 14.7592 12.1426 19.6426 12.1426C24.2553 12.1426 27.3567 13.5152 29.313 14.913C30.2884 15.6098 30.9739 16.3091 31.4183 16.8389C31.6405 17.1039 31.8026 17.3267 31.9106 17.486C31.9647 17.5657 32.0053 17.6295 32.0331 17.6749C32.0471 17.6975 32.0578 17.7156 32.0655 17.7287L32.0747 17.7447L32.0776 17.7498L32.0787 17.7516L32.0791 17.7524C32.0793 17.7527 32.0794 17.753 31.6426 17.9957L32.0794 17.753C32.2138 17.9937 32.1271 18.2975 31.8858 18.4315C31.645 18.5654 31.3411 18.4794 31.2064 18.2395C31.2063 18.2394 31.2062 18.2393 31.2061 18.2391C31.2061 18.239 31.2061 18.239 31.206 18.2389L31.2057 18.2384L31.202 18.2319C31.1978 18.2247 31.1907 18.2128 31.1805 18.1962C31.1602 18.1632 31.1278 18.112 31.0825 18.0452C30.9919 17.9117 30.8501 17.7162 30.6514 17.4792C30.2538 17.0052 29.629 16.3659 28.7308 15.7242C26.9401 14.4448 24.0415 13.1403 19.6426 13.1403C14.9879 13.1403 12.1013 14.5944 10.3849 16.0138C9.52276 16.7267 8.94798 17.4375 8.59081 17.9659C8.41223 18.23 8.28835 18.4481 8.21043 18.5973C8.17146 18.672 8.14416 18.7291 8.12738 18.7657C8.11992 18.782 8.11474 18.7939 8.11166 18.8011C8.04113 18.9913 7.85772 19.1268 7.64258 19.1268C7.36644 19.1268 7.14258 18.9035 7.14258 18.628C7.14481 18.5809 7.15492 18.5178 7.15893 18.5014C7.16119 18.4931 7.16512 18.4798 7.16675 18.4747C7.16971 18.4655 7.17235 18.4582 7.17338 18.4554C7.17587 18.4486 7.17814 18.4428 7.17949 18.4394C7.18251 18.4318 7.18588 18.4237 7.1893 18.4156C7.19634 18.3989 7.2058 18.3774 7.21773 18.3513C7.24168 18.299 7.27658 18.2264 7.32356 18.1364C7.41754 17.9564 7.56051 17.7056 7.76177 17.4079C8.16428 16.8125 8.80111 16.0276 9.74674 15.2456Z" fill="#262626"/>
</svg>
