<svg width="40" height="40" viewBox="0 0 40 40" fill="none" xmlns="http://www.w3.org/2000/svg">
<rect width="40" height="40" rx="20" fill="#FEFEFE"/>
<g clip-path="url(#clip0_2299_2441)">
<path d="M22.8572 10.0002H11.4286C11.0342 10.0002 10.7144 10.32 10.7144 10.7145V30.7145C10.7144 31.109 11.0342 31.4288 11.4286 31.4288H22.8572C23.2517 31.4288 23.5715 31.109 23.5715 30.7145V10.7145C23.5715 10.32 23.2517 10.0002 22.8572 10.0002Z" fill="#E0E0E0"/>
<path d="M17.8574 11.4288H21.1431C21.6954 11.4288 22.1431 11.8765 22.1431 12.4288V26.4288H17.8574V11.4288Z" fill="#C6C6C6"/>
<path d="M21.4288 25.7146H12.8574C12.4629 25.7146 12.1431 26.0372 12.1431 26.4352V29.2797C12.1431 29.6777 12.4629 30.0003 12.8574 30.0003H21.4288C21.8233 30.0003 22.1431 29.6777 22.1431 29.2797V26.4352C22.1431 26.0372 21.8233 25.7146 21.4288 25.7146Z" fill="#EF3340"/>
<path d="M13.7289 7.85745H20.5503C20.6653 7.85651 20.7794 7.87835 20.886 7.92172C20.9925 7.96509 21.0894 8.02913 21.1711 8.11015C21.2528 8.19116 21.3176 8.28755 21.3618 8.39374C21.4061 8.49994 21.4289 8.61384 21.4289 8.72888V10.0003H12.8574V8.72888C12.8574 8.49776 12.9492 8.27611 13.1127 8.11269C13.2761 7.94926 13.4977 7.85745 13.7289 7.85745Z" fill="#C6C6C6"/>
<path d="M17.8574 25.7146H21.1431C21.6954 25.7146 22.1431 26.1623 22.1431 26.7146V30.0003H17.8574V25.7146Z" fill="#CB2B36"/>
<path d="M25.4263 16.2146L25.5464 16.2214C25.8243 16.25 26.0854 16.3729 26.2847 16.572C26.4841 16.7715 26.6077 17.0331 26.6362 17.3113L26.6431 17.4314V18.2859C26.64 18.4735 26.5944 18.6581 26.5103 18.8259L26.2876 19.2693L26.729 19.4949C27.3475 19.8124 27.8662 20.2944 28.229 20.8875C28.5465 21.4066 28.7345 21.9938 28.7769 22.5984L28.7856 22.8582V30.7146C28.7856 31.1503 28.6123 31.5686 28.3042 31.8767C27.9962 32.1845 27.5785 32.3571 27.1431 32.3572H21.4282C20.9928 32.3571 20.5751 32.1845 20.2671 31.8767C19.959 31.5686 19.7856 31.1503 19.7856 30.7146V22.8582C19.7866 22.1628 19.9794 21.4807 20.3423 20.8875C20.7051 20.2944 21.2238 19.8124 21.8423 19.4949L22.2837 19.2693L22.061 18.8259C21.976 18.6564 21.9304 18.4696 21.9282 18.28V17.4314C21.9296 17.1092 22.0588 16.7998 22.2866 16.572C22.4859 16.3729 22.747 16.25 23.0249 16.2214L23.145 16.2146H25.4263Z" fill="#FEFEFE" stroke="#FEFEFE"/>
<path d="M23.5715 20.0004H25.0001C25.7578 20.0004 26.4846 20.3014 27.0204 20.8372C27.5562 21.373 27.8572 22.0997 27.8572 22.8575V30.7147C27.8572 30.9041 27.782 31.0858 27.648 31.2197C27.514 31.3537 27.3324 31.4289 27.1429 31.4289H21.4286C21.2392 31.4289 21.0575 31.3537 20.9236 31.2197C20.7896 31.0858 20.7144 30.9041 20.7144 30.7147V22.8575C20.7144 22.0997 21.0154 21.373 21.5512 20.8372C22.087 20.3014 22.8137 20.0004 23.5715 20.0004Z" fill="#66501C"/>
<path d="M25.0001 20.0004H23.5715C23.4518 20.0052 23.3326 20.0171 23.2144 20.0361C23.9025 20.1228 24.5357 20.4569 24.9957 20.976C25.4557 21.4951 25.7111 22.1639 25.7144 22.8575V30.7147C25.7144 30.9041 25.6391 31.0858 25.5051 31.2197C25.3712 31.3537 25.1895 31.4289 25.0001 31.4289H27.1429C27.3324 31.4289 27.514 31.3537 27.648 31.2197C27.782 31.0858 27.8572 30.9041 27.8572 30.7147V22.8575C27.8572 22.0997 27.5562 21.373 27.0204 20.8372C26.4846 20.3014 25.7578 20.0004 25.0001 20.0004Z" fill="#33280E"/>
<path d="M25.4284 17.1432H23.1426C22.9849 17.1432 22.8569 17.2711 22.8569 17.4289V18.286C22.8569 18.4438 22.9849 18.5718 23.1426 18.5718H25.4284C25.5862 18.5718 25.7141 18.4438 25.7141 18.286V17.4289C25.7141 17.2711 25.5862 17.1432 25.4284 17.1432Z" fill="#D3D3D3"/>
<path d="M27.8572 23.5718H20.7144V30.0003H27.8572V23.5718Z" fill="#00154B"/>
<path d="M24.2854 27.1432C25.4689 27.1432 26.4283 26.6635 26.4283 26.0718C26.4283 25.4801 25.4689 25.0004 24.2854 25.0004C23.102 25.0004 22.1426 25.4801 22.1426 26.0718C22.1426 26.6635 23.102 27.1432 24.2854 27.1432Z" fill="#FEFEFE"/>
</g>
<defs>
<clipPath id="clip0_2299_2441">
<rect width="18.5714" height="25" fill="white" transform="translate(10.7144 7.85742)"/>
</clipPath>
</defs>
</svg>
