<svg width="40" height="40" viewBox="0 0 40 40" fill="none" xmlns="http://www.w3.org/2000/svg">
<rect width="40" height="40" rx="20" fill="#FEFEFE"/>
<g clip-path="url(#clip0_2299_2443)">
<path d="M19.2861 31.8068V7.90682C19.2861 7.54254 19.0147 7.23539 18.6504 7.19968C17.6861 7.08539 15.8075 7.05682 14.2861 8.19968C13.0432 9.12825 12.4932 10.3854 12.279 11.0782C12.1861 11.3711 11.9147 11.564 11.6147 11.5711C10.6932 11.5854 8.80753 11.8497 7.86468 13.7354C6.80039 15.8568 7.71468 17.6854 8.25039 18.4854C8.42182 18.7425 8.40753 19.0711 8.21468 19.314C7.79325 19.8425 7.15039 20.8782 7.15039 22.3068C7.15039 24.014 8.37896 25.1854 8.97182 25.6497C9.15753 25.7925 9.25753 26.014 9.24325 26.2425C9.19325 26.9068 9.2861 28.364 10.7218 29.6283C11.7075 30.4854 13.0432 30.414 13.779 30.2854C14.0861 30.2283 14.4004 30.3782 14.5361 30.6568C14.8147 31.2211 15.4004 32.0997 16.429 32.4854C17.329 32.8211 18.229 32.664 18.7718 32.4997C19.079 32.4068 19.2861 32.1283 19.2861 31.814V31.8068Z" fill="#7A58C8"/>
<path d="M20.7148 8.01397V31.914C20.7148 32.2783 20.9863 32.5854 21.3506 32.6211C22.3148 32.7354 24.1934 32.764 25.7148 31.6211C26.9577 30.6925 27.5077 29.4354 27.722 28.7425C27.8148 28.4497 28.0863 28.2568 28.3863 28.2497C29.3077 28.2354 31.1934 27.9711 32.1363 26.0854C33.2006 23.964 32.2863 22.1354 31.7506 21.3354C31.5791 21.0783 31.5934 20.7497 31.7863 20.5068C32.2077 19.9782 32.8506 18.9425 32.8506 17.514C32.8506 15.8068 31.622 14.6354 31.0291 14.1711C30.8434 14.0283 30.7434 13.8068 30.7577 13.5783C30.8077 12.914 30.7148 11.4568 29.2791 10.1925C28.2934 9.33539 26.9577 9.40682 26.222 9.53539C25.9148 9.59254 25.6006 9.44254 25.4648 9.16396C25.1863 8.59968 24.6006 7.72111 23.572 7.33539C22.672 6.99968 21.772 7.15682 21.2291 7.32111C20.922 7.41396 20.7148 7.69254 20.7148 8.00682V8.01397Z" fill="#7A58C8"/>
<path d="M25.4995 25.8711C25.4995 25.5925 25.2781 25.3711 24.9995 25.3711C24.7209 25.3711 24.4995 25.5925 24.4995 25.8711C24.4995 27.0711 25.1209 29.1711 27.2852 29.7711C27.4709 29.4211 27.5995 29.0997 27.6852 28.8425C25.5852 28.3568 25.4995 26.1497 25.4924 25.8711H25.4995Z" fill="#4F3981"/>
<path d="M31.6781 20.7283C28.4495 22.7711 26.1924 21.3568 25.5424 20.8426C26.0852 19.4497 25.4924 17.8997 25.4638 17.8283C25.3638 17.5711 25.071 17.4497 24.8138 17.5497C24.5567 17.6497 24.4352 17.9426 24.5352 18.1997C24.5352 18.214 25.0924 19.6568 24.5281 20.6997C24.221 21.264 23.6281 21.6354 22.7638 21.8068C22.4924 21.864 22.321 22.1211 22.371 22.3926C22.421 22.6283 22.6281 22.7926 22.8638 22.7926C22.8995 22.7926 22.9281 22.7926 22.9638 22.7854C23.871 22.6068 24.5638 22.2354 25.0424 21.6926C25.6138 22.1068 26.7852 22.7926 28.4138 22.7926C29.4424 22.7926 30.6567 22.514 31.9924 21.714C31.9138 21.5711 31.8352 21.4497 31.7638 21.3426C31.6424 21.1568 31.6138 20.9283 31.6852 20.7283H31.6781Z" fill="#4F3981"/>
<path d="M23.814 10.9854C23.4711 12.1711 23.7926 13.1354 23.814 13.1782C23.8854 13.3854 24.0783 13.514 24.2854 13.514C24.3354 13.514 24.3926 13.5068 24.4426 13.4854C24.6997 13.3997 24.8426 13.114 24.7569 12.8568C24.7283 12.764 24.1854 10.9925 25.9997 9.54967C25.7711 9.5211 25.5711 9.38539 25.464 9.1711C25.414 9.0711 25.3497 8.95682 25.2783 8.84253C24.414 9.56396 23.9997 10.3425 23.814 10.9854Z" fill="#4F3981"/>
<path d="M11.8283 14.1282C10.9426 15.2568 10.9283 16.5282 10.9283 16.5925C10.9283 16.8711 11.1497 17.0925 11.4283 17.0925C11.6997 17.0925 11.9283 16.8711 11.9283 16.5925C11.9283 16.5782 11.9497 15.2497 12.9926 14.3425C13.8783 13.564 15.2568 13.2854 17.0783 13.514C17.3497 13.5497 17.5997 13.3568 17.6354 13.0782C17.6711 12.7997 17.4783 12.5568 17.1997 12.5211C15.1997 12.2711 13.6426 12.5854 12.5354 13.4354C12.4926 13.3782 12.4354 13.3211 12.364 13.2854C11.4568 12.8282 11.0568 12.2211 10.914 11.6211C10.614 11.664 10.2854 11.7425 9.94971 11.864C10.1497 12.6997 10.6926 13.5282 11.8283 14.1211V14.1282Z" fill="#4F3981"/>
<path d="M11.1926 22.3783C11.7426 22.3783 12.3497 22.2854 13.0212 22.064C13.2855 21.9783 13.4212 21.6926 13.3355 21.4283C13.2497 21.164 12.9712 21.0211 12.6997 21.114C10.1283 21.9711 8.72118 20.5283 8.07118 19.4926C7.89261 19.7354 7.69261 20.0568 7.52832 20.4497C7.67832 20.6497 7.84975 20.8568 8.04261 21.0497C8.70689 21.714 9.73546 22.3783 11.1926 22.3783Z" fill="#4F3981"/>
<path d="M12.9926 29.0354C13.3711 28.4497 14.0569 28.0426 15.0211 27.8283C15.414 28.4354 16.064 28.9568 17.0997 29.214C17.1426 29.2211 17.1783 29.2283 17.2211 29.2283C17.4426 29.2283 17.6497 29.0783 17.7069 28.8497C17.7711 28.5783 17.614 28.314 17.3426 28.2426C15.0569 27.6711 15.5069 25.5211 15.564 25.2783C15.6283 25.014 15.464 24.7426 15.1997 24.6711C14.9283 24.5997 14.6569 24.764 14.5926 25.0354C14.4711 25.5211 14.4283 26.214 14.614 26.9068C13.4783 27.1997 12.6354 27.7283 12.1354 28.514C11.7711 29.0926 11.6569 29.6926 11.6426 30.1568C11.9783 30.2711 12.3211 30.3354 12.6426 30.3497C12.6354 30.0068 12.6854 29.5068 12.9854 29.0426L12.9926 29.0354Z" fill="#4F3981"/>
</g>
<defs>
<clipPath id="clip0_2299_2443">
<rect width="25.7143" height="25.5357" fill="white" transform="translate(7.14307 7.14258)"/>
</clipPath>
</defs>
</svg>
