<svg width="40" height="40" viewBox="0 0 40 40" fill="none" xmlns="http://www.w3.org/2000/svg">
<rect width="40" height="40" rx="20" fill="#FEFEFE"/>
<g clip-path="url(#clip0_2299_2455)">
<path d="M8.93478 32.5599L7.02764 32.2528C6.64907 32.1885 6.38478 31.8385 6.43478 31.4599C6.60621 30.1528 7.14759 28.1993 7.49874 27.1458C7.85589 26.0744 9.28446 25.7172 9.28446 25.7172C10.3559 25.3601 11.0702 25.3601 12.1416 25.0029C13.9273 24.3744 17.5062 22.9885 19.5991 19.8385C20.9919 17.7456 21.2848 15.7956 21.2705 14.4599C21.2562 13.5885 21.0491 12.7385 20.7062 11.9385L19.1776 8.37418C19.0205 8.00275 19.1991 7.57418 19.5705 7.42418L21.9205 6.48132C22.2348 6.35275 22.5919 6.46704 22.7848 6.74561L24.6776 9.58846C25.0419 10.1385 25.5991 10.5385 26.2491 10.6742C27.3205 10.9028 29.1776 11.5528 31.0348 13.4099C33.5634 15.9385 35.4991 22.8313 31.0348 28.4099C23.6919 37.5885 13.7205 32.0885 11.0205 30.3242C10.6705 30.0956 10.2134 30.2813 10.1134 30.6813L9.77764 32.0385C9.68478 32.4099 9.3205 32.6385 8.94907 32.567L8.93478 32.5599Z" fill="#E0E0E0"/>
<path d="M20.1789 22.1429C19.7932 22.1429 19.4432 22.3072 19.1646 22.5715C16.9504 24.7572 14.2004 25.9858 12.5504 26.5644C12.3432 26.6358 12.1504 26.7001 11.9575 26.7501C11.5646 26.8572 11.2432 27.1287 11.0861 27.5072C10.8218 28.1287 11.0718 28.8429 11.6575 29.1644C13.7575 30.3215 17.6932 32.1358 20.9575 32.1358C24.4432 32.1358 27.4575 30.5787 29.9146 27.5072C31.0932 26.0358 31.7504 24.4929 32.0646 22.9858C32.1575 22.5429 31.8218 22.1287 31.3718 22.1287C28.9932 22.1287 22.2361 22.1287 20.1861 22.1287L20.1789 22.1429Z" fill="#FF6B00"/>
<path d="M31.3644 22.143H28.0144C27.6644 23.4644 27.0287 24.8002 26.0001 26.0859C23.543 29.1573 20.5287 30.7144 17.043 30.7144C16.0001 30.7144 14.8858 30.5287 13.793 30.2359C15.9073 31.2002 18.6073 32.1359 20.9573 32.1359C24.443 32.1359 27.4573 30.5787 29.9144 27.5073C31.093 26.0359 31.7501 24.493 32.0573 22.993C32.1501 22.5502 31.8073 22.1359 31.3573 22.1359L31.3644 22.143Z" fill="#D95B00"/>
<g clip-path="url(#clip1_2299_2455)">
<path d="M19.0717 28.0145C19.0288 28.0145 18.9931 28.0145 18.9502 28.0145C16.3217 27.7931 13.5145 25.8931 13.5717 22.2431C13.5788 20.8502 14.1359 19.5216 15.1431 18.5288C15.3788 18.3145 15.5145 18.1002 15.5788 17.8574C15.6502 17.6145 15.6502 17.3645 15.5788 17.1216C15.4788 16.7716 15.5002 16.4074 15.6431 16.0788C15.7645 15.7788 15.9931 15.5216 16.2717 15.3502C16.5217 15.1931 16.8074 15.1145 17.1002 15.1145C17.3145 15.1145 17.5217 15.1574 17.7217 15.2431C17.7145 15.2216 17.7074 15.2074 17.6931 15.1859C17.5645 14.9502 17.4931 14.6931 17.4931 14.4216C17.4931 14.0931 17.5931 13.7788 17.7859 13.5074C17.8288 13.4502 17.8717 13.3931 17.9217 13.3431C18.1431 13.1145 18.4217 12.9645 18.7217 12.9002C18.8217 12.8788 18.9502 12.8645 19.0502 12.8645C19.2288 12.8645 19.4002 12.8931 19.5645 12.9502C20.2788 13.1859 22.4931 14.3145 23.0002 16.5931C23.0502 16.8859 23.0931 17.1716 23.1217 17.4574C23.3359 17.5145 23.5359 17.6145 23.7074 17.7502C23.9717 17.9574 24.1717 18.2645 24.2574 18.6074C24.3717 19.0788 24.5145 19.5216 24.6931 19.9502C25.0002 20.7074 25.1431 21.4859 25.1288 22.2788C25.1145 23.0716 24.9502 23.8431 24.6288 24.5716C24.1359 25.6002 23.4002 26.4359 22.4859 27.0359C21.5717 27.6359 20.5145 27.9716 19.4217 28.0216C19.4002 28.0216 19.3788 28.0216 19.3645 28.0216H19.0574L19.0717 28.0145Z" fill="#FEFEFE"/>
<path d="M23.3932 20.5002C23.1789 20.0002 23.0146 19.4788 22.8861 18.943C22.8789 18.9073 22.8575 18.8788 22.8289 18.8573C22.8004 18.8359 22.7718 18.8216 22.7361 18.8216C22.1361 18.8216 21.9504 20.1216 21.8932 20.8288C21.7432 20.2859 21.6932 19.7216 21.7504 19.1645C21.7932 18.4073 21.7504 17.643 21.6146 16.893C21.2218 15.1145 19.2289 14.3216 19.1146 14.293C19.0861 14.2859 19.0575 14.2788 19.0289 14.293C19.0004 14.293 18.9718 14.3145 18.9504 14.3359C18.9361 14.3573 18.9218 14.3859 18.9218 14.4216C18.9218 14.4573 18.9289 14.4788 18.9504 14.5073C19.8218 16.2359 18.9504 18.0002 18.4361 18.7716C18.3146 17.9073 17.8646 17.1288 17.1861 16.5788C17.1575 16.5645 17.1289 16.5502 17.1004 16.5502C17.0718 16.5502 17.0361 16.5573 17.0146 16.5788C16.9861 16.593 16.9646 16.6145 16.9575 16.643C16.9432 16.6716 16.9432 16.7002 16.9575 16.7288C17.1004 17.2288 17.1004 17.7573 16.9575 18.2573C16.8146 18.7573 16.5361 19.2073 16.1504 19.5573C15.4218 20.2788 15.0075 21.2502 15.0075 22.2716C14.9646 24.993 17.0218 26.4216 19.0789 26.593H19.3861C20.2218 26.5573 21.0289 26.3002 21.7289 25.8359C22.4289 25.3788 22.9861 24.743 23.3504 23.993C23.5932 23.443 23.7218 22.8502 23.7289 22.2573C23.7361 21.6573 23.6289 21.0645 23.4075 20.5073L23.3932 20.5002Z" fill="#D95B00"/>
</g>
</g>
<defs>
<clipPath id="clip0_2299_2455">
<rect width="27.2714" height="27.1429" fill="white" transform="translate(6.42871 6.42871)"/>
</clipPath>
<clipPath id="clip1_2299_2455">
<rect width="11.5786" height="15.1571" fill="white" transform="translate(13.5718 12.8573)"/>
</clipPath>
</defs>
</svg>
