<svg width="40" height="40" viewBox="0 0 40 40" fill="none" xmlns="http://www.w3.org/2000/svg">
<rect width="40" height="40" rx="20" fill="#FEFEFE"/>
<path d="M7.14258 22.6999C7.14258 22.3133 7.45598 21.9999 7.84258 21.9999H31.4426C31.8292 21.9999 32.1426 22.3133 32.1426 22.6999C32.1426 24.2463 30.889 25.4999 29.3426 25.4999H9.94258C8.39618 25.4999 7.14258 24.2463 7.14258 22.6999Z" fill="#8C6E27"/>
<path d="M25.1426 25.4999H29.4426C30.989 25.4999 32.2426 24.2463 32.2426 22.6999C32.2426 22.3133 31.9292 21.9999 31.5426 21.9999H27.2426C27.6292 21.9999 27.9426 22.3133 27.9426 22.6999C27.9426 24.2463 26.689 25.4999 25.1426 25.4999Z" fill="#8C6E27"/>
<path d="M13.5625 25.5001H25.7225L27.3846 33.2915C27.5174 33.9138 27.0429 34.5001 26.4066 34.5001H12.8783C12.242 34.5001 11.7676 33.9138 11.9003 33.2915L13.5625 25.5001Z" fill="#66501C"/>
<path d="M23.9067 34.5001H26.8266C27.4629 34.5001 27.9374 33.9138 27.8046 33.2915L26.1425 25.5001H23.2225L24.8846 33.2915C25.0174 33.9138 24.5429 34.5001 23.9067 34.5001Z" fill="#66501C"/>
<path d="M26.2144 25.5001H13.5487L13.3447 26.9287H26.3564L26.2144 25.5001Z" fill="#66501C"/>
<path d="M17.143 13.5714H14.2859C12.7079 13.5714 11.4287 14.8506 11.4287 16.4286V19.2857C11.4287 20.8637 12.7079 22.1428 14.2859 22.1428H17.143C18.721 22.1428 20.0001 20.8637 20.0001 19.2857V16.4286C20.0001 14.8506 18.721 13.5714 17.143 13.5714Z" fill="#831C23"/>
<path d="M25.7143 13.5714H22.8571C21.2792 13.5714 20 14.8506 20 16.4286V19.2857C20 20.8637 21.2792 22.1428 22.8571 22.1428H25.7143C27.2922 22.1428 28.5714 20.8637 28.5714 19.2857V16.4286C28.5714 14.8506 27.2922 13.5714 25.7143 13.5714Z" fill="#831C23"/>
<path d="M18.5713 5.5H21.4277C23.5185 5.5 25.2139 7.19534 25.2139 9.28613V12.1426C25.2139 14.2334 23.5185 15.9287 21.4277 15.9287H18.5713C16.4805 15.9287 14.7852 14.2334 14.7852 12.1426V9.28613C14.7852 7.19534 16.4805 5.5 18.5713 5.5Z" fill="#FEFEFE" stroke="#FEFEFE"/>
<path d="M21.4282 6.42859H18.571C16.9924 6.42859 15.7139 7.70716 15.7139 9.28573H24.2853C24.2853 7.70716 23.0067 6.42859 21.4282 6.42859Z" fill="#FFEEC8"/>
<path d="M15.7139 9.28577H24.2853V12.1429C24.2853 13.7215 23.0067 15.0001 21.4282 15.0001H18.571C16.9924 15.0001 15.7139 13.7215 15.7139 12.1429V9.28577Z" fill="#EF3340"/>
<path d="M21.4284 9.28577V12.1429C21.4284 13.7215 20.1499 15.0001 18.5713 15.0001H21.4284C23.007 15.0001 24.2856 13.7215 24.2856 12.1429V9.28577H21.4284Z" fill="#CB2B36"/>
<path d="M21.4284 6.42859H18.5713C20.1499 6.42859 21.4284 7.70716 21.4284 9.28573H24.2856C24.2856 7.70716 23.007 6.42859 21.4284 6.42859Z" fill="#FFE3A3"/>
</svg>
