<svg width="40" height="40" viewBox="0 0 40 40" fill="none" xmlns="http://www.w3.org/2000/svg">
<rect width="40" height="40" rx="20" fill="#FEFEFE"/>
<g clip-path="url(#clip0_2299_2454)">
<path d="M8.93478 32.5599L7.02764 32.2528C6.64907 32.1885 6.38478 31.8385 6.43478 31.4599C6.60621 30.1528 7.14759 28.1993 7.49874 27.1458C7.85589 26.0744 9.28446 25.7172 9.28446 25.7172C10.3559 25.3601 11.0702 25.3601 12.1416 25.0029C13.9273 24.3744 17.5062 22.9885 19.5991 19.8385C20.9919 17.7456 21.2848 15.7956 21.2705 14.4599C21.2562 13.5885 21.0491 12.7385 20.7062 11.9385L19.1776 8.37418C19.0205 8.00275 19.1991 7.57418 19.5705 7.42418L21.9205 6.48132C22.2348 6.35275 22.5919 6.46704 22.7848 6.74561L24.6776 9.58846C25.0419 10.1385 25.5991 10.5385 26.2491 10.6742C27.3205 10.9028 29.1776 11.5528 31.0348 13.4099C33.5634 15.9385 35.4991 22.8313 31.0348 28.4099C23.6919 37.5885 13.7205 32.0885 11.0205 30.3242C10.6705 30.0956 10.2134 30.2813 10.1134 30.6813L9.77764 32.0385C9.68478 32.4099 9.3205 32.6385 8.94907 32.567L8.93478 32.5599Z" fill="#E0E0E0"/>
<path d="M20.1784 22.1429C19.7927 22.1429 19.4427 22.3072 19.1642 22.5715C16.9499 24.7572 14.1999 25.9858 12.5499 26.5644C12.3427 26.6358 12.1499 26.7001 11.957 26.7501C11.5642 26.8572 11.2427 27.1287 11.0856 27.5072C10.8213 28.1287 11.0713 28.8429 11.657 29.1644C13.757 30.3215 17.6927 32.1358 20.957 32.1358C24.4427 32.1358 27.457 30.5787 29.9142 27.5072C31.0927 26.0358 31.7499 24.4929 32.0642 22.9858C32.157 22.5429 31.8213 22.1287 31.3713 22.1287C28.9927 22.1287 22.2356 22.1287 20.1856 22.1287L20.1784 22.1429Z" fill="#26D07C"/>
<path d="M31.3644 22.143H28.0144C27.6644 23.4644 27.0287 24.8002 26.0001 26.0859C23.543 29.1573 20.5287 30.7144 17.043 30.7144C16.0001 30.7144 14.8858 30.5287 13.793 30.2359C15.9073 31.2002 18.6073 32.1359 20.9573 32.1359C24.443 32.1359 27.4573 30.5787 29.9144 27.5073C31.093 26.0359 31.7501 24.493 32.0573 22.993C32.1501 22.5502 31.8073 22.1359 31.3573 22.1359L31.3644 22.143Z" fill="#1D9C5D"/>
<path d="M23.1427 23.5716C23.7345 23.5716 24.2141 23.0919 24.2141 22.5001C24.2141 21.9084 23.7345 21.4287 23.1427 21.4287C22.551 21.4287 22.0713 21.9084 22.0713 22.5001C22.0713 23.0919 22.551 23.5716 23.1427 23.5716Z" fill="#13683E"/>
<path d="M23.8576 30.0002C24.4493 30.0002 24.929 29.5205 24.929 28.9287C24.929 28.337 24.4493 27.8573 23.8576 27.8573C23.2658 27.8573 22.7861 28.337 22.7861 28.9287C22.7861 29.5205 23.2658 30.0002 23.8576 30.0002Z" fill="#13683E"/>
<path d="M18.8576 27.143C19.4493 27.143 19.929 26.6633 19.929 26.0716C19.929 25.4798 19.4493 25.0001 18.8576 25.0001C18.2658 25.0001 17.7861 25.4798 17.7861 26.0716C17.7861 26.6633 18.2658 27.143 18.8576 27.143Z" fill="#13683E"/>
<path d="M28.8576 22.8573C29.4493 22.8573 29.929 22.3776 29.929 21.7859C29.929 21.1942 29.4493 20.7145 28.8576 20.7145C28.2658 20.7145 27.7861 21.1942 27.7861 21.7859C27.7861 22.3776 28.2658 22.8573 28.8576 22.8573Z" fill="#13683E"/>
<path d="M27.4289 27.143C28.0206 27.143 28.5003 26.6633 28.5003 26.0716C28.5003 25.4798 28.0206 25.0001 27.4289 25.0001C26.8371 25.0001 26.3574 25.4798 26.3574 26.0716C26.3574 26.6633 26.8371 27.143 27.4289 27.143Z" fill="#13683E"/>
</g>
<defs>
<clipPath id="clip0_2299_2454">
<rect width="27.2714" height="27.1429" fill="white" transform="translate(6.42871 6.42871)"/>
</clipPath>
</defs>
</svg>
