<svg width="40" height="40" viewBox="0 0 40 40" fill="none" xmlns="http://www.w3.org/2000/svg">
<rect width="40" height="40" rx="20" fill="#FEFEFE"/>
<path fill-rule="evenodd" clip-rule="evenodd" d="M20.2859 28.1932H18.2859C18.2662 28.1946 18.2464 28.1946 18.2268 28.1932H11.6501C11.5623 28.1894 11.4755 28.2128 11.4014 28.26C11.3272 28.3073 11.2695 28.3762 11.2359 28.4574L10.8073 29.7574C10.7735 29.8406 10.7149 29.9113 10.6395 29.9598C10.5641 30.0084 10.4755 30.0325 10.3859 30.0289H6.85728C6.80473 30.0328 6.75192 30.0262 6.7019 30.0096C6.65187 29.9931 6.60562 29.9668 6.56579 29.9322C6.52597 29.8977 6.49336 29.8557 6.46983 29.8085C6.44631 29.7614 6.43233 29.71 6.42871 29.6574V26.086C6.43233 26.0334 6.44631 25.9821 6.46983 25.9349C6.49336 25.8878 6.52597 25.8457 6.56579 25.8112C6.60562 25.7767 6.65187 25.7504 6.7019 25.7338C6.75192 25.7172 6.80473 25.7107 6.85728 25.7146H18.2268C18.2464 25.7131 18.2662 25.7131 18.2859 25.7146H20.2859C20.3056 25.7131 20.3253 25.7131 20.3449 25.7146H31.7144C31.767 25.7107 31.8198 25.7172 31.8698 25.7338C31.9198 25.7504 31.9661 25.7767 32.0059 25.8112C32.0457 25.8457 32.0784 25.8878 32.1019 25.9349C32.1254 25.9821 32.1394 26.0334 32.143 26.086V29.6574C32.1394 29.71 32.1254 29.7614 32.1019 29.8085C32.0784 29.8557 32.0457 29.8977 32.0059 29.9322C31.9661 29.9668 31.9198 29.9931 31.8698 30.0096C31.8198 30.0262 31.767 30.0328 31.7144 30.0289H28.1859C28.0962 30.0325 28.0076 30.0084 27.9322 29.9598C27.8568 29.9113 27.7982 29.8406 27.7644 29.7574L27.3359 28.4574C27.3022 28.3762 27.2445 28.3073 27.1704 28.26C27.0962 28.2128 27.0094 28.1894 26.9216 28.1932H20.3449C20.3253 28.1946 20.3055 28.1946 20.2859 28.1932Z" fill="#C6C6C6"/>
<path d="M8.71443 15.0002H29.8573C30.4635 15.0002 31.0449 15.2411 31.4735 15.6697C31.9022 16.0984 32.143 16.6797 32.143 17.286V23.5717C32.143 23.7611 32.0677 23.9428 31.9338 24.0767C31.7998 24.2107 31.6182 24.286 31.4287 24.286H7.143C6.95356 24.286 6.77187 24.2107 6.63792 24.0767C6.50397 23.9428 6.42871 23.7611 6.42871 23.5717V17.286C6.42871 16.6797 6.66953 16.0984 7.09818 15.6697C7.52684 15.2411 8.10822 15.0002 8.71443 15.0002Z" fill="#00154B"/>
<path d="M30.7148 17.286V24.286H7.8577V17.286C7.8577 17.1734 7.87987 17.062 7.92295 16.958C7.96602 16.854 8.02916 16.7595 8.10875 16.6799C8.18834 16.6003 8.28284 16.5372 8.38683 16.4941C8.49082 16.451 8.60228 16.4288 8.71484 16.4288H29.8577C30.085 16.4288 30.303 16.5191 30.4638 16.6799C30.6245 16.8406 30.7148 17.0586 30.7148 17.286Z" fill="#00154B"/>
<path d="M12.1427 7.85742H26.4284C27.3756 7.85742 28.284 8.2337 28.9538 8.90347C29.6236 9.57324 29.9999 10.4816 29.9999 11.4289V15.0003H8.57129V11.4289C8.57129 10.4816 8.94756 9.57324 9.61734 8.90347C10.2871 8.2337 11.1955 7.85742 12.1427 7.85742Z" fill="#E0E0E0"/>
<path d="M27.8574 11.4288V15.0002H10.7146V11.4288C10.7146 11.0499 10.8651 10.6866 11.133 10.4187C11.4009 10.1508 11.7643 10.0002 12.1431 10.0002L26.4289 10.0002C26.8077 10.0002 27.1711 10.1508 27.439 10.4187C27.7069 10.6866 27.8574 11.0499 27.8574 11.4288Z" fill="#A8A8A8"/>
</svg>
