<svg width="40" height="40" viewBox="0 0 40 40" fill="none" xmlns="http://www.w3.org/2000/svg">
<rect width="40" height="40" rx="20" fill="#FEFEFE"/>
<path d="M20.0001 33.5716C27.4954 33.5716 33.5716 27.4954 33.5716 20.0001C33.5716 12.5048 27.4954 6.42871 20.0001 6.42871C12.5048 6.42871 6.42871 12.5048 6.42871 20.0001C6.42871 27.4954 12.5048 33.5716 20.0001 33.5716Z" fill="#FF6B00"/>
<path fill-rule="evenodd" clip-rule="evenodd" d="M14.5725 15.3572C14.7698 15.0156 15.2066 14.8985 15.5483 15.0958L18.0226 16.5244C18.3643 16.7216 18.4813 17.1585 18.2841 17.5001C18.0868 17.8417 17.65 17.9588 17.3083 17.7615L14.834 16.333C14.4924 16.1357 14.3753 15.6989 14.5725 15.3572Z" fill="#401B00"/>
<path fill-rule="evenodd" clip-rule="evenodd" d="M21.5241 17.5002C21.3269 17.1585 21.4439 16.7217 21.7856 16.5244L24.2599 15.0959C24.6016 14.8986 25.0384 15.0157 25.2357 15.3573C25.4329 15.699 25.3159 16.1358 24.9742 16.3331L22.4999 17.7616C22.1582 17.9589 21.7214 17.8418 21.5241 17.5002Z" fill="#401B00"/>
<path fill-rule="evenodd" clip-rule="evenodd" d="M17.1427 23.6047C17.1253 23.9838 16.8125 24.2859 16.4291 24.2859C16.0346 24.2859 15.7148 23.9661 15.7148 23.5716C15.7148 22.9838 16.1257 22.427 16.7965 22.0543C17.4772 21.6761 18.5046 21.4287 20.0006 21.4287C21.4965 21.4287 22.5239 21.6761 23.2046 22.0543C23.8754 22.427 24.2863 22.9838 24.2863 23.5716C24.2863 23.9661 23.9665 24.2859 23.572 24.2859C23.1886 24.2859 22.8758 23.9838 22.8585 23.6048C22.8489 23.5825 22.7909 23.4587 22.5108 23.3031C22.1201 23.086 21.3617 22.8573 20.0006 22.8573C18.6394 22.8573 17.881 23.086 17.4903 23.3031C17.2102 23.4587 17.1522 23.5825 17.1427 23.6047Z" fill="#401B00"/>
<path d="M26.6279 22.3063L26.8779 22.0397C27.1457 21.7532 27.5266 21.575 27.9516 21.5764C28.7674 21.579 29.4315 22.2432 29.4342 23.0589C29.436 23.5992 29.1473 24.0697 28.714 24.3247L28.1388 24.6637L28.6256 25.1202C28.9148 25.3918 29.0944 25.7753 29.0959 26.1995C29.0985 27.0127 28.4424 27.6688 27.6292 27.6662C27.2049 27.6648 26.8215 27.4852 26.5499 27.1959L26.0927 26.7098L25.7537 27.285C25.4987 27.7185 25.0283 28.007 24.4879 28.0052C23.6721 28.0026 23.008 27.3384 23.0054 26.5227C23.0038 26.0101 23.2633 25.5603 23.66 25.2976L24.0225 25.058L24.0052 25.0242L24.5591 25.0587H24.5604L24.7855 25.0725L26.5015 23.3566L26.4877 23.1314V23.1287L26.4276 22.211L26.6279 22.3063ZM26.2951 22.1474L23.816 24.6264L21.5628 19.8942L26.2951 22.1474Z" fill="#FEFEFE" stroke="#FEFEFE"/>
<path d="M13.3819 22.3063L13.1319 22.0397C12.8641 21.7532 12.4831 21.575 12.0581 21.5764C11.2424 21.579 10.5782 22.2432 10.5755 23.0589C10.5738 23.5992 10.8624 24.0697 11.2958 24.3247L11.871 24.6637L11.3842 25.1202C11.0949 25.3918 10.9153 25.7753 10.9139 26.1995C10.9113 27.0127 11.5673 27.6688 12.3806 27.6662C12.8049 27.6648 13.1882 27.4852 13.4599 27.1959L13.917 26.7098L14.2561 27.285C14.511 27.7185 14.9814 28.007 15.5218 28.0052C16.3376 28.0026 17.0018 27.3384 17.0044 26.5227C17.006 26.0101 16.7465 25.5603 16.3498 25.2976L15.9873 25.058L16.0045 25.0242L15.4507 25.0587H15.4493L15.2242 25.0725L13.5082 23.3566L13.5221 23.1314V23.1287L13.5821 22.211L13.3819 22.3063ZM13.7147 22.1474L16.1937 24.6264L18.4469 19.8942L13.7147 22.1474Z" fill="#FEFEFE" stroke="#FEFEFE"/>
</svg>
