<svg width="40" height="40" viewBox="0 0 40 40" fill="none" xmlns="http://www.w3.org/2000/svg">
<rect width="40" height="40" rx="20" fill="#FEFEFE"/>
<path d="M29.6984 33.5716H25.2943V32.5987C25.287 32.3804 25.2363 32.1658 25.1451 31.9671C25.0539 31.7684 24.924 31.5895 24.7629 31.4408C24.6019 31.2921 24.4128 31.1764 24.2065 31.1005C24.0003 31.0245 23.7809 30.9898 23.5611 30.9983H12.558C10.8625 30.9983 9.23642 30.3298 8.0375 29.1399C6.83858 27.9499 6.16504 26.336 6.16504 24.6532C6.16504 22.9704 6.83858 21.3565 8.0375 20.1665C9.23642 18.9766 10.8625 18.3081 12.558 18.3081H27.1412C27.5841 18.3215 28.0146 18.161 28.339 17.8614C28.6635 17.5617 28.8559 17.1472 28.8744 16.7077V16.1931C28.8577 15.753 28.6659 15.3374 28.341 15.0374C28.0161 14.7374 27.5846 14.5775 27.1412 14.5927H17.1965C15.536 14.5576 13.9575 13.8695 12.808 12.6796C11.6585 11.4898 11.0321 9.8957 11.0663 8.24763V6.42871H15.4917V8.26878C15.4999 8.48641 15.5513 8.70028 15.6429 8.89818C15.7345 9.09607 15.8645 9.2741 16.0255 9.42209C16.1865 9.57007 16.3753 9.6851 16.5811 9.76061C16.7869 9.83611 17.0057 9.8706 17.2249 9.86211H27.1696C28.8301 9.89912 30.4082 10.5876 31.5584 11.7768C32.7086 12.9659 33.3373 14.559 33.3068 16.2072V16.7289C33.3373 18.3771 32.7086 19.9701 31.5584 21.1593C30.4082 22.3485 28.8301 23.037 27.1696 23.074H12.558C12.3378 23.0594 12.1168 23.09 11.9089 23.1636C11.701 23.2373 11.5106 23.3526 11.3494 23.5023C11.1882 23.652 11.0597 23.8329 10.9718 24.0339C10.8839 24.2349 10.8386 24.4517 10.8386 24.6708C10.8386 24.8899 10.8839 25.1067 10.9718 25.3077C11.0597 25.5087 11.1882 25.6897 11.3494 25.8394C11.5106 25.9891 11.701 26.1044 11.9089 26.178C12.1168 26.2517 12.3378 26.2822 12.558 26.2677H23.5256C24.3484 26.2842 25.1598 26.4614 25.9136 26.7892C26.6674 27.1171 27.3487 27.5891 27.9186 28.1783C28.4886 28.7675 28.9359 29.4624 29.2352 30.2233C29.5345 30.9842 29.6798 31.7961 29.6628 32.6128L29.6984 33.5716Z" fill="#E0E0E0"/>
<g clip-path="url(#clip0_2299_2447)">
<path d="M20.3288 25.2358C19.2416 25.2433 18.1922 24.8374 17.3931 24.1001C17.2097 24.1374 17.0231 24.1565 16.836 24.1573C16.196 24.1561 15.5721 23.9565 15.0503 23.5858C14.7738 23.6651 14.4878 23.7059 14.2003 23.7073H14.0931C13.4274 24.1841 12.6262 24.4345 11.8074 24.4215C11.4817 24.4222 11.1573 24.379 10.8431 24.293C10.2272 24.1401 9.65817 23.8384 9.18599 23.4144C8.65107 22.9396 8.2559 22.3278 8.04312 21.645C7.83033 20.9621 7.808 20.2341 7.97853 19.5395C8.14906 18.8449 8.50597 18.2101 9.01079 17.7034C9.5156 17.1967 10.1492 16.8375 10.8431 16.6644L11.0431 16.6287C11.286 16.6287 11.5217 16.593 11.7574 16.593H12.3217C12.4166 16.5824 12.5125 16.5824 12.6074 16.593C13.224 16.7245 13.8013 16.9985 14.2931 17.393C14.9034 17.4135 15.4944 17.6121 15.9931 17.9644C16.2693 17.8841 16.5555 17.8433 16.8431 17.843H17.1931C17.9411 17.0559 18.9571 16.5782 20.0403 16.5041C21.1235 16.43 22.195 16.7651 23.0431 17.443C23.7268 17.1135 24.4999 17.0181 25.2431 17.1715C25.8019 16.739 26.4684 16.4677 27.1704 16.3869C27.8724 16.3062 28.5831 16.4191 29.2254 16.7134C29.8678 17.0078 30.4174 17.4723 30.8146 18.0567C31.2119 18.6411 31.4416 19.3231 31.4788 20.0287C31.4824 20.0929 31.4824 20.1573 31.4788 20.2215C31.4889 20.7487 31.3908 21.2723 31.1905 21.76C30.9903 22.2478 30.6921 22.6893 30.3146 23.0573C30.0113 23.3511 29.6613 23.5925 29.2788 23.7715L29.2074 23.8073L28.8146 23.9573C28.4244 24.0951 28.0141 24.1675 27.6003 24.1715C27.4695 24.1821 27.3382 24.1821 27.2074 24.1715C26.708 24.1224 26.2228 23.9769 25.7788 23.743C25.3773 23.9056 24.9478 23.9881 24.5146 23.9858C24.1732 23.9866 23.8337 23.936 23.5074 23.8358C23.1019 24.2747 22.6105 24.6254 22.0637 24.8662C21.5168 25.1071 20.9263 25.2329 20.3288 25.2358Z" fill="#FEFEFE"/>
<path d="M30.0569 20.2001C30.0352 19.6887 29.8534 19.197 29.5371 18.7944C29.2209 18.3919 28.7861 18.0989 28.2944 17.9568C27.8026 17.8147 27.2786 17.8307 26.7963 18.0026C26.3141 18.1744 25.8981 18.4933 25.6069 18.9144C25.2882 18.7071 24.9157 18.5978 24.5355 18.6001C24.2086 18.5994 23.8867 18.6799 23.5986 18.8346C23.3106 18.9892 23.0656 19.213 22.8855 19.4858C22.6287 19.0241 22.2511 18.641 21.7933 18.3773C21.3354 18.1136 20.8145 17.9793 20.2862 17.9889C19.758 17.9984 19.2422 18.1514 18.7942 18.4314C18.3462 18.7115 17.9827 19.108 17.7427 19.5787C17.4764 19.4071 17.1666 19.3154 16.8498 19.3144C16.4237 19.3157 16.0136 19.4762 15.6998 19.7644C15.5554 19.4936 15.3403 19.267 15.0775 19.1085C14.8147 18.9501 14.5138 18.8657 14.2069 18.8644C14.0596 18.8678 13.9133 18.8894 13.7712 18.9287C13.4127 18.4748 12.9078 18.1592 12.3427 18.0358H11.7784C11.5857 18.025 11.3925 18.025 11.1998 18.0358C10.659 18.1734 10.1791 18.4864 9.8353 18.9258C9.49148 19.3653 9.30314 19.9064 9.2998 20.4644C9.30356 21.1301 9.56966 21.7674 10.0404 22.2381C10.5111 22.7088 11.1484 22.9749 11.8141 22.9787C12.1345 22.9795 12.4522 22.9189 12.7498 22.8001C13.1005 22.6566 13.4134 22.4342 13.6641 22.1501C13.841 22.2121 14.0266 22.2459 14.2141 22.2501C14.6377 22.2471 15.045 22.0867 15.3569 21.8001C15.502 22.0704 15.7171 22.2967 15.9798 22.455C16.2425 22.6134 16.5431 22.6981 16.8498 22.7001C17.2092 22.6972 17.5587 22.5824 17.8498 22.3716C18.1343 22.841 18.5455 23.2206 19.0363 23.4665C19.527 23.7125 20.0772 23.8149 20.6235 23.7619C21.1699 23.7089 21.6902 23.5027 22.1245 23.167C22.5588 22.8313 22.8894 22.3798 23.0784 21.8644C23.2572 22.0684 23.4766 22.2329 23.7226 22.3473C23.9686 22.4616 24.2357 22.5234 24.5069 22.5287C25.0016 22.5273 25.4779 22.3414 25.8427 22.0073C26.2362 22.4118 26.7597 22.6647 27.3212 22.7216C27.4069 22.7216 27.4927 22.7216 27.5784 22.7216C27.8218 22.7174 28.063 22.674 28.2927 22.593L28.6141 22.4716C28.8611 22.3571 29.086 22.1999 29.2784 22.0073C29.5084 21.7781 29.6901 21.5052 29.8128 21.2046C29.9354 20.904 29.9966 20.5819 29.9927 20.2573C29.9927 20.2216 29.9927 20.1787 29.9927 20.1358L30.0569 20.2001Z" fill="#FF6B00"/>
<path d="M29.9717 19.6787C29.861 20.0973 29.6417 20.4793 29.3359 20.7859C29.14 20.9756 28.9129 21.1303 28.6645 21.243C28.5645 21.293 28.4502 21.3287 28.3431 21.3716C28.1121 21.4463 27.8715 21.4872 27.6288 21.493C27.5359 21.493 27.4574 21.493 27.3717 21.493C26.812 21.4298 26.2905 21.1779 25.8931 20.7787C25.5283 21.1128 25.052 21.2988 24.5574 21.3002C24.2801 21.2999 24.0061 21.2405 23.7536 21.126C23.5011 21.0114 23.2759 20.8443 23.0931 20.6359C22.9041 21.1512 22.5735 21.6028 22.1392 21.9385C21.7049 22.2742 21.1846 22.4804 20.6382 22.5334C20.0919 22.5864 19.5417 22.484 19.051 22.238C18.5603 21.992 18.149 21.6125 17.8645 21.143C17.5744 21.3548 17.2237 21.4675 16.8645 21.4644C16.5574 21.4639 16.2563 21.3799 15.9933 21.2214C15.7304 21.0628 15.5155 20.8357 15.3717 20.5644C15.0601 20.8516 14.6525 21.0121 14.2288 21.0144C14.0361 21.0168 13.8447 20.9829 13.6645 20.9144C13.4157 21.2007 13.1023 21.4235 12.7502 21.5644C12.2662 21.7515 11.7341 21.774 11.2359 21.6287C10.8455 21.532 10.4849 21.3407 10.1859 21.0716C9.8188 20.7479 9.55541 20.323 9.4288 19.8502C9.36897 20.0568 9.33773 20.2707 9.33594 20.4859C9.33572 20.8349 9.40799 21.1802 9.54816 21.4999C9.68832 21.8196 9.89334 22.1067 10.1502 22.343C10.4492 22.6121 10.8098 22.8034 11.2002 22.9001C11.7134 23.0423 12.2596 23.0071 12.7502 22.8002C13.1023 22.6592 13.4157 22.4364 13.6645 22.1502C13.8405 22.2156 14.0267 22.2495 14.2145 22.2502C14.6388 22.2506 15.0473 22.0898 15.3574 21.8002C15.4716 22.0139 15.6301 22.2008 15.8225 22.3483C16.0148 22.4957 16.2364 22.6004 16.4725 22.6551C16.7086 22.7099 16.9536 22.7136 17.1913 22.6659C17.4289 22.6183 17.6536 22.5203 17.8502 22.3787C18.1347 22.8482 18.546 23.2277 19.0367 23.4737C19.5274 23.7197 20.0776 23.8221 20.624 23.7691C21.1703 23.7161 21.6906 23.5099 22.1249 23.1742C22.5592 22.8385 22.8898 22.3869 23.0788 21.8716C23.2616 22.08 23.4868 22.2471 23.7393 22.3617C23.9918 22.4762 24.2658 22.5356 24.5431 22.5359C25.0377 22.5345 25.514 22.3485 25.8788 22.0144C26.2762 22.4136 26.7977 22.6655 27.3574 22.7287H27.6145C27.8573 22.7236 28.098 22.6826 28.3288 22.6073C28.4359 22.5644 28.5502 22.5287 28.6502 22.4787C28.8967 22.3626 29.1232 22.2083 29.3217 22.0216C29.5507 21.7917 29.7317 21.5187 29.8544 21.2182C29.977 20.9178 30.0387 20.596 30.0359 20.2716C30.0359 20.2287 30.0359 20.193 30.0359 20.1502C30.026 19.9761 29.9972 19.8037 29.9502 19.6359L29.9717 19.6787Z" fill="#D95B00"/>
</g>
<defs>
<clipPath id="clip0_2299_2447">
<rect width="23.6286" height="8.80714" fill="white" transform="translate(7.85742 16.4287)"/>
</clipPath>
</defs>
</svg>
