<svg width="40" height="40" viewBox="0 0 40 40" fill="none" xmlns="http://www.w3.org/2000/svg">
<rect width="40" height="40" rx="20" fill="#FEFEFE"/>
<g clip-path="url(#clip0_2299_2438)">
<path d="M27.7922 21.8146L27.435 21.6074C27.5181 19.6122 27.4201 17.6135 27.1422 15.636C26.8811 13.6545 26.4387 11.701 25.8208 9.8003L26.1208 9.50744C26.21 9.41911 26.2808 9.31397 26.3291 9.19811C26.3774 9.08226 26.4023 8.95797 26.4023 8.83244C26.4023 8.70691 26.3774 8.58262 26.3291 8.46676C26.2808 8.35091 26.21 8.24577 26.1208 8.15744C25.9223 7.96585 25.6573 7.85876 25.3815 7.85876C25.1057 7.85876 24.8406 7.96585 24.6422 8.15744L24.1636 8.64315C22.5065 8.70744 19.2922 8.88601 15.2565 9.43601C11.2208 9.98601 8.04219 10.6717 6.4279 11.0503L5.8279 10.7146C5.58626 10.581 5.30217 10.5466 5.03562 10.6186C4.76906 10.6905 4.54091 10.8633 4.39933 11.1003C4.3363 11.2092 4.29569 11.3296 4.27991 11.4544C4.26413 11.5792 4.27348 11.7059 4.30743 11.8271C4.34138 11.9482 4.39923 12.0614 4.47758 12.1598C4.55592 12.2583 4.65318 12.34 4.76362 12.4003L5.12076 12.6074C5.0472 14.6035 5.15478 16.6022 5.44219 18.5789C5.70438 20.5626 6.14669 22.5183 6.76362 24.4217L6.46362 24.7074C6.37443 24.7958 6.30362 24.9009 6.2553 25.0168C6.20698 25.1326 6.18211 25.2569 6.18211 25.3824C6.18211 25.508 6.20698 25.6323 6.2553 25.7481C6.30362 25.864 6.37443 25.9691 6.46362 26.0574C6.66203 26.249 6.92708 26.3561 7.2029 26.3561C7.47873 26.3561 7.74377 26.249 7.94219 26.0574L8.42076 25.5717C10.0779 25.5146 13.2922 25.3289 17.3279 24.7789C21.3636 24.2289 24.5136 23.5432 26.1208 23.1646L26.7208 23.5003C26.9624 23.6339 27.2465 23.6683 27.513 23.5963C27.7796 23.5244 28.0078 23.3516 28.1493 23.1146C28.2126 23.0061 28.2537 22.8861 28.27 22.7616C28.2863 22.6371 28.2775 22.5105 28.2443 22.3894C28.211 22.2683 28.1539 22.1551 28.0762 22.0564C27.9986 21.9577 27.902 21.8755 27.7922 21.8146Z" fill="#E0E0E0"/>
<path d="M32.4563 33.286C31.8703 33.2872 31.303 33.0796 30.8563 32.7003L30.7634 32.6217C30.0491 32.6217 29.0206 32.6646 27.8206 32.6646C25.992 32.6646 24.1206 32.6146 22.2563 32.5075C18.5063 32.3003 15.5063 31.9217 13.7991 31.6646L13.692 31.736C13.1508 32.0994 12.4883 32.2349 11.8479 32.1132C11.2075 31.9915 10.6408 31.6225 10.2706 31.086C9.95792 30.6288 9.81466 30.0767 9.86552 29.5251C9.91637 28.9735 10.1582 28.457 10.5491 28.0646C10.3842 26.2668 10.3603 24.4589 10.4777 22.6575C10.5765 20.8559 10.8154 19.0648 11.192 17.3003C10.8503 16.8667 10.6711 16.3273 10.6854 15.7754C10.6998 15.2236 10.9068 14.6941 11.2706 14.2789C11.6983 13.7874 12.3024 13.4841 12.9521 13.4346C13.6018 13.3852 14.2448 13.5935 14.742 14.0146L14.8349 14.0932C15.5491 14.0932 16.5777 14.0503 17.7777 14.0503C19.6063 14.0503 21.4777 14.1003 23.342 14.2075C27.0777 14.4146 30.0849 14.7932 31.7991 15.0503L31.9063 14.9789C32.4486 14.6192 33.11 14.4859 33.7493 14.6074C34.3886 14.7288 34.9551 15.0954 35.3277 15.6289C35.6322 16.0911 35.766 16.645 35.706 17.1952C35.646 17.7454 35.396 18.2574 34.9991 18.6432C35.1639 20.4409 35.1878 22.2488 35.0706 24.0503C34.9717 25.8519 34.7329 27.643 34.3563 29.4075C34.6448 29.7781 34.8186 30.225 34.8563 30.6932C34.8792 31.0064 34.8399 31.321 34.7406 31.6189C34.6413 31.9168 34.484 32.1921 34.2777 32.4289C34.045 32.6966 33.7575 32.911 33.4346 33.0577C33.1116 33.2043 32.7609 33.2798 32.4063 33.2789L32.4563 33.286Z" fill="#FEFEFE"/>
<path d="M33.1496 30.1574L32.8567 29.8859C33.3238 27.9456 33.6061 25.9653 33.6996 23.9717C33.8306 21.9806 33.778 19.9817 33.5424 18.0002L33.8853 17.7645C33.9915 17.696 34.0828 17.6068 34.1538 17.5023C34.2249 17.3979 34.2742 17.2801 34.2988 17.1562C34.3235 17.0323 34.323 16.9046 34.2973 16.7809C34.2717 16.6572 34.2214 16.5399 34.1496 16.4359C33.9903 16.2179 33.7541 16.0686 33.4889 16.0182C33.2236 15.9678 32.9491 16.0201 32.721 16.1645L32.1496 16.5431C30.5281 16.2859 27.3496 15.8288 23.2781 15.6359C19.2067 15.4431 15.9567 15.4717 14.2853 15.5431L13.7638 15.1074C13.5549 14.9286 13.2839 14.8395 13.0097 14.8596C12.7354 14.8797 12.4802 15.0072 12.2996 15.2145C12.2175 15.3097 12.1549 15.4202 12.1156 15.5395C12.0762 15.6589 12.0607 15.7849 12.0699 15.9102C12.0792 16.0356 12.1131 16.1579 12.1697 16.2702C12.2262 16.3824 12.3043 16.4824 12.3996 16.5645L12.721 16.8288C12.2544 18.7693 11.9722 20.7495 11.8781 22.7431C11.7473 24.7365 11.7999 26.7378 12.0353 28.7217L11.6924 28.9502C11.5862 29.0187 11.4949 29.1079 11.4239 29.2124C11.3528 29.3169 11.3035 29.4346 11.2789 29.5585C11.2542 29.6825 11.2547 29.8101 11.2804 29.9338C11.306 30.0576 11.3563 30.1749 11.4281 30.2788C11.5874 30.4968 11.8236 30.6461 12.0888 30.6965C12.3541 30.7469 12.6286 30.6946 12.8567 30.5502L13.4281 30.1717C15.0496 30.4288 18.2281 30.8859 22.2996 31.0788C26.371 31.2717 29.571 31.2431 31.221 31.1717L31.7424 31.6074C31.9492 31.7753 32.2124 31.8578 32.478 31.8379C32.7437 31.818 32.9916 31.6972 33.171 31.5002C33.2586 31.4111 33.3276 31.3054 33.374 31.1894C33.4204 31.0734 33.4432 30.9493 33.4412 30.8243C33.4392 30.6994 33.4124 30.5761 33.3624 30.4616C33.3123 30.3471 33.24 30.2437 33.1496 30.1574Z" fill="#00154B"/>
<path d="M34.0898 16.4421C33.9328 16.2212 33.6964 16.0697 33.4301 16.0191C33.1639 15.9685 32.8884 16.0228 32.6612 16.1707L32.0898 16.5492C31.8041 16.4992 31.447 16.4492 31.0684 16.3992C31.2694 17.8543 31.3387 19.3246 31.2755 20.7921C31.147 22.6976 30.9044 24.5932 30.5493 26.4687C30.3809 27.3576 29.6125 27.9953 28.7078 27.9969C26.5668 28.0006 23.1792 27.9153 20.047 27.7278C16.4755 27.5278 13.6184 27.1778 11.8827 26.9207C11.9255 27.635 11.9898 28.2492 12.047 28.7207L11.7041 28.9492C11.5945 29.0143 11.4992 29.1008 11.4239 29.2037C11.3487 29.3066 11.2951 29.4237 11.2664 29.5478C11.2377 29.672 11.2345 29.8007 11.2569 29.9262C11.2794 30.0517 11.327 30.1713 11.397 30.2778C11.554 30.4987 11.7904 30.6503 12.0567 30.7008C12.3229 30.7514 12.5984 30.6971 12.8255 30.5492L13.397 30.1707C15.0184 30.4278 18.197 30.885 22.2684 31.085C26.3398 31.285 29.5398 31.2421 31.1898 31.1707L31.7112 31.6135C31.9187 31.7799 32.1815 31.8613 32.4466 31.8414C32.7118 31.8215 32.9595 31.7018 33.1398 31.5064C33.2228 31.4116 33.2861 31.3013 33.326 31.1818C33.366 31.0623 33.3817 30.9361 33.3724 30.8104C33.3631 30.6848 33.3289 30.5623 33.2718 30.45C33.2147 30.3377 33.1359 30.2379 33.0398 30.1564L32.8255 29.8921C33.2925 27.9493 33.5747 25.9666 33.6684 23.9707C33.7993 21.9796 33.7467 19.9807 33.5112 17.9992L33.8541 17.7707C33.958 17.6999 34.0467 17.6091 34.115 17.5035C34.1833 17.398 34.2298 17.2798 34.2518 17.156C34.2738 17.0322 34.2708 16.9053 34.2429 16.7827C34.2151 16.6601 34.1631 16.5443 34.0898 16.4421Z" fill="#000D2F"/>
</g>
<defs>
<clipPath id="clip0_2299_2438">
<rect width="31.4286" height="25.4286" fill="white" transform="translate(4.28516 7.85742)"/>
</clipPath>
</defs>
</svg>
