<svg width="40" height="40" viewBox="0 0 40 40" fill="none" xmlns="http://www.w3.org/2000/svg">
<rect width="40" height="40" rx="20" fill="#FEFEFE"/>
<path d="M26.4283 20.7142H12.1426V32.1428H26.4283V20.7142Z" fill="#A8A8A8"/>
<path d="M20.7287 22.1428H19.2712L18.2146 31.5119C18.2088 31.5971 18.2376 31.6812 18.2948 31.7461L19.7522 33.4708C19.7802 33.5024 19.8149 33.5277 19.8539 33.5451C19.8929 33.5624 19.9352 33.5714 19.9781 33.5714C20.0209 33.5714 20.0633 33.5624 20.1023 33.5451C20.1413 33.5277 20.1759 33.5024 20.204 33.4708L21.6614 31.7461C21.6976 31.7176 21.7274 31.682 21.7487 31.6417C21.77 31.6014 21.7825 31.5571 21.7853 31.5119L20.7287 22.1428Z" fill="#00154B"/>
<path d="M24.2852 17.1452C25.9441 17.0984 27.5529 17.746 28.7582 18.9456C29.9635 20.1453 30.6669 21.799 30.7137 23.5436V34.4128C30.7119 34.4918 30.6954 34.5697 30.665 34.6419C30.6346 34.7142 30.5909 34.7794 30.5365 34.8339C30.4821 34.8884 30.4181 34.9311 30.348 34.9596C30.2779 34.9881 30.2032 35.0017 30.1281 34.9998H24.8708C24.7197 35.0018 24.5737 34.9415 24.4643 34.8318C24.3548 34.7221 24.2905 34.5717 24.2852 34.4128V17.1452Z" fill="#E0E0E0"/>
<path d="M15.1281 34.9999H9.87082C9.71965 35.0019 9.57374 34.9416 9.46429 34.8319C9.35484 34.7222 9.29054 34.5719 9.28516 34.413V23.5435C9.33383 21.7995 10.0377 20.1469 11.2426 18.9476C12.4476 17.7484 14.0553 17.1002 15.7137 17.145V34.413C15.7083 34.5719 15.644 34.7222 15.5346 34.8319C15.4251 34.9416 15.2792 35.0019 15.1281 34.9999Z" fill="#E0E0E0"/>
<path d="M26.9634 16.4909C26.9628 15.7582 26.8542 15.0297 26.6411 14.3291C26.2817 13.2293 25.6643 12.2329 24.8411 11.4242C24.018 10.6155 23.0133 10.0182 21.9122 9.68299C20.8111 9.34777 19.6459 9.28445 18.5153 9.49839C17.3847 9.71234 16.3219 10.1972 15.417 10.9121C14.5121 11.6269 13.7916 12.5506 13.3166 13.605C12.8416 14.6594 12.6261 15.8134 12.6882 16.9694C12.7503 18.1254 13.0883 19.2493 13.6735 20.246C14.2587 21.2427 15.0739 22.0828 16.0501 22.6953C16.5979 23.3223 17.2918 23.8026 18.0695 24.0933L18.1196 24.1797C18.3038 24.4592 18.5539 24.6884 18.8475 24.847C19.1412 25.0056 19.4692 25.0886 19.8025 25.0886C20.1357 25.0886 20.4637 25.0056 20.7574 24.847C21.051 24.6884 21.3011 24.4592 21.4853 24.1797L21.5426 24.1005C22.3131 23.8074 23.0013 23.3301 23.5476 22.7097C24.5976 22.0533 25.4629 21.137 26.0609 20.0483C26.6589 18.9596 26.9696 17.7348 26.9634 16.4909Z" fill="#FEFEFE"/>
<path d="M19.8034 23.0195C20.5298 23.0338 21.2439 22.8298 21.8545 22.4335C22.465 22.0372 22.9442 21.4666 23.2308 20.7948C23.5174 20.1229 23.5983 19.3803 23.4633 18.662C23.3282 17.9436 22.9833 17.2821 22.4726 16.762C21.9619 16.2419 21.3087 15.887 20.5965 15.7425C19.8843 15.598 19.1454 15.6706 18.4744 15.951C17.8034 16.2313 17.2308 16.7067 16.8297 17.3164C16.4286 17.926 16.2174 18.6421 16.2229 19.3733C16.2172 19.85 16.3056 20.3232 16.483 20.7653C16.6604 21.2075 16.9232 21.6098 17.2563 21.949C17.5893 22.2881 17.986 22.5574 18.4232 22.7412C18.8604 22.9249 19.3295 23.0195 19.8034 23.0195Z" fill="#FFD3B3"/>
<path d="M20.2617 23.4448L20.7487 22.6665C20.7921 22.59 20.814 22.503 20.8118 22.4148C20.8096 22.3267 20.7835 22.2409 20.7363 22.1666C20.689 22.0924 20.6225 22.0326 20.5439 21.9937C20.4653 21.9548 20.3776 21.9382 20.2904 21.9459H19.3165C19.2292 21.9382 19.1415 21.9548 19.0629 21.9937C18.9843 22.0326 18.9178 22.0924 18.8706 22.1666C18.8234 22.2409 18.7973 22.3267 18.7951 22.4148C18.7929 22.503 18.8147 22.59 18.8582 22.6665L19.3451 23.4448C19.3966 23.5191 19.4651 23.5798 19.5449 23.6217C19.6247 23.6637 19.7134 23.6856 19.8034 23.6856C19.8934 23.6856 19.9821 23.6637 20.0619 23.6217C20.1417 23.5798 20.2103 23.5191 20.2617 23.4448Z" fill="#FFD3B3"/>
<path d="M19.8025 22.3854C20.9622 22.4082 22.1024 22.0833 23.078 21.4519C24.0535 20.8205 24.8203 19.9112 25.2806 18.8398C25.7409 17.7684 25.8739 16.5834 25.6627 15.4357C25.4515 14.288 24.9056 13.2295 24.0946 12.395C23.2836 11.5605 22.2441 10.9878 21.1086 10.7498C19.973 10.5118 18.7928 10.6192 17.7181 11.0585C16.6435 11.4977 15.7231 12.2489 15.0741 13.2163C14.4251 14.1837 14.0768 15.3236 14.0738 16.4908C14.0634 17.2569 14.2035 18.0175 14.4861 18.7289C14.7687 19.4404 15.1883 20.0886 15.7206 20.6363C16.253 21.1841 16.8876 21.6206 17.5881 21.9207C18.2886 22.2209 19.0412 22.3788 19.8025 22.3854Z" fill="#66501C"/>
<path d="M19.9179 10.6327C19.5498 10.6347 19.1828 10.6733 18.8223 10.748C20.134 11.0296 21.3101 11.7557 22.1538 12.8049C22.9975 13.8542 23.4578 15.1631 23.4578 16.5128C23.4578 17.8626 22.9975 19.1714 22.1538 20.2207C21.3101 21.27 20.134 21.9961 18.8223 22.2777C19.1828 22.3524 19.5498 22.391 19.9179 22.393C21.4676 22.393 22.9539 21.7734 24.0497 20.6707C25.1456 19.568 25.7612 18.0723 25.7612 16.5128C25.7612 14.9533 25.1456 13.4577 24.0497 12.3549C22.9539 11.2522 21.4676 10.6327 19.9179 10.6327Z" fill="#33280E"/>
<path fill-rule="evenodd" clip-rule="evenodd" d="M13.2137 6.42566C13.2615 6.42659 13.3087 6.43691 13.3525 6.45604C13.3964 6.47518 13.436 6.50274 13.4692 6.53716C13.5023 6.57159 13.5284 6.61219 13.5458 6.65667C13.5633 6.70114 13.5717 6.7486 13.5708 6.79635V11.7864C13.5708 11.8809 13.5332 11.9716 13.4662 12.0384C13.3992 12.1052 13.3084 12.1428 13.2137 12.1428C13.1189 12.1428 13.0281 12.1052 12.9611 12.0384C12.8941 11.9716 12.8565 11.8809 12.8565 11.7864V6.79635C12.8556 6.7486 12.8641 6.70114 12.8815 6.65667C12.8989 6.61219 12.925 6.57159 12.9581 6.53716C12.9913 6.50274 13.0309 6.47518 13.0748 6.45604C13.1186 6.43691 13.1658 6.42659 13.2137 6.42566Z" fill="#00154B"/>
<path fill-rule="evenodd" clip-rule="evenodd" d="M15.3562 5C15.4041 5.00093 15.4513 5.01125 15.4951 5.03038C15.539 5.04952 15.5786 5.07708 15.6118 5.1115C15.6449 5.14593 15.671 5.18654 15.6884 5.23101C15.7058 5.27548 15.7143 5.32294 15.7134 5.37069V10.3607C15.7134 10.4552 15.6758 10.5459 15.6088 10.6127C15.5418 10.6796 15.451 10.7171 15.3562 10.7171C15.2615 10.7171 15.1707 10.6796 15.1037 10.6127C15.0367 10.5459 14.9991 10.4552 14.9991 10.3607V5.37069C14.9981 5.32294 15.0066 5.27548 15.0241 5.23101C15.0415 5.18654 15.0676 5.14593 15.1007 5.1115C15.1339 5.07708 15.1735 5.04952 15.2174 5.03038C15.2612 5.01125 15.3084 5.00093 15.3562 5Z" fill="#00154B"/>
<path fill-rule="evenodd" clip-rule="evenodd" d="M17.4998 6.42566C17.5476 6.42659 17.5948 6.43691 17.6387 6.45604C17.6825 6.47518 17.7221 6.50274 17.7553 6.53716C17.7885 6.57159 17.8145 6.61219 17.832 6.65667C17.8494 6.70114 17.8579 6.7486 17.8569 6.79635V11.7864C17.8569 11.8809 17.8193 11.9716 17.7523 12.0384C17.6854 12.1052 17.5945 12.1428 17.4998 12.1428C17.4051 12.1428 17.3142 12.1052 17.2473 12.0384C17.1803 11.9716 17.1426 11.8809 17.1426 11.7864V6.79635C17.1417 6.7486 17.1502 6.70114 17.1676 6.65667C17.1851 6.61219 17.2111 6.57159 17.2443 6.53716C17.2774 6.50274 17.3171 6.47518 17.3609 6.45604C17.4048 6.43691 17.452 6.42659 17.4998 6.42566Z" fill="#00154B"/>
<path fill-rule="evenodd" clip-rule="evenodd" d="M22.4998 6.42566C22.5476 6.42659 22.5948 6.43691 22.6387 6.45604C22.6825 6.47518 22.7221 6.50274 22.7553 6.53716C22.7885 6.57159 22.8145 6.61219 22.832 6.65667C22.8494 6.70114 22.8579 6.7486 22.8569 6.79635V11.7864C22.8569 11.8809 22.8193 11.9716 22.7523 12.0384C22.6854 12.1052 22.5945 12.1428 22.4998 12.1428C22.4051 12.1428 22.3142 12.1052 22.2473 12.0384C22.1803 11.9716 22.1426 11.8809 22.1426 11.7864V6.79635C22.1417 6.7486 22.1502 6.70114 22.1676 6.65667C22.1851 6.61219 22.2111 6.57159 22.2443 6.53716C22.2774 6.50274 22.3171 6.47518 22.3609 6.45604C22.4048 6.43691 22.452 6.42659 22.4998 6.42566Z" fill="#00154B"/>
<path fill-rule="evenodd" clip-rule="evenodd" d="M24.6424 5C24.6902 5.00093 24.7374 5.01125 24.7812 5.03038C24.8251 5.04952 24.8647 5.07708 24.8979 5.1115C24.9311 5.14593 24.9571 5.18654 24.9745 5.23101C24.992 5.27548 25.0005 5.32294 24.9995 5.37069V10.3607C24.9995 10.4552 24.9619 10.5459 24.8949 10.6127C24.8279 10.6796 24.7371 10.7171 24.6424 10.7171C24.5477 10.7171 24.4568 10.6796 24.3898 10.6127C24.3229 10.5459 24.2852 10.4552 24.2852 10.3607V5.37069C24.2843 5.32294 24.2928 5.27548 24.3102 5.23101C24.3276 5.18654 24.3537 5.14593 24.3869 5.1115C24.42 5.07708 24.4597 5.04952 24.5035 5.03038C24.5473 5.01125 24.5945 5.00093 24.6424 5Z" fill="#00154B"/>
<path fill-rule="evenodd" clip-rule="evenodd" d="M26.7849 6.42566C26.8328 6.42659 26.88 6.43691 26.9238 6.45604C26.9677 6.47518 27.0073 6.50274 27.0405 6.53716C27.0736 6.57159 27.0997 6.61219 27.1171 6.65667C27.1346 6.70114 27.143 6.7486 27.1421 6.79635V11.7864C27.1421 11.8809 27.1045 11.9716 27.0375 12.0384C26.9705 12.1052 26.8797 12.1428 26.7849 12.1428C26.6902 12.1428 26.5994 12.1052 26.5324 12.0384C26.4654 11.9716 26.4278 11.8809 26.4278 11.7864V6.79635C26.4269 6.7486 26.4353 6.70114 26.4528 6.65667C26.4702 6.61219 26.4963 6.57159 26.5294 6.53716C26.5626 6.50274 26.6022 6.47518 26.6461 6.45604C26.6899 6.43691 26.7371 6.42659 26.7849 6.42566Z" fill="#00154B"/>
</svg>
