<svg width="40" height="40" viewBox="0 0 40 40" fill="none" xmlns="http://www.w3.org/2000/svg">
<rect width="40" height="40" rx="20" fill="#FEFEFE"/>
<g clip-path="url(#clip0_2299_2472)">
<path d="M6.42871 17.8574H33.5716V30.0717C33.5716 30.4316 33.4211 30.7768 33.1531 31.0314C32.8852 31.2859 32.5219 31.4288 32.143 31.4288H7.85728C7.4784 31.4288 7.11504 31.2859 6.84713 31.0314C6.57922 30.7768 6.42871 30.4316 6.42871 30.0717V17.8574Z" fill="#F4F4F4"/>
<path d="M33.5716 16.4288H6.42871V17.8574H33.5716V16.4288Z" fill="#D3D3D3"/>
<path d="M7.85728 11.4288H32.143C32.5219 11.4288 32.8852 11.5793 33.1531 11.8473C33.4211 12.1152 33.5716 12.4785 33.5716 12.8574V16.4288H6.42871V12.8574C6.42871 12.4785 6.57922 12.1152 6.84713 11.8473C7.11504 11.5793 7.4784 11.4288 7.85728 11.4288Z" fill="#E0E0E0"/>
<path d="M11.7856 14.286C11.1226 14.286 10.4867 14.0226 10.0179 13.5538C9.54904 13.0849 9.28564 12.449 9.28564 11.786V10.3574C9.28564 9.69438 9.54904 9.0585 10.0179 8.58966C10.4867 8.12081 11.1226 7.85742 11.7856 7.85742C12.4487 7.85742 13.0846 8.12081 13.5534 8.58966C14.0223 9.0585 14.2856 9.69438 14.2856 10.3574V11.786C14.2856 12.449 14.0223 13.0849 13.5534 13.5538C13.0846 14.0226 12.4487 14.286 11.7856 14.286Z" fill="#FEFEFE"/>
<path d="M12.8572 10.3574C12.8572 9.76571 12.3775 9.28601 11.7858 9.28601C11.1941 9.28601 10.7144 9.76571 10.7144 10.3574V11.786C10.7144 12.3777 11.1941 12.8574 11.7858 12.8574C12.3775 12.8574 12.8572 12.3777 12.8572 11.786V10.3574Z" fill="#00154B"/>
<path d="M28.2144 14.286C27.5513 14.286 26.9154 14.0226 26.4466 13.5538C25.9777 13.0849 25.7144 12.449 25.7144 11.786V10.3574C25.7144 9.69438 25.9777 9.0585 26.4466 8.58966C26.9154 8.12081 27.5513 7.85742 28.2144 7.85742C28.8774 7.85742 29.5133 8.12081 29.9821 8.58966C30.451 9.0585 30.7144 9.69438 30.7144 10.3574V11.786C30.7144 12.449 30.451 13.0849 29.9821 13.5538C29.5133 14.0226 28.8774 14.286 28.2144 14.286Z" fill="#FEFEFE"/>
<path d="M29.2859 10.3574C29.2859 9.76571 28.8062 9.28601 28.2145 9.28601C27.6228 9.28601 27.1431 9.76571 27.1431 10.3574V11.786C27.1431 12.3777 27.6228 12.8574 28.2145 12.8574C28.8062 12.8574 29.2859 12.3777 29.2859 11.786V10.3574Z" fill="#00154B"/>
<path d="M22.9451 22.3129C23.5395 22.9319 23.9449 23.7214 24.1097 24.5815C24.2746 25.4415 24.1916 26.3333 23.8713 27.144C23.5509 27.9547 23.0076 28.6477 22.3101 29.1354C21.6127 29.623 20.7925 29.8834 19.9534 29.8834C19.1143 29.8834 18.2941 29.623 17.5966 29.1354C16.8992 28.6477 16.3558 27.9547 16.0355 27.144C15.7151 26.3333 15.6321 25.4415 15.797 24.5815C15.9619 23.7214 16.3672 22.9319 16.9617 22.3129L19.813 19.3514C19.8972 19.2639 20.0412 19.2643 20.1249 19.3522L22.9451 22.3129Z" fill="#EF3340"/>
<path d="M22.8645 22.2444C22.9899 22.5399 23.0847 22.8504 23.1461 23.1706C23.311 24.0306 23.228 24.9225 22.9076 25.7332C22.5872 26.5438 22.0439 27.2369 21.3465 27.7246C20.649 28.2122 19.8288 28.4725 18.9897 28.4725C18.1506 28.4725 17.3304 28.2122 16.633 27.7246C16.4686 27.6097 16.3128 27.4833 16.1665 27.3468C16.4907 28.1205 17.02 28.782 17.6927 29.2523C18.3902 29.74 19.2104 30.0003 20.0495 30.0003C20.8886 30.0003 21.7088 29.74 22.4062 29.2523C23.1037 28.7647 23.647 28.0716 23.9674 27.2609C24.2877 26.4503 24.3707 25.5584 24.2058 24.6984C24.041 23.8384 23.6356 23.0488 23.0411 22.4298L22.8645 22.2444Z" fill="#A7242D"/>
</g>
<defs>
<clipPath id="clip0_2299_2472">
<rect width="27.1429" height="23.5714" fill="white" transform="translate(6.42871 7.85742)"/>
</clipPath>
</defs>
</svg>
