<svg width="40" height="40" viewBox="0 0 40 40" fill="none" xmlns="http://www.w3.org/2000/svg">
<rect width="40" height="40" rx="20" fill="#FEFEFE"/>
<g clip-path="url(#clip0_2299_2473)">
<path d="M10.2837 33.5713H30.3948C30.5429 33.5729 30.6897 33.543 30.8249 33.4837C30.96 33.4243 31.0804 33.3369 31.1777 33.2275C31.2749 33.1181 31.3467 32.9894 31.388 32.8502C31.4293 32.711 31.4392 32.5646 31.4169 32.4213L28.744 15.3263L31.0131 9.9563C31.078 9.80417 31.1035 9.63868 31.0872 9.47461C31.0709 9.31054 31.0134 9.15298 30.9198 9.0159C30.8262 8.87882 30.6995 8.76651 30.5508 8.68894C30.4021 8.61137 30.2362 8.57095 30.0677 8.57129H10.6465C10.478 8.57095 10.3121 8.61137 10.1634 8.68894C10.0147 8.76651 9.88793 8.87882 9.79435 9.0159C9.70077 9.15298 9.64331 9.31054 9.62703 9.47461C9.61074 9.63868 9.63615 9.80417 9.70102 9.9563L11.86 15.0654C11.932 15.236 11.9551 15.4231 11.9265 15.6059L9.29724 32.4213C9.27543 32.5617 9.28446 32.7051 9.3237 32.8418C9.36293 32.9786 9.43145 33.1056 9.52477 33.2144C9.6181 33.3232 9.73407 33.4113 9.86491 33.4728C9.99576 33.5344 10.1385 33.5679 10.2837 33.5713Z" fill="#E0E0E0"/>
</g>
<path d="M25.8808 18.1427C25.8808 18.6687 25.4544 19.0951 24.9285 19.0951C24.4025 19.0951 23.9761 18.6687 23.9761 18.1427C23.9761 17.6167 24.4025 17.1903 24.9285 17.1903C25.4544 17.1903 25.8808 17.6167 25.8808 18.1427Z" fill="#EF3340"/>
<path fill-rule="evenodd" clip-rule="evenodd" d="M24.9285 20.3331C26.1383 20.3331 27.119 19.3524 27.119 18.1427C27.119 16.9329 26.1383 15.9522 24.9285 15.9522C23.7188 15.9522 22.7381 16.9329 22.7381 18.1427C22.7381 19.3524 23.7188 20.3331 24.9285 20.3331ZM24.9285 21.476C26.7695 21.476 28.2619 19.9836 28.2619 18.1427C28.2619 16.3017 26.7695 14.8093 24.9285 14.8093C23.0876 14.8093 21.5952 16.3017 21.5952 18.1427C21.5952 19.9836 23.0876 21.476 24.9285 21.476Z" fill="#EF3340"/>
<path fill-rule="evenodd" clip-rule="evenodd" d="M24.9286 22.7141C27.4534 22.7141 29.5001 20.6674 29.5001 18.1426C29.5001 15.6179 27.4534 13.5712 24.9286 13.5712C22.4039 13.5712 20.3572 15.6179 20.3572 18.1426C20.3572 20.6674 22.4039 22.7141 24.9286 22.7141ZM24.9286 23.8569C28.0846 23.8569 30.6429 21.2985 30.6429 18.1426C30.6429 14.9867 28.0846 12.4283 24.9286 12.4283C21.7727 12.4283 19.2144 14.9867 19.2144 18.1426C19.2144 21.2985 21.7727 23.8569 24.9286 23.8569Z" fill="#EF3340"/>
<path fill-rule="evenodd" clip-rule="evenodd" d="M18.4833 25.5067C18.2504 25.3584 17.9413 25.4271 17.7931 25.6601C17.6448 25.8931 17.7135 26.2021 17.9465 26.3504C18.4286 26.6572 19.2248 27.0102 20.1423 27.1451L20.1423 33.5713H21.1423L21.1423 27.1952C21.93 27.155 22.7623 26.914 23.5219 26.3232C23.7399 26.1537 23.7791 25.8395 23.6096 25.6216C23.44 25.4036 23.1259 25.3643 22.9079 25.5339C22.1364 26.1339 21.2563 26.267 20.4394 26.1754C19.6138 26.0828 18.8856 25.7627 18.4833 25.5067Z" fill="#FEFEFE"/>
<defs>
<clipPath id="clip0_2299_2473">
<rect width="22" height="25" fill="white" transform="translate(9.28564 8.57129)"/>
</clipPath>
</defs>
</svg>
