<svg width="40" height="40" viewBox="0 0 40 40" fill="none" xmlns="http://www.w3.org/2000/svg">
<g clip-path="url(#clip0_2299_2437)">
<rect width="40" height="40" rx="20" fill="#FEFEFE"/>
<g clip-path="url(#clip1_2299_2437)">
<path d="M6.42871 17.8574H33.5716V30.0717C33.5716 30.4316 33.4211 30.7768 33.1531 31.0314C32.8852 31.2859 32.5219 31.4289 32.143 31.4289H7.85728C7.4784 31.4289 7.11504 31.2859 6.84713 31.0314C6.57922 30.7768 6.42871 30.4316 6.42871 30.0717V17.8574Z" fill="#F4F4F4"/>
<path d="M33.5716 16.4288H6.42871V17.8574H33.5716V16.4288Z" fill="#D3D3D3"/>
<path d="M7.85728 11.4288H32.143C32.5219 11.4288 32.8852 11.5793 33.1531 11.8473C33.4211 12.1152 33.5716 12.4785 33.5716 12.8574V16.4288H6.42871V12.8574C6.42871 12.4785 6.57922 12.1152 6.84713 11.8473C7.11504 11.5793 7.4784 11.4288 7.85728 11.4288Z" fill="#E0E0E0"/>
<path d="M11.7861 14.286C11.1231 14.286 10.4872 14.0226 10.0184 13.5538C9.54953 13.0849 9.28613 12.449 9.28613 11.786V10.3574C9.28613 9.69438 9.54953 9.0585 10.0184 8.58966C10.4872 8.12081 11.1231 7.85742 11.7861 7.85742C12.4492 7.85742 13.0851 8.12081 13.5539 8.58966C14.0227 9.0585 14.2861 9.69438 14.2861 10.3574V11.786C14.2861 12.449 14.0227 13.0849 13.5539 13.5538C13.0851 14.0226 12.4492 14.286 11.7861 14.286Z" fill="#FEFEFE"/>
<path d="M12.8577 10.3574C12.8577 9.76571 12.378 9.28601 11.7863 9.28601C11.1945 9.28601 10.7148 9.76571 10.7148 10.3574V11.786C10.7148 12.3777 11.1945 12.8574 11.7863 12.8574C12.378 12.8574 12.8577 12.3777 12.8577 11.786V10.3574Z" fill="#00154B"/>
<path d="M28.2148 14.286C27.5518 14.286 26.9159 14.0226 26.4471 13.5538C25.9782 13.0849 25.7148 12.449 25.7148 11.786V10.3574C25.7148 9.69438 25.9782 9.0585 26.4471 8.58966C26.9159 8.12081 27.5518 7.85742 28.2148 7.85742C28.8779 7.85742 29.5138 8.12081 29.9826 8.58966C30.4515 9.0585 30.7148 9.69438 30.7148 10.3574V11.786C30.7148 12.449 30.4515 13.0849 29.9826 13.5538C29.5138 14.0226 28.8779 14.286 28.2148 14.286Z" fill="#FEFEFE"/>
<path d="M29.2864 10.3574C29.2864 9.76571 28.8067 9.28601 28.215 9.28601C27.6232 9.28601 27.1436 9.76571 27.1436 10.3574V11.786C27.1436 12.3777 27.6232 12.8574 28.215 12.8574C28.8067 12.8574 29.2864 12.3777 29.2864 11.786V10.3574Z" fill="#00154B"/>
<path d="M10.7148 21.5029V26.8645H11.9442V23.5172H11.9886L13.292 26.8349H14.0918L15.3952 23.532H15.4396V26.8645H16.6689V21.5029H15.1064L13.7215 24.8798H13.6623L12.2774 21.5029H10.7148Z" fill="#00154B"/>
<path d="M23.0536 24.1837C23.0573 22.4138 21.9428 21.4288 20.5061 21.4288C19.062 21.4288 17.9586 22.4138 17.9586 24.1837C17.9586 25.9425 19.062 26.9386 20.5061 26.9386C21.9428 26.9386 23.0573 25.9499 23.0536 24.1837ZM19.2472 24.1837C19.2472 23.1173 19.7248 22.536 20.5061 22.5397C21.2911 22.536 21.7688 23.1173 21.7651 24.1837C21.7688 25.2501 21.2911 25.8278 20.5061 25.8278C19.7248 25.8278 19.2472 25.2501 19.2472 24.1837Z" fill="#00154B"/>
<path d="M28.8903 21.5029H27.6313V24.6503H27.5869L25.4319 21.5029H24.3433V26.8645H25.6022V23.7172H25.6392L27.8165 26.8645H28.8903V21.5029Z" fill="#00154B"/>
</g>
</g>
<defs>
<clipPath id="clip0_2299_2437">
<rect width="40" height="40" rx="20" fill="white"/>
</clipPath>
<clipPath id="clip1_2299_2437">
<rect width="27.1429" height="23.5714" fill="white" transform="translate(6.42871 7.85742)"/>
</clipPath>
</defs>
</svg>
