<svg width="40" height="40" viewBox="0 0 40 40" fill="none" xmlns="http://www.w3.org/2000/svg">
<rect width="40" height="40" rx="20" fill="#FEFEFE"/>
<path d="M12.0932 27.7402C11.0403 27.9114 8.88479 27.6975 8.20184 26.8987L7.67541 26.2782C7.18454 25.7005 7.02092 24.9302 7.23434 24.2098L10.955 11.6073C11.1328 10.9939 11.6023 10.5018 12.2284 10.2736L15.387 9.12532C15.5577 9.06113 15.6858 8.92562 15.7284 8.76158L16.1126 7.29236H23.5396L24.0518 9.2537C24.0518 9.2537 21.2987 11.7428 24.4431 15.7511L22.757 31.6986L12.2639 31.5132C12.0292 31.5132 11.83 31.3063 11.8513 31.0781L12.0861 27.7402H12.0932Z" fill="#E0E0E0"/>
<path d="M18.5958 35.7069C17.9556 35.7069 17.3509 35.3646 17.0308 34.8154L15.736 32.6187C15.2523 31.7771 15.5084 30.7215 16.3265 30.2009L21.7758 26.7561C21.79 25.0443 21.8327 21.0432 21.9679 19.7238C22.0817 18.6325 22.5654 16.8495 22.8571 15.8439C20.7016 12.9411 21.6691 10.3664 22.3165 9.21809C22.3378 9.16817 22.3663 9.11824 22.3947 9.06832C22.8358 8.32658 23.6539 7.87012 24.536 7.87012C24.6712 7.87012 24.8063 7.87725 24.9415 7.90578C30.8034 8.84009 31.5077 13.8326 31.4224 18.5969C31.3512 22.3413 30.7536 26.5992 30.2628 29.5091C30.0849 30.5789 29.3664 31.4633 28.342 31.877L19.293 35.5785C19.0867 35.6641 18.8448 35.7141 18.5958 35.7141V35.7069Z" fill="#FEFEFE"/>
<path d="M23.6458 9.79563C23.0411 10.7941 22.2017 12.998 24.4568 15.5228C24.4568 15.5228 23.5462 18.4683 23.404 19.8662C23.2332 21.4781 23.219 27.5476 23.219 27.5476L17.1152 31.4061C16.9445 31.513 16.8947 31.727 16.9943 31.8982L18.2819 34.0878C18.3815 34.2518 18.5878 34.316 18.7585 34.2447L27.8146 30.5431C28.3695 30.322 28.7608 29.837 28.8604 29.2593C29.3726 26.2495 29.9346 22.1343 29.9986 18.5611C30.1053 12.3347 28.5047 9.90975 24.7343 9.30351C24.3003 9.23219 23.8806 9.42476 23.6601 9.7885L23.6458 9.79563Z" fill="#FF6B00"/>
<path d="M11.9797 22.1486C16.5966 21.2428 20.6587 22.8262 20.6587 22.8262L21.4626 22.3198C21.9535 22.0131 22.5297 21.8705 23.113 21.9061L26.8692 22.1415C27.602 22.1415 28.1426 22.8119 27.9577 23.5037L27.3103 25.9001C27.0897 26.7203 26.3214 27.2909 25.4393 27.2909H22.7502C22.3447 27.2909 21.7258 27.134 21.3772 26.9414C20.7298 26.5848 19.9758 26.4565 19.2359 26.5777L11.0193 27.9114C9.96639 28.0826 8.89218 27.6903 8.20924 26.8986L7.71126 26.3209C7.19906 25.7147 7.02121 24.9088 7.24885 24.1599L10.9268 11.7C11.126 11.0296 11.6382 10.4947 12.314 10.2451L14.9462 9.28936C15.3872 9.12532 15.7287 8.76871 15.8497 8.31938L16.1271 7.14258" fill="#E0E0E0"/>
<path fill-rule="evenodd" clip-rule="evenodd" d="M13.2462 16.9206C13.3885 16.9277 13.4881 17.049 13.481 17.1916L13.1324 21.9274C13.1253 22.0629 13.0043 22.1699 12.8621 22.1556C12.7269 22.1485 12.6202 22.0272 12.6273 21.8846L12.9759 17.1488C12.983 17.0133 13.1039 16.9063 13.2462 16.9206Z" fill="#FEFEFE"/>
<path d="M11.9797 22.1486C16.5966 21.2428 20.6587 22.8262 20.6587 22.8262L21.4626 22.3198C21.9535 22.0131 22.5297 21.8705 23.113 21.9061L26.8692 22.1415C27.602 22.1415 28.1426 22.8119 27.9577 23.5037L27.3103 25.9001C27.0897 26.7203 26.3214 27.2909 25.4393 27.2909H22.7502C22.3447 27.2909 21.7258 27.134 21.3772 26.9414C20.7298 26.5848 19.9758 26.4565 19.2359 26.5777L11.0193 27.9114C9.96639 28.0826 8.89218 27.6903 8.20924 26.8986L7.71126 26.3209C7.19906 25.7147 7.02121 24.9088 7.24885 24.1599L10.9268 11.7C11.126 11.0296 11.6382 10.4947 12.314 10.2451L14.9462 9.28936C15.3872 9.12532 15.7287 8.76871 15.8497 8.31938L16.1271 7.14258" stroke="#FEFEFE" stroke-width="0.6" stroke-linecap="round" stroke-linejoin="round"/>
<path d="M30.8355 16.4284C30.8355 16.8855 30.4641 17.2641 29.9998 17.2641C29.5355 17.2641 29.1641 16.8927 29.1641 16.4284C29.1641 15.9641 29.5355 15.5927 29.9998 15.5927C30.4641 15.5927 30.8355 15.9641 30.8355 16.4284Z" fill="#B34B00"/>
<path fill-rule="evenodd" clip-rule="evenodd" d="M30.0002 18.314C31.0431 18.314 31.8859 17.4712 31.8859 16.4283C31.8859 15.3855 31.0431 14.5426 30.0002 14.5426C28.9574 14.5426 28.1145 15.3855 28.1145 16.4283C28.1145 17.4712 28.9574 18.314 30.0002 18.314ZM30.0002 19.3426C31.6145 19.3426 32.9145 18.0355 32.9145 16.4283C32.9145 14.8212 31.6074 13.514 30.0002 13.514C28.3931 13.514 27.0859 14.8212 27.0859 16.4283C27.0859 18.0355 28.3931 19.3426 30.0002 19.3426Z" fill="#B34B00"/>
<path fill-rule="evenodd" clip-rule="evenodd" d="M30 20.3998C32.1929 20.3998 33.9714 18.6212 33.9714 16.4283C33.9714 14.2355 32.1929 12.4569 30 12.4569C27.8071 12.4569 26.0286 14.2355 26.0286 16.4283C26.0286 18.6212 27.8071 20.3998 30 20.3998ZM30 21.4283C32.7643 21.4283 35 19.1926 35 16.4283C35 13.6641 32.7643 11.4283 30 11.4283C27.2357 11.4283 25 13.6641 25 16.4283C25 19.1926 27.2357 21.4283 30 21.4283Z" fill="#B34B00"/>
</svg>
