<svg width="40" height="40" viewBox="0 0 40 40" fill="none" xmlns="http://www.w3.org/2000/svg">
<rect width="40" height="40" rx="20" fill="#FEFEFE"/>
<path d="M31.3785 33.0362C31.3432 32.9637 31.3009 32.9057 31.2375 32.855C31.1811 32.8042 31.1106 32.768 31.033 32.739C30.9554 32.7173 30.8779 32.71 30.8003 32.7173H28.932C28.8333 32.7173 28.7416 32.6955 28.65 32.6593L24.4903 30.9197C24.3775 30.8762 24.2788 30.7965 24.2153 30.695C24.1519 30.5936 24.1237 30.4703 24.1378 30.3544L26.7605 11.2845L20.7536 16.9961L20.1191 29.6078C20.105 29.7238 20.0556 29.8325 19.971 29.9122L17.306 32.5868C17.2073 32.681 17.1579 32.8042 17.1509 32.9347V33.2536C17.165 33.4058 17.2355 33.5508 17.3553 33.6523C17.4752 33.7537 17.6303 33.8045 17.7925 33.7972H30.8003C30.8779 33.8045 30.9625 33.7972 31.033 33.7755C31.1106 33.7537 31.1811 33.7103 31.2375 33.6595C31.2939 33.6088 31.3432 33.5435 31.3785 33.4783C31.4137 33.4058 31.4278 33.3333 31.4278 33.2536C31.4278 33.1739 31.4137 33.1014 31.3785 33.0289V33.0362Z" fill="#E0E0E0"/>
<path d="M13.6616 35C13.3232 35 12.9989 34.9203 12.7098 34.7753C12.4067 34.6231 12.1388 34.3912 11.9414 34.094L8.87445 29.2377C8.68409 28.9551 8.57834 28.5927 8.57129 28.2158C8.57129 28.2158 8.57129 27.2083 8.57129 27.1793C8.59244 26.7299 8.77575 26.2878 9.07186 25.9471C9.35388 25.6282 9.73459 25.4107 10.1435 25.3237L10.9896 25.1136C12.2375 22.0766 15.819 13.9442 19.4641 10.6898L17.8989 7.94274C17.5534 7.32665 17.5605 6.60908 17.8989 6.01474C18.2585 5.38415 18.9494 5 19.6967 5H25.8799C26.2888 5 26.6695 5.10872 26.9938 5.31892C27.3463 5.53636 27.6213 5.86253 27.7905 6.25393L29.4544 10.7768C29.5672 11.0812 29.6024 11.4291 29.546 11.7625C29.4896 12.0887 29.3486 12.4003 29.1442 12.6613L17.074 27.9476L17.8989 31.0353C17.8989 31.0353 19.041 31.0353 19.0481 31.0353C19.5275 31.0353 19.9928 31.2092 20.3595 31.5137C20.7684 31.8616 21.0292 32.3762 21.0645 32.9125C21.0645 32.9778 21.0645 33.0503 21.0645 33.1155C21.0292 33.6518 20.7684 34.1665 20.3595 34.5144C19.9928 34.826 19.5275 34.9928 19.0481 34.9928C19.034 34.9928 13.6546 34.9928 13.6546 34.9928L13.6616 35Z" fill="#FEFEFE"/>
<path d="M19.7037 6.45671H25.8869C26.0138 6.45671 26.1407 6.4857 26.2464 6.55094C26.3522 6.61617 26.4368 6.71764 26.4861 6.82637L28.1218 11.2767C28.15 11.3492 28.1571 11.4362 28.143 11.5159C28.1289 11.5956 28.0936 11.6681 28.0443 11.7333L15.6498 27.4255C15.6004 27.4835 15.5722 27.5488 15.5511 27.6212C15.537 27.6937 15.537 27.7662 15.5511 27.8387L16.6791 32.0788C16.7214 32.2021 16.799 32.3108 16.9118 32.3833C17.0246 32.4557 17.1515 32.492 17.2854 32.492H18.9987C19.1538 32.4847 19.3089 32.5355 19.4217 32.6297C19.5415 32.7312 19.6121 32.8689 19.6191 33.0211C19.605 33.1733 19.5345 33.311 19.4217 33.4125C19.3018 33.514 19.1538 33.5647 18.9987 33.5502H13.6616C13.5558 33.5502 13.443 33.5285 13.3514 33.4777C13.2526 33.427 13.1751 33.3545 13.1116 33.2675L10.08 28.4548C10.0306 28.3823 10.0024 28.2953 10.0024 28.2011V27.2516C10.0024 27.1284 10.0588 27.0124 10.1434 26.9182C10.2281 26.8239 10.3409 26.7587 10.4607 26.737L11.7227 26.4253C11.8144 26.4036 11.906 26.3673 11.9765 26.3093C12.047 26.2513 12.1105 26.1716 12.1457 26.0919C12.8649 24.3233 17.1092 14.118 20.9587 11.3419C21.0644 11.2767 21.142 11.168 21.1702 11.052C21.1984 10.9361 21.1843 10.8056 21.1279 10.6969L19.1397 7.21052C18.9423 6.85536 19.2454 6.44946 19.7037 6.44946V6.45671Z" fill="#FF6B00"/>
<path fill-rule="evenodd" clip-rule="evenodd" d="M18.1763 10.0888C18.4346 10.2379 18.5276 10.5509 18.3863 10.7956C18.0747 11.3352 17.4952 11.3603 17.2036 11.376C17.1867 11.3747 17.1765 11.3771 17.1596 11.3758C16.7969 11.3922 16.7788 11.4236 16.7571 11.4613C16.7353 11.4989 16.7172 11.5303 16.8843 11.8526C16.8909 11.8564 16.8969 11.8766 16.9065 11.8906C17.0424 12.1447 17.3068 12.6654 16.9952 13.205C16.6837 13.7446 16.1041 13.7697 15.8125 13.7854C15.7956 13.7841 15.7854 13.7865 15.7685 13.7852C15.4059 13.8016 15.3877 13.833 15.366 13.8707C15.3443 13.9083 15.3262 13.9397 15.4932 14.262C15.4998 14.2658 15.5058 14.286 15.5155 14.3C15.6513 14.5541 15.9157 15.0748 15.6041 15.6144C15.2926 16.154 14.713 16.1791 14.4214 16.1948C14.4046 16.1935 14.3943 16.1959 14.3775 16.1946C14.0148 16.211 13.9967 16.2424 13.9749 16.2801C13.9532 16.3177 13.9351 16.3491 14.1022 16.6714C14.1088 16.6752 14.1148 16.6954 14.1244 16.7094C14.2602 16.9635 14.5246 17.4842 14.2131 18.0238C13.9015 18.5634 13.3183 18.5948 13.0304 18.6042C13.0135 18.6029 13.0033 18.6053 12.993 18.6078C12.6303 18.6243 12.6122 18.6556 12.5905 18.6933C12.5688 18.7309 12.5506 18.7623 12.7177 19.0846C12.7243 19.0885 12.7303 19.1087 12.7399 19.1226C12.8758 19.3767 13.1402 19.8974 12.8286 20.437C12.6874 20.6817 12.3698 20.7577 12.1115 20.6086C11.8533 20.4595 11.7603 20.1465 11.9016 19.9018C11.9233 19.8642 11.9414 19.8328 11.7744 19.5104C11.7714 19.5004 11.7617 19.4864 11.7521 19.4725C11.6163 19.2184 11.3519 18.6976 11.6634 18.158C11.975 17.6184 12.5545 17.5933 12.8461 17.5776C12.863 17.579 12.8732 17.5765 12.8901 17.5779C13.2528 17.5614 13.2709 17.53 13.2926 17.4924C13.3144 17.4548 13.3325 17.4234 13.1654 17.101C13.1588 17.0972 13.1528 17.077 13.1432 17.0631C13.0074 16.809 12.743 16.2882 13.0545 15.7486C13.366 15.209 13.9456 15.1839 14.2372 15.1682C14.2541 15.1696 14.2643 15.1671 14.2812 15.1685C14.6439 15.152 14.662 15.1207 14.6837 15.083C14.7054 15.0454 14.7236 15.014 14.5565 14.6916C14.5499 14.6878 14.5439 14.6676 14.5343 14.6537C14.3984 14.3996 14.134 13.8789 14.4456 13.3392C14.7571 12.7996 15.3367 12.7745 15.6283 12.7588C15.6451 12.7602 15.6554 12.7577 15.6722 12.7591C16.0349 12.7426 16.053 12.7113 16.0748 12.6736C16.0965 12.636 16.1146 12.6046 15.9476 12.2823C15.9409 12.2784 15.9349 12.2582 15.9253 12.2443C15.7895 11.9902 15.5251 11.4695 15.8366 10.9298C16.1482 10.3902 16.7314 10.3588 17.0193 10.3494C17.0362 10.3508 17.0465 10.3483 17.0567 10.3459C17.4194 10.3294 17.4375 10.298 17.4592 10.2604C17.6005 10.0157 17.9181 9.93969 18.1763 10.0888Z" fill="#B34B00"/>
</svg>
