<svg width="40" height="40" viewBox="0 0 40 40" fill="none" xmlns="http://www.w3.org/2000/svg">
<rect width="40" height="40" rx="20" fill="#FEFEFE"/>
<path d="M21.128 5.71387C26.5337 5.71387 30.9111 10.7139 30.9111 16.8496C30.9111 20.571 28.8188 24.3639 26.8408 25.8853C26.3624 26.271 26.6194 30.9782 26.7622 33.1782C26.7724 33.3187 26.7529 33.4599 26.7051 33.5924C26.6618 33.7268 26.5913 33.8508 26.498 33.9567C26.4085 34.0582 26.2987 34.1399 26.1757 34.1965C26.0527 34.2531 25.9193 34.2833 25.7839 34.2853H16.5864C16.4683 34.2864 16.3514 34.262 16.2436 34.2139C16.1316 34.1642 16.0298 34.094 15.9437 34.0067C15.8528 33.9123 15.7824 33.8002 15.7369 33.6772C15.6915 33.5543 15.6719 33.4233 15.6795 33.2924V30.5853C15.6803 30.5204 15.6681 30.4559 15.6435 30.3958C15.619 30.3357 15.5827 30.2811 15.5367 30.2353C15.4942 30.1884 15.4424 30.1509 15.3846 30.1251C15.3268 30.0992 15.2643 30.0857 15.2011 30.0853H12.8446C12.4826 30.0844 12.1247 30.0091 11.793 29.8641C11.4614 29.7191 11.163 29.5075 10.9165 29.2424C10.3962 28.6956 10.1071 27.9688 10.1096 27.2139V24.4567C10.1106 24.3594 10.0806 24.2643 10.0239 24.1853C9.9676 24.1071 9.88738 24.0495 9.79537 24.021C9.08316 23.8255 8.40605 23.5194 7.78877 23.1139C7.60031 22.9888 7.46141 22.8019 7.39602 22.5853C7.32093 22.3653 7.32093 22.1267 7.39602 21.9067L9.63827 16.4282C9.66896 16.3479 9.68819 16.2638 9.6954 16.1782C9.84629 13.3766 11.0292 10.7301 13.0159 8.74958C14.9477 6.8194 17.5622 5.72867 20.2926 5.71387" fill="#E0E0E0"/>
<path fill-rule="evenodd" clip-rule="evenodd" d="M10.2729 12.3732C9.03272 12.9441 8.07235 13.4981 7.44758 13.9946C7.128 14.2486 6.92004 14.4691 6.80386 14.6478C6.68752 14.8268 6.69708 14.9084 6.70059 14.9257C6.70399 14.9424 6.7248 15.0143 6.8805 15.1163C7.03728 15.2191 7.28524 15.3203 7.64045 15.4039C8.34823 15.5703 9.37015 15.6415 10.6481 15.6052C12.4035 15.5553 14.5926 15.3042 17.0162 14.8556C14.6435 14.1994 12.5456 13.4469 10.9064 12.6813C10.6877 12.5792 10.4764 12.4764 10.2729 12.3732ZM21.6651 14.8834C25.0526 14.0098 28.0557 12.9557 30.2478 11.9179C31.4506 11.3485 32.4334 10.7728 33.1032 10.2196C33.4371 9.94387 33.7163 9.65502 33.9026 9.35406C34.0896 9.05198 34.2109 8.68903 34.1328 8.30485C34.0565 7.92965 33.8153 7.66007 33.5375 7.47305C33.2612 7.28713 32.9087 7.15387 32.5144 7.05675C31.7235 6.86194 30.6523 6.78625 29.3916 6.81291C29.12 6.81865 28.9012 7.05617 28.9029 7.34341C28.9046 7.63066 29.1262 7.85886 29.3978 7.85311C30.6252 7.82716 31.6031 7.90376 32.2789 8.07023C32.618 8.15374 32.8533 8.25336 33.0015 8.35307C33.148 8.45169 33.1678 8.5205 33.1711 8.53695C33.1745 8.55366 33.1836 8.62843 33.082 8.79256C32.9797 8.95781 32.7942 9.16368 32.5046 9.40284C31.9276 9.87939 31.0289 10.4142 29.8564 10.9692C27.519 12.0758 24.1889 13.2188 20.4232 14.1277C20.0562 14.2163 19.6922 14.3009 19.3316 14.3816C16.1392 13.6279 13.3327 12.6828 11.2954 11.7313C10.1453 11.1941 9.26549 10.6664 8.70113 10.1864C8.41848 9.94601 8.23634 9.73543 8.13481 9.5622C8.03513 9.39215 8.03255 9.29387 8.04163 9.24371C8.05053 9.19454 8.08568 9.10785 8.2287 8.99529C8.3748 8.8803 8.60453 8.76282 8.93409 8.6577C9.59241 8.4477 10.5473 8.31836 11.7492 8.28663C12.0208 8.27946 12.2329 8.04099 12.2229 7.754C12.2128 7.467 11.9845 7.24016 11.7129 7.24733C10.4735 7.28005 9.41869 7.41353 8.63928 7.66215C8.24997 7.78634 7.90382 7.9471 7.63459 8.15899C7.36228 8.37331 7.14262 8.66212 7.0748 9.03675C7.00535 9.42039 7.11454 9.78598 7.29965 10.1018C7.48289 10.4144 7.75855 10.7117 8.0894 10.9931C8.39032 11.249 8.75464 11.5066 9.17362 11.7633C8.22575 12.2356 7.43902 12.7087 6.86374 13.1659C6.50097 13.4542 6.19836 13.7549 5.99586 14.0664C5.79352 14.3778 5.65719 14.7558 5.73894 15.1578C5.81706 15.542 6.06775 15.8151 6.35433 16.0029C6.63985 16.19 7.00498 16.3233 7.41448 16.4196C8.23612 16.6129 9.3501 16.6825 10.6611 16.6452C12.9888 16.579 16.0202 16.1727 19.3272 15.4428C19.6696 15.5224 20.016 15.5997 20.3659 15.6747C24.1095 16.476 27.5773 16.8511 30.1629 16.8035C31.4516 16.7797 32.5485 16.6507 33.3581 16.4023C33.7624 16.2782 34.1211 16.1168 34.3996 15.903C34.681 15.687 34.9095 15.3937 34.9789 15.0101C35.0969 14.3582 34.7108 13.7689 34.2411 13.3062C33.7469 12.8195 33.0207 12.3316 32.1325 11.8567C31.8889 11.7264 31.5937 11.8282 31.4733 12.0841C31.3528 12.3399 31.4527 12.6529 31.6964 12.7831C32.5483 13.2386 33.1796 13.6738 33.5744 14.0627C33.9938 14.4756 34.0281 14.7145 34.0121 14.8031C34.003 14.8533 33.9664 14.9431 33.8149 15.0594C33.6605 15.1779 33.4186 15.2977 33.0732 15.4036C32.3837 15.6152 31.3856 15.7409 30.134 15.764C27.8922 15.8053 24.9247 15.5163 21.6651 14.8834Z" fill="#EF3340"/>
<g clip-path="url(#clip0_2299_2474)">
<path d="M26.768 32.4139C25.8823 32.4139 25.0251 32.1425 24.2894 31.6353C23.5608 31.1353 23.0037 30.4282 22.668 29.5925C22.3394 28.7639 22.2537 27.871 22.4251 26.9925C22.5965 26.1139 23.0108 25.3139 23.6251 24.6782L25.6108 22.6353C25.9108 22.321 26.3394 22.1425 26.7751 22.1425C27.2108 22.1425 27.6394 22.321 27.9465 22.6425L29.9108 24.6853C30.5251 25.3139 30.9394 26.1139 31.1108 26.9925C31.2823 27.8639 31.1965 28.7639 30.868 29.5925C30.5394 30.4282 29.9751 31.1282 29.2465 31.6353C28.5108 32.1425 27.6537 32.4139 26.768 32.4139Z" fill="#FEFEFE"/>
<path d="M28.8828 25.671C29.3042 26.1067 29.5899 26.6567 29.7042 27.2639C29.8185 27.8639 29.7614 28.4924 29.5328 29.0639C29.3042 29.6353 28.9185 30.121 28.4256 30.4639C27.9328 30.8067 27.3542 30.9853 26.7542 30.9853C26.1542 30.9853 25.5828 30.7996 25.0828 30.4639C24.5899 30.121 24.2042 29.6353 23.9756 29.0639C23.7471 28.4924 23.6899 27.871 23.8042 27.2639C23.9185 26.6639 24.2042 26.1067 24.6256 25.671L26.6114 23.6281C26.6899 23.5496 26.8185 23.5496 26.8971 23.6281L28.8614 25.671H28.8828Z" fill="#EF3340"/>
<path d="M28.7186 25.4854C28.8043 25.6925 28.8757 25.9139 28.9186 26.1425C29.0328 26.7496 28.9757 27.3854 28.7543 27.9568C28.5328 28.5282 28.1471 29.0211 27.6614 29.3711C27.1686 29.7139 26.5971 29.8996 26.0043 29.8996C25.4114 29.8996 24.84 29.7139 24.3471 29.3711C24.2328 29.2925 24.1257 29.1996 24.0186 29.0996C24.2471 29.6496 24.6186 30.1139 25.09 30.4496C25.5828 30.7925 26.1543 30.9782 26.7471 30.9782C27.34 30.9782 27.9114 30.7925 28.4043 30.4496C28.8971 30.1068 29.2757 29.6139 29.4971 29.0354C29.7186 28.4639 29.7828 27.8282 29.6614 27.2211C29.5471 26.6139 29.2614 26.0496 28.8471 25.6139L28.7257 25.4854H28.7186Z" fill="#A7242D"/>
</g>
<defs>
<clipPath id="clip0_2299_2474">
<rect width="8.85714" height="10.2714" fill="white" transform="translate(22.3398 22.1425)"/>
</clipPath>
</defs>
</svg>
