<svg width="40" height="40" viewBox="0 0 40 40" fill="none" xmlns="http://www.w3.org/2000/svg">
<rect width="40" height="40" rx="20" fill="#FEFEFE"/>
<path d="M20.0001 33.5716C27.4954 33.5716 33.5716 27.4954 33.5716 20.0001C33.5716 12.5048 27.4954 6.42871 20.0001 6.42871C12.5048 6.42871 6.42871 12.5048 6.42871 20.0001C6.42871 27.4954 12.5048 33.5716 20.0001 33.5716Z" fill="#FFC847"/>
<path fill-rule="evenodd" clip-rule="evenodd" d="M14.6806 15.7898C15.0335 15.6134 15.4625 15.7564 15.639 16.1092C15.6384 16.1081 15.6387 16.1086 15.6402 16.1106C15.6493 16.1235 15.7015 16.1968 15.8196 16.2715C15.9432 16.3498 16.1386 16.4287 16.4287 16.4287C16.7187 16.4287 16.9141 16.3498 17.0377 16.2715C17.1558 16.1968 17.208 16.1235 17.2171 16.1106C17.2186 16.1086 17.2189 16.1081 17.2184 16.1092C17.3948 15.7564 17.8238 15.6134 18.1767 15.7898C18.5295 15.9662 18.6725 16.3953 18.4961 16.7481C18.2615 17.2174 17.5682 17.8572 16.4287 17.8572C15.2891 17.8572 14.5959 17.2174 14.3612 16.7481C14.1848 16.3953 14.3278 15.9662 14.6806 15.7898Z" fill="#33280E"/>
<path fill-rule="evenodd" clip-rule="evenodd" d="M21.8237 15.7898C22.1766 15.6134 22.6056 15.7564 22.782 16.1092C22.7814 16.1081 22.7818 16.1086 22.7833 16.1106C22.7924 16.1235 22.8446 16.1968 22.9627 16.2715C23.0863 16.3498 23.2817 16.4287 23.5717 16.4287C23.8618 16.4287 24.0572 16.3498 24.1808 16.2715C24.2989 16.1968 24.351 16.1235 24.3602 16.1106C24.3616 16.1086 24.362 16.1081 24.3614 16.1092C24.5378 15.7564 24.9669 15.6134 25.3197 15.7898C25.6726 15.9662 25.8156 16.3953 25.6392 16.7481C25.4045 17.2174 24.7113 17.8572 23.5717 17.8572C22.4322 17.8572 21.7389 17.2174 21.5043 16.7481C21.3279 16.3953 21.4709 15.9662 21.8237 15.7898Z" fill="#33280E"/>
<path fill-rule="evenodd" clip-rule="evenodd" d="M17.0546 24.6301L17.0532 24.6327C16.8616 24.9776 16.4267 25.1018 16.0819 24.9103C15.737 24.7187 15.6128 24.2838 15.8044 23.939C16.1262 23.3597 17.2024 21.4287 20.0002 21.4287C22.798 21.4287 23.8742 23.3597 24.196 23.939C24.3876 24.2838 24.2634 24.7187 23.9185 24.9103C23.5737 25.1018 23.1388 24.9776 22.9472 24.6327L22.9458 24.6301C22.6713 24.1361 21.9609 22.8573 20.0002 22.8573C18.0395 22.8573 17.3291 24.1361 17.0546 24.6301Z" fill="#33280E"/>
<path d="M26.9716 35.7359C25.6931 35.7359 24.4431 35.2073 23.5502 34.293C22.6431 33.3716 22.1431 32.1502 22.1431 30.843C22.1431 30.3573 22.1431 28.8788 25.4002 20.8002C25.5288 20.4788 25.7431 20.2216 26.0216 20.0288C26.2931 19.843 26.6216 19.743 26.9574 19.743C27.2931 19.743 27.6216 19.843 27.9074 20.0359C28.1788 20.2216 28.3931 20.4788 28.5145 20.7859C29.5002 23.1859 31.8002 28.9645 31.8002 30.843C31.8002 32.143 31.3002 33.3716 30.3931 34.293C29.4931 35.2073 28.2431 35.7359 26.9716 35.7359Z" fill="#FEFEFE"/>
<path d="M30.3787 30.8501C30.3787 31.7644 30.0216 32.6501 29.3787 33.293C28.743 33.943 27.8787 34.3073 26.9716 34.3073C26.0645 34.3073 25.2073 33.943 24.5645 33.293C23.9287 32.643 23.5645 31.7644 23.5645 30.8501C23.5645 29.2501 25.9573 23.2359 26.7216 21.3359C26.743 21.2859 26.7716 21.2501 26.8145 21.2216C26.8573 21.193 26.9073 21.1787 26.9573 21.1787C27.0073 21.1787 27.0573 21.193 27.1002 21.2216C27.143 21.2501 27.1716 21.293 27.193 21.3359C27.9787 23.2501 30.3716 29.2573 30.3716 30.8501H30.3787Z" fill="#BED8FF"/>
<path d="M30.3787 30.8501C30.3787 31.7644 30.0216 32.6501 29.3787 33.293C28.743 33.943 27.8787 34.3073 26.9716 34.3073C26.0645 34.3073 25.2073 33.943 24.5645 33.293C23.9287 32.643 23.5645 31.7644 23.5645 30.8501C23.5645 29.2501 25.9573 23.2359 26.7216 21.3359C26.743 21.2859 26.7716 21.2501 26.8145 21.2216C26.8573 21.193 26.9073 21.1787 26.9573 21.1787C27.0073 21.1787 27.0573 21.193 27.1002 21.2216C27.143 21.2501 27.1716 21.293 27.193 21.3359C27.9787 23.2501 30.3716 29.2573 30.3716 30.8501H30.3787Z" fill="#BED8FF"/>
<path d="M30.3787 30.8501C30.3787 31.7644 30.0216 32.6501 29.3787 33.293C28.743 33.943 27.8787 34.3073 26.9716 34.3073C26.0645 34.3073 25.2073 33.943 24.5645 33.293C23.9287 32.643 23.5645 31.7644 23.5645 30.8501C23.5645 29.2501 25.9573 23.2359 26.7216 21.3359C26.743 21.2859 26.7716 21.2501 26.8145 21.2216C26.8573 21.193 26.9073 21.1787 26.9573 21.1787C27.0073 21.1787 27.0573 21.193 27.1002 21.2216C27.143 21.2501 27.1716 21.293 27.193 21.3359C27.9787 23.2501 30.3716 29.2573 30.3716 30.8501H30.3787Z" fill="#BED8FF"/>
<path d="M29.9857 28.943C29.8143 31.1073 27.5786 32.8358 24.8357 32.8358C24.6143 32.8358 24.4072 32.8359 24.1929 32.8001C24.6072 33.4001 25.2 33.8501 25.8786 34.0858C26.5572 34.3216 27.3 34.3359 27.9857 34.1144C28.6714 33.9001 29.2786 33.4644 29.7072 32.8787C30.1357 32.293 30.3714 31.5787 30.3786 30.8501C30.3214 30.2001 30.1929 29.5644 29.9857 28.943Z" fill="#93BEFF"/>
</svg>
