<svg width="40" height="40" viewBox="0 0 40 40" fill="none" xmlns="http://www.w3.org/2000/svg">
<rect width="40" height="40" rx="20" fill="#FEFEFE"/>
<path d="M19.6461 12.7751C10.6823 12.7751 7.65137 18.8877 7.65137 18.8877C7.65137 18.8877 10.6823 25.0002 19.6461 25.0002C29.262 25.0002 31.6409 18.5493 31.6409 18.5493C31.6409 18.5493 29.262 12.7751 19.6461 12.7751Z" fill="#E5EBF8"/>
<path d="M31.6481 18.3403C31.6481 18.3403 29.2764 12.2278 19.6676 12.2278C10.6895 12.2422 7.65137 18.3403 7.65137 18.3403C7.65137 18.3403 19.1876 9.26873 31.6481 18.3403Z" fill="#B2C2EB"/>
<path d="M19.6451 23.5314C22.5829 23.5314 24.969 21.1267 24.969 18.1533C24.969 15.1798 22.5829 12.7751 19.6451 12.7751C16.7073 12.7751 14.3213 15.1798 14.3213 18.1533C14.3213 21.1267 16.7073 23.5314 19.6451 23.5314Z" fill="#000D2F"/>
<path d="M19.725 20.1979C20.8357 20.1979 21.7313 19.298 21.7313 18.182C21.7313 17.0661 20.8357 16.1661 19.725 16.1661C18.6144 16.1661 17.7188 17.0661 17.7188 18.182C17.7188 19.298 18.6144 20.1979 19.725 20.1979Z" fill="#FEFEFE"/>
<path fill-rule="evenodd" clip-rule="evenodd" d="M9.7221 15.0429C11.6209 13.2214 14.7378 11.4287 19.6461 11.4287C24.2749 11.4287 27.3847 13.0342 29.3408 14.6542C30.3153 15.4605 30.996 16.2741 31.4403 16.886C31.6624 17.1956 31.82 17.4476 31.9275 17.6348C31.9777 17.7284 32.0206 17.8004 32.0493 17.8508C32.0636 17.8796 32.0708 17.894 32.078 17.9084V17.9228H32.0923C32.0923 17.9228 31.9418 17.9972 31.6409 18.146L32.0923 17.93C32.2141 18.182 32.1066 18.4844 31.8558 18.5996C31.6051 18.722 31.3041 18.614 31.1895 18.362V18.3548C31.1895 18.3476 31.1751 18.3332 31.168 18.3116C31.1465 18.2684 31.1106 18.2108 31.0677 18.1316C30.9745 17.9732 30.8312 17.7428 30.6306 17.4692C30.2293 16.9148 29.6059 16.1661 28.7031 15.4245C26.9118 13.9342 24.0241 12.4295 19.6461 12.4295C15.0173 12.4295 12.1368 14.107 10.4171 15.7629C9.55013 16.5909 8.97691 17.426 8.61147 18.0452C8.43234 18.3548 8.30336 18.614 8.22454 18.7868C8.18155 18.8732 8.16006 18.9451 8.13856 18.9883C8.1314 19.0099 8.12423 19.0243 8.12423 19.0315C8.05974 19.2331 7.87344 19.3843 7.64415 19.3843C7.3647 19.3843 7.14258 19.1611 7.14258 18.8804C7.14258 18.8372 7.14974 18.7868 7.15691 18.7652C7.15691 18.758 7.15691 18.7436 7.15691 18.7436C7.15691 18.7364 7.15691 18.7292 7.15691 18.7292V18.7148C7.15691 18.7076 7.15691 18.7004 7.16407 18.6932C7.16407 18.6716 7.17841 18.65 7.19274 18.6212C7.21423 18.5636 7.25006 18.4772 7.29305 18.3764C7.3862 18.1676 7.52951 17.8796 7.72297 17.5412C8.12423 16.8572 8.75478 15.9501 9.70061 15.0429H9.7221Z" fill="#262626"/>
<path d="M31.9137 29.8432C31.9137 29.8432 31.9137 29.8289 31.9137 29.8217C31.9137 29.8217 31.9137 29.8146 31.9137 29.8075C31.9137 29.8075 31.9137 29.8075 31.9137 29.8003C31.9137 29.8003 31.9137 29.786 31.9137 29.7789C31.9137 29.7503 31.9137 29.7146 31.9137 29.686C31.9137 29.6717 31.9137 29.6646 31.9137 29.6503C31.8994 29.3932 31.8565 29.086 31.778 28.736C31.7351 28.4932 31.6708 28.2575 31.6065 28.0146C31.578 27.9003 31.5422 27.7789 31.5137 27.6575C31.4922 27.586 31.478 27.5146 31.4565 27.4503C31.4565 27.4503 31.4494 27.436 31.4494 27.4289C30.728 24.9217 29.3494 21.4717 28.6494 19.7717C28.528 19.4575 28.3137 19.186 28.0351 18.9932C27.7565 18.8003 27.428 18.7003 27.0851 18.7003C26.7422 18.7003 26.428 18.8003 26.1351 18.9932C25.8565 19.186 25.6422 19.4503 25.5208 19.7575C23.3565 25.1146 22.2637 28.4932 22.2637 29.8003C22.2637 31.1075 22.7637 32.3289 23.6708 33.2503C24.5708 34.1646 25.8208 34.6932 27.0922 34.6932C28.3637 34.6932 29.5994 34.1789 30.5137 33.2503C31.2351 32.5146 31.6922 31.5932 31.8565 30.586C31.8922 30.3432 31.9208 30.0932 31.9208 29.8432H31.9137Z" fill="#FEFEFE"/>
<path d="M30.492 29.8003C30.492 30.7146 30.1349 31.6003 29.492 32.2432C28.8563 32.8932 27.992 33.2575 27.0849 33.2575C26.1777 33.2575 25.3206 32.8932 24.6777 32.2432C24.042 31.5932 23.6777 30.7146 23.6777 29.8003C23.6777 28.2003 26.0706 22.186 26.8349 20.286C26.8563 20.236 26.8849 20.2003 26.9277 20.1718C26.9706 20.1432 27.0206 20.1289 27.0706 20.1289C27.1206 20.1289 27.1706 20.1432 27.2134 20.1718C27.2563 20.2003 27.2849 20.2432 27.3063 20.286C28.092 22.2003 30.4849 28.2075 30.4849 29.8003H30.492Z" fill="#D3D3D3"/>
<path d="M30.0998 27.9003C29.9284 30.0646 27.6927 31.7931 24.9498 31.7931C24.7284 31.7931 24.5212 31.7931 24.2998 31.7574C24.7141 32.3574 25.3069 32.8074 25.9855 33.0431C26.6641 33.2788 27.4069 33.2931 28.0927 33.0717C28.7784 32.8574 29.3855 32.4217 29.8141 31.836C30.2427 31.2503 30.4784 30.536 30.4855 29.8074C30.4284 29.1574 30.2998 28.5217 30.0927 27.9003H30.0998Z" fill="#C6C6C6"/>
</svg>
