<svg width="40" height="40" viewBox="0 0 40 40" fill="none" xmlns="http://www.w3.org/2000/svg">
<rect width="40" height="40" rx="20" fill="#FEFEFE"/>
<path fill-rule="evenodd" clip-rule="evenodd" d="M25.0006 8.57185C25.0006 8.6733 24.997 8.77392 24.9901 8.87361C25.4303 8.67958 25.9171 8.57185 26.4291 8.57185C28.4016 8.57185 30.0006 10.1708 30.0006 12.1433C30.0006 14.1157 28.4016 15.7147 26.4291 15.7147H25.2916L27.1434 20.7147H12.8577L14.7131 15.7052C12.4802 15.5573 10.7148 13.6993 10.7148 11.429C10.7148 9.06206 12.6336 7.14328 15.0006 7.14328C15.5581 7.14328 16.0907 7.24972 16.5792 7.4434C17.0745 5.62394 18.7385 4.28613 20.7148 4.28613C23.0818 4.28613 25.0006 6.20491 25.0006 8.57185Z" fill="#D9D9D9"/>
<path d="M30.2055 19.165C30.0738 19.2401 29.9123 19.24 29.7807 19.1648L25.2056 16.5505C25.0739 16.4752 24.9121 16.4752 24.7804 16.5505L20.2056 19.1646C20.0739 19.2399 19.9121 19.2399 19.7804 19.1646L15.2058 16.5506C15.0739 16.4752 14.9121 16.4753 14.7803 16.5507L10.2128 19.1644C10.081 19.2398 9.91921 19.2399 9.78739 19.1646L7.20473 17.6896C6.94999 17.5441 6.6278 17.6919 6.58369 17.982C6.48362 18.6399 6.42871 19.3138 6.42871 20.0004C6.42871 27.4933 12.5073 33.5718 20.0001 33.5718C27.493 33.5718 33.5716 27.4933 33.5716 20.0004C33.5716 19.3136 33.5166 18.6395 33.4165 17.9814C33.3724 17.6915 33.0505 17.5437 32.7958 17.6888L30.2055 19.165Z" fill="#FFC847"/>
<path d="M21.4287 25.7147C19.1644 25.7147 17.143 27.1433 16.4287 27.8576H23.5716C23.5716 27.1433 23.693 25.7147 21.4287 25.7147Z" fill="#33280E"/>
<path fill-rule="evenodd" clip-rule="evenodd" d="M18.0241 25.8816C18.967 25.4019 20.1508 25.0004 21.4292 25.0004C22.7165 25.0004 23.5485 25.4193 23.9713 26.1664C24.3025 26.7515 24.2923 27.4296 24.2873 27.7634C24.2868 27.7988 24.2863 27.8304 24.2863 27.8575C24.2863 28.252 23.9665 28.5718 23.572 28.5718H16.4292C16.1402 28.5718 15.8798 28.3978 15.7692 28.1309C15.6587 27.8639 15.7198 27.5567 15.9241 27.3524C16.3368 26.9397 17.0826 26.3604 18.0241 25.8816ZM18.6947 27.1432H22.8242C22.805 27.0433 22.775 26.953 22.7281 26.8701C22.6456 26.7243 22.4061 26.4289 21.4292 26.4289C20.4525 26.4289 19.5022 26.7358 18.6947 27.1432Z" fill="#33280E"/>
<path d="M16.4286 23.5719C17.2175 23.5719 17.8571 22.9323 17.8571 22.1433C17.8571 21.3543 17.2175 20.7147 16.4286 20.7147C15.6396 20.7147 15 21.3543 15 22.1433C15 22.9323 15.6396 23.5719 16.4286 23.5719Z" fill="#33280E"/>
<path d="M23.5711 23.5719C24.3601 23.5719 24.9997 22.9323 24.9997 22.1433C24.9997 21.3543 24.3601 20.7147 23.5711 20.7147C22.7822 20.7147 22.1426 21.3543 22.1426 22.1433C22.1426 22.9323 22.7822 23.5719 23.5711 23.5719Z" fill="#33280E"/>
<path d="M12.8571 14.2861C12.8571 15.0751 12.2175 15.7147 11.4286 15.7147C10.6396 15.7147 10 15.0751 10 14.2861C10 13.4971 10.6396 12.8575 11.4286 12.8575C12.2175 12.8575 12.8571 13.4971 12.8571 14.2861Z" fill="#FFC847"/>
<path d="M26.4284 6.42894C26.4284 7.21792 25.7888 7.85751 24.9999 7.85751C24.2109 7.85751 23.5713 7.21792 23.5713 6.42894C23.5713 5.63996 24.2109 5.00037 24.9999 5.00037C25.7888 5.00037 26.4284 5.63996 26.4284 6.42894Z" fill="#FFC847"/>
<path d="M29.9997 15.7147C29.9997 16.5037 29.3601 17.1433 28.5711 17.1433C27.7822 17.1433 27.1426 16.5037 27.1426 15.7147C27.1426 14.9257 27.7822 14.2861 28.5711 14.2861C29.3601 14.2861 29.9997 14.9257 29.9997 15.7147Z" fill="#FFC847"/>
</svg>
