<svg width="40" height="40" viewBox="0 0 40 40" fill="none" xmlns="http://www.w3.org/2000/svg">
<rect width="40" height="40" rx="20" fill="#FEFEFE"/>
<path d="M31.4289 14.9999H8.57171C8.38227 14.9999 8.20059 15.0751 8.06663 15.2091C7.93268 15.343 7.85742 15.5247 7.85742 15.7142V20.7142C7.85884 22.6133 8.49095 24.4582 9.6545 25.9592C10.818 27.4602 12.4471 28.5322 14.286 29.007V29.9999C14.286 30.1893 14.3612 30.371 14.4952 30.505C14.6292 30.6389 14.8108 30.7142 15.0003 30.7142H25.0003C25.1897 30.7142 25.3714 30.6389 25.5054 30.505C25.6393 30.371 25.7146 30.1893 25.7146 29.9999V29.007C27.5534 28.5322 29.1825 27.4602 30.3461 25.9592C31.5096 24.4582 32.1417 22.6133 32.1431 20.7142V15.7142C32.1431 15.5247 32.0679 15.343 31.9339 15.2091C31.8 15.0751 31.6183 14.9999 31.4289 14.9999Z" fill="#D3D3D3"/>
<path d="M31.4293 14.9999H28.5721C28.7616 14.9999 28.9432 15.0751 29.0772 15.2091C29.2112 15.343 29.2864 15.5247 29.2864 15.7142V20.7142C29.2864 24.4332 26.913 26.5969 23.6035 27.6438C23.1684 27.7814 22.8578 28.176 22.8578 28.6323V29.9999C22.8578 30.1893 22.7826 30.371 22.6486 30.505C22.5147 30.6389 22.333 30.7142 22.1436 30.7142H25.0007C25.1901 30.7142 25.3718 30.6389 25.5058 30.505C25.6397 30.371 25.715 30.1893 25.715 29.9999V29.007C27.5538 28.5322 29.1829 27.4602 30.3465 25.9592C31.51 24.4582 32.1421 22.6133 32.1436 20.7142V15.7142C32.1436 15.5247 32.0683 15.343 31.9343 15.2091C31.8004 15.0751 31.6187 14.9999 31.4293 14.9999Z" fill="#C6C6C6"/>
<path d="M15.0006 8.57129H25.0006C26.1372 8.57129 27.2273 9.02282 28.031 9.82655C28.8347 10.6303 29.2863 11.7204 29.2863 12.857C29.2863 13.0464 29.211 13.2281 29.0771 13.3621C28.9431 13.496 28.7614 13.5713 28.572 13.5713H11.4291C11.2397 13.5713 11.058 13.496 10.9241 13.3621C10.7901 13.2281 10.7148 13.0464 10.7148 12.857C10.7148 11.7204 11.1664 10.6303 11.9701 9.82655C12.7738 9.02282 13.8639 8.57129 15.0006 8.57129V8.57129Z" fill="#EAEAEA"/>
</svg>
