<svg width="40" height="40" viewBox="0 0 40 40" fill="none" xmlns="http://www.w3.org/2000/svg">
<rect width="40" height="40" rx="20" fill="#FEFEFE"/>
<path d="M20.4979 5.71387C15.0922 5.71387 10.7148 10.7139 10.7148 16.8496C10.7148 20.571 12.8071 24.3639 14.7852 25.8853C15.2636 26.271 15.0065 30.9782 14.8637 33.1782C14.8536 33.3187 14.873 33.4599 14.9209 33.5924C14.9642 33.7268 15.0347 33.8508 15.1279 33.9567C15.2175 34.0582 15.3273 34.1399 15.4503 34.1965C15.5732 34.2531 15.7067 34.2833 15.842 34.2853H25.0396C25.1576 34.2864 25.2745 34.262 25.3823 34.2139C25.4944 34.1642 25.5961 34.094 25.6823 34.0067C25.7732 33.9123 25.8436 33.8002 25.8891 33.6772C25.9345 33.5543 25.9541 33.4233 25.9465 33.2924V30.5853C25.9457 30.5204 25.9579 30.4559 25.9824 30.3958C26.007 30.3357 26.0433 30.2811 26.0893 30.2353C26.1318 30.1884 26.1836 30.1509 26.2414 30.1251C26.2991 30.0992 26.3616 30.0857 26.4249 30.0853H28.7814C29.1434 30.0844 29.5013 30.0091 29.833 29.8641C30.1646 29.7191 30.463 29.5075 30.7095 29.2424C31.2298 28.6956 31.5189 27.9688 31.5164 27.2139V24.4567C31.5154 24.3594 31.5454 24.2643 31.6021 24.1853C31.6584 24.1071 31.7386 24.0495 31.8306 24.021C32.5428 23.8255 33.2199 23.5194 33.8372 23.1139C34.0257 22.9888 34.1646 22.8019 34.23 22.5853C34.305 22.3653 34.305 22.1267 34.23 21.9067L31.9877 16.4282C31.957 16.3479 31.9378 16.2638 31.9306 16.1782C31.7797 13.3766 30.5967 10.7301 28.61 8.74958C26.6783 6.8194 24.0638 5.72867 21.3334 5.71387" fill="#E0E0E0"/>
<path fill-rule="evenodd" clip-rule="evenodd" d="M22.642 28.7568C20.9008 30.0835 20.1562 31.9619 20.1562 34.2853H18.6562C18.6562 31.6086 19.5367 29.2371 21.733 27.5637C23.89 25.9202 26.8155 25.0353 31.5134 25.0353V26.4638C26.9613 26.4638 24.4225 27.4003 22.642 28.7568Z" fill="#1B58B3"/>
<path fill-rule="evenodd" clip-rule="evenodd" d="M23.3921 29.2477C21.8029 30.4404 21.1582 32.145 21.1582 34.2853H20.1582C20.1582 31.9256 20.8835 29.8802 22.7918 28.4479C24.6686 27.0393 27.2179 26.4639 31.5142 26.4639V27.1782C27.3005 27.1781 25.0128 28.0313 23.3921 29.2477Z" fill="#15458C"/>
<path fill-rule="evenodd" clip-rule="evenodd" d="M18.311 25.0774C18.0224 24.1072 17.4887 23.2281 16.7616 22.5249V13.4874C16.7445 12.6527 16.4846 11.8411 16.0136 11.1521C15.5427 10.4632 14.8812 9.92677 14.1103 9.60873C13.3394 9.29069 12.4926 9.20482 11.6737 9.36164C10.8548 9.51845 10.0993 9.91115 9.50001 10.4916C9.10285 10.8823 8.78771 11.3487 8.57313 11.8631C8.35854 12.3776 8.24884 12.9298 8.25048 13.4874V22.5249C7.61798 23.138 7.12838 23.8833 6.81659 24.7076C6.5048 25.532 6.3785 26.4151 6.44669 27.2939C6.51489 28.1728 6.7759 29.0258 7.21111 29.792C7.64632 30.5582 8.24502 31.2189 8.9645 31.7268C9.73447 32.2755 10.6214 32.6373 11.5551 32.7835C12.4888 32.9297 13.4437 32.8563 14.3442 32.5691C15.2447 32.282 16.0661 31.7889 16.7435 31.129C17.4208 30.469 17.9355 29.6603 18.2467 28.7667C18.6567 27.5746 18.6792 26.2831 18.311 25.0774Z" fill="#FEFEFE"/>
<path d="M15.3334 23.1753V13.4871C15.3345 13.1184 15.2617 12.7531 15.1195 12.4129C14.9772 12.0728 14.7683 11.7646 14.5051 11.5066C13.9712 10.9826 13.2535 10.6891 12.5059 10.6891C11.7583 10.6891 11.0405 10.9826 10.5066 11.5066C10.2434 11.7646 10.0345 12.0728 9.89225 12.4129C9.74999 12.7531 9.67726 13.1184 9.67835 13.4871V23.1753C9.10493 23.6091 8.64177 24.1722 8.32649 24.8189C8.01121 25.4656 7.8527 26.1776 7.86383 26.8972C7.87496 27.6168 8.05542 28.3236 8.39055 28.9602C8.72568 29.5968 9.20603 30.1453 9.79259 30.5611C10.582 31.1197 11.5249 31.4197 12.4916 31.4197C13.4582 31.4197 14.4011 31.1197 15.1906 30.5611C15.7793 30.1474 16.262 29.6002 16.5993 28.9641C16.9367 28.328 17.119 27.621 17.1316 26.9009C17.1441 26.1808 16.9864 25.468 16.6714 24.8205C16.3565 24.173 15.8931 23.6093 15.3191 23.1753H15.3334Z" fill="#E9F2FF"/>
<path d="M13.3625 23.9907V13.5018C13.3625 13.3914 13.3407 13.282 13.2982 13.1801C13.2541 13.0785 13.1911 12.9863 13.1126 12.9084C13.0334 12.8281 12.9386 12.7648 12.8341 12.7225C12.7285 12.6857 12.6175 12.6663 12.5057 12.6653C12.2774 12.664 12.0574 12.7511 11.8916 12.9084C11.7332 13.0653 11.6434 13.2787 11.6417 13.5018V24.005C10.93 24.1995 10.3117 24.6436 9.89952 25.2563C9.49335 25.8578 9.3277 26.5902 9.4354 27.3083C9.55265 28.0325 9.93434 28.6874 10.5064 29.1458C11.0753 29.6217 11.793 29.8823 12.5342 29.8823C13.2755 29.8823 13.9932 29.6217 14.5621 29.1458C15.1229 28.6845 15.4922 28.0306 15.5978 27.3115C15.7034 26.5924 15.5378 25.8597 15.1333 25.2563C14.7141 24.638 14.0848 24.1933 13.3625 24.005V23.9907Z" fill="#BED8FF"/>
<path d="M13.3625 23.9906V20.7374C13.3625 20.6293 13.3407 20.5223 13.2982 20.4228C13.256 20.3182 13.1928 20.2233 13.1126 20.144C13.033 20.066 12.9382 20.0051 12.8341 19.9652C12.7298 19.9227 12.6183 19.9009 12.5057 19.9009C12.2774 19.8996 12.0574 19.9867 11.8916 20.144C11.7332 20.3009 11.6434 20.5143 11.6417 20.7374V24.0049C10.93 24.1994 10.3117 24.6435 9.89952 25.2562C9.49335 25.8577 9.3277 26.5901 9.4354 27.3082C9.55265 28.0324 9.93434 28.6873 10.5064 29.1457C11.0753 29.6216 11.793 29.8822 12.5342 29.8822C13.2755 29.8822 13.9932 29.6216 14.5621 29.1457C15.1229 28.6844 15.4922 28.0305 15.5978 27.3114C15.7034 26.5923 15.5378 25.8596 15.1333 25.2562C14.7141 24.6379 14.0848 24.1932 13.3625 24.0049V23.9906Z" fill="#1B58B3"/>
<path fill-rule="evenodd" clip-rule="evenodd" d="M15.0774 25.2273C15.0951 25.408 15.0951 25.59 15.0774 25.7707C14.9723 26.4928 14.6034 27.1501 14.042 27.6154C13.4732 28.0912 12.7555 28.3519 12.0142 28.3519C11.273 28.3519 10.5553 28.0912 9.9864 27.6154C9.77992 27.4399 9.59746 27.238 9.44375 27.0148C9.43672 27.1124 9.43672 27.2103 9.44375 27.3079C9.55813 28.0335 9.93721 28.6908 10.5076 29.1526C11.0777 29.629 11.7966 29.8899 12.539 29.8899C13.2815 29.8899 14.0004 29.629 14.5704 29.1526C15.1271 28.6834 15.4949 28.028 15.6057 27.3079C15.7065 26.5891 15.5387 25.8584 15.1345 25.2559L15.0774 25.2273Z" fill="#15458C"/>
</svg>
