<svg width="40" height="40" viewBox="0 0 40 40" fill="none" xmlns="http://www.w3.org/2000/svg">
<rect width="40" height="40" rx="20" fill="#FEFEFE"/>
<g clip-path="url(#clip0_2299_2449)">
<path fill-rule="evenodd" clip-rule="evenodd" d="M24.5222 7.14262C25.9944 7.13711 27.412 7.70003 28.4794 8.71405C29.2722 9.48548 33.0508 12.9998 34.1294 14.014C34.2102 14.0905 34.2632 14.1917 34.28 14.3017C34.2968 14.4116 34.2765 14.5241 34.2222 14.6212C33.1865 16.3498 28.0508 24.2855 20.0008 24.2855C11.9508 24.2855 6.81507 16.3498 5.77935 14.5998C5.72508 14.5027 5.70475 14.3902 5.72157 14.2803C5.73839 14.1703 5.7914 14.0691 5.87221 13.9926C6.95078 12.9998 10.7151 9.46405 11.5222 8.71405C12.5911 7.70956 14.0054 7.15459 15.4722 7.16405C16.325 7.2377 17.1456 7.52512 17.8579 7.99976C18.4977 8.43445 19.2327 8.70884 20.0008 8.79976C20.7689 8.70884 21.5039 8.43445 22.1436 7.99976C22.8518 7.51866 23.6699 7.22386 24.5222 7.14262ZM23.3008 11.6855C24.2801 11.6632 25.2532 11.8457 26.1579 12.2212C26.8722 12.5355 30.4794 14.164 30.4794 14.164C27.6093 16.7826 23.8644 18.2343 19.9794 18.2343C16.0943 18.2343 12.3494 16.7826 9.47935 14.164C9.47935 14.164 13.1222 12.5355 13.8008 12.2212C14.7055 11.8457 15.6786 11.6632 16.6579 11.6855C17.2466 11.7091 17.8298 11.8075 18.3936 11.9783C18.913 12.1528 19.4537 12.2562 20.0008 12.2855C20.5322 12.2616 21.0581 12.168 21.5651 12.0069C22.1276 11.8264 22.7109 11.7184 23.3008 11.6855Z" fill="#E0E0E0"/>
<path fill-rule="evenodd" clip-rule="evenodd" d="M29.2863 18.6874C29.2858 18.4125 29.2667 18.138 29.2291 17.8657C29.2325 17.8516 29.2325 17.8369 29.2291 17.8228C28.8077 14.5645 25.972 12.8568 23.2148 12.8568H22.9291C21.9099 12.8572 20.9056 13.1023 20.0006 13.5713C19.0956 13.1023 18.0913 12.8572 17.072 12.8568H16.8577C13.8077 12.8568 10.7148 14.8575 10.7148 18.6874C10.7148 23.4605 11.6077 27.2046 13.2648 29.7412C13.2986 29.8325 13.3442 29.919 13.4006 29.9984C14.0995 31.0733 15.0507 31.9608 16.1712 32.5836C17.2917 33.2063 18.5476 33.5453 19.8291 33.5711H20.1506C25.972 33.3782 29.2863 27.962 29.2863 18.716V18.6874Z" fill="#FEFEFE"/>
<path d="M27.8578 18.698C27.8578 15.6571 25.365 14.2904 23.1436 14.2904C22.0183 14.2396 20.9095 14.5754 20.0007 15.2421C19.0919 14.5754 17.9831 14.2396 16.8578 14.2904C14.615 14.2904 12.1436 15.6356 12.1436 18.698C12.1436 21.7604 12.5364 31.8921 19.865 32.1425H20.1364C27.465 31.8921 27.8578 21.696 27.8578 18.698Z" fill="#F36670"/>
<path fill-rule="evenodd" clip-rule="evenodd" d="M25.3791 14.7913C25.6413 15.386 25.7729 16.0302 25.7648 16.6802C25.7648 19.6854 25.372 29.8815 18.0434 30.1319H17.7648C16.6386 30.1021 15.54 29.7764 14.5791 29.1874C15.1474 30.0795 15.9277 30.8165 16.8502 31.3322C17.7727 31.8479 18.8085 32.1264 19.8648 32.1425H20.1362C27.4648 31.9207 27.8577 21.7246 27.8577 18.7266C27.8883 17.8969 27.6681 17.0772 27.2258 16.375C26.7836 15.6728 26.1399 15.1208 25.3791 14.7913Z" fill="#CB2B36"/>
<path d="M18.7861 24.714C18.7861 24.9118 18.7275 25.1051 18.6176 25.2696C18.5077 25.434 18.3515 25.5622 18.1688 25.6379C17.9861 25.7136 17.785 25.7334 17.591 25.6948C17.3971 25.6562 17.2189 25.5609 17.079 25.4211C16.9392 25.2812 16.8439 25.1031 16.8053 24.9091C16.7668 24.7151 16.7866 24.514 16.8623 24.3313C16.9379 24.1486 17.0661 23.9924 17.2306 23.8825C17.395 23.7726 17.5884 23.714 17.7861 23.714C18.0513 23.714 18.3057 23.8193 18.4932 24.0069C18.6808 24.1944 18.7861 24.4488 18.7861 24.714Z" fill="#60141A"/>
<path d="M22.7861 18.714C22.7861 18.9118 22.7275 19.1051 22.6176 19.2696C22.5077 19.434 22.3515 19.5622 22.1688 19.6379C21.9861 19.7136 21.785 19.7334 21.591 19.6948C21.3971 19.6562 21.2189 19.5609 21.079 19.4211C20.9392 19.2812 20.8439 19.1031 20.8053 18.9091C20.7668 18.7151 20.7866 18.514 20.8623 18.3313C20.9379 18.1486 21.0661 17.9924 21.2306 17.8825C21.395 17.7726 21.5884 17.714 21.7861 17.714C22.0514 17.714 22.3057 17.8193 22.4932 18.0069C22.6808 18.1944 22.7861 18.4488 22.7861 18.714Z" fill="#60141A"/>
<path d="M13.4287 20.2854C13.4287 20.4832 13.3701 20.6765 13.2602 20.841C13.1503 21.0054 12.9941 21.1336 12.8114 21.2093C12.6287 21.285 12.4276 21.3048 12.2336 21.2662C12.0396 21.2276 11.8615 21.1324 11.7216 20.9925C11.5818 20.8527 11.4865 20.6745 11.4479 20.4805C11.4093 20.2865 11.4291 20.0854 11.5048 19.9027C11.5805 19.72 11.7087 19.5638 11.8731 19.4539C12.0376 19.344 12.2309 19.2854 12.4287 19.2854C12.6939 19.2854 12.9483 19.3908 13.1358 19.5783C13.3234 19.7658 13.4287 20.0202 13.4287 20.2854Z" fill="#60141A"/>
<path fill-rule="evenodd" clip-rule="evenodd" d="M20.0007 18.5715C20.0457 18.5696 20.0907 18.5765 20.133 18.592C20.1754 18.6074 20.2142 18.631 20.2474 18.6614C20.2806 18.6918 20.3074 18.7285 20.3264 18.7692C20.3453 18.81 20.356 18.8541 20.3578 18.8989V26.7867C20.3578 26.8811 20.3202 26.9716 20.2532 27.0383C20.1863 27.1051 20.0954 27.1426 20.0007 27.1426C19.906 27.1426 19.8151 27.1051 19.7482 27.0383C19.6812 26.9716 19.6436 26.8811 19.6436 26.7867V18.8989C19.6454 18.8541 19.6561 18.81 19.675 18.7692C19.694 18.7285 19.7208 18.6918 19.754 18.6614C19.7872 18.631 19.826 18.6074 19.8684 18.592C19.9107 18.5765 19.9557 18.5696 20.0007 18.5715Z" fill="#CB2B36"/>
<path d="M28.5 21.2139C28.5 21.4116 28.4414 21.605 28.3315 21.7694C28.2216 21.9339 28.0654 22.0621 27.8827 22.1377C27.7 22.2134 27.4989 22.2332 27.3049 22.1947C27.1109 22.1561 26.9327 22.0608 26.7929 21.921C26.653 21.7811 26.5578 21.6029 26.5192 21.409C26.4806 21.215 26.5004 21.0139 26.5761 20.8312C26.6518 20.6485 26.78 20.4923 26.9444 20.3824C27.1089 20.2725 27.3022 20.2139 27.5 20.2139C27.7652 20.2139 28.0196 20.3192 28.2071 20.5068C28.3946 20.6943 28.5 20.9487 28.5 21.2139Z" fill="#60141A"/>
<path d="M17.2861 30.714C17.2861 30.9118 17.2275 31.1051 17.1176 31.2696C17.0077 31.434 16.8515 31.5622 16.6688 31.6379C16.4861 31.7136 16.285 31.7334 16.091 31.6948C15.8971 31.6562 15.7189 31.5609 15.579 31.4211C15.4392 31.2812 15.3439 31.1031 15.3053 30.9091C15.2668 30.7151 15.2866 30.514 15.3623 30.3313C15.4379 30.1486 15.5661 29.9924 15.7306 29.8825C15.895 29.7726 16.0884 29.714 16.2861 29.714C16.5513 29.714 16.8057 29.8193 16.9932 30.0069C17.1808 30.1944 17.2861 30.4488 17.2861 30.714Z" fill="#60141A"/>
<path d="M26.2861 28.214C26.2861 28.4118 26.2275 28.6051 26.1176 28.7696C26.0077 28.934 25.8515 29.0622 25.6688 29.1379C25.4861 29.2136 25.285 29.2334 25.091 29.1948C24.8971 29.1562 24.7189 29.0609 24.579 28.9211C24.4392 28.7812 24.3439 28.6031 24.3053 28.4091C24.2668 28.2151 24.2866 28.014 24.3623 27.8313C24.4379 27.6486 24.5661 27.4924 24.7306 27.3825C24.895 27.2726 25.0884 27.214 25.2861 27.214C25.5514 27.214 25.8057 27.3193 25.9932 27.5069C26.1808 27.6944 26.2861 27.9488 26.2861 28.214Z" fill="#60141A"/>
</g>
<defs>
<clipPath id="clip0_2299_2449">
<rect width="28.5714" height="26.6929" fill="white" transform="translate(5.71484 7.14258)"/>
</clipPath>
</defs>
</svg>
