<svg width="40" height="40" viewBox="0 0 40 40" fill="none" xmlns="http://www.w3.org/2000/svg">
<rect width="40" height="40" rx="20" fill="#FEFEFE"/>
<path d="M28.0017 17.629C26.5815 16.0211 25.3208 14.6304 26.0879 11.2406C26.1031 11.1754 26.1031 11.103 26.0727 11.0378C26.0423 10.9726 25.9968 10.9219 25.9284 10.8857C25.8677 10.8495 25.7993 10.8278 25.7234 10.8278C25.6474 10.8278 25.5791 10.8495 25.5183 10.8857C25.3979 10.9735 23.1166 12.6999 22.6318 15.2771C22.5967 15.4634 22.3449 15.5265 22.2454 15.3651C21.0552 13.4348 19.4331 9.77146 21.3337 6.19945C21.364 6.1415 21.3792 6.06907 21.3716 6.00388C21.364 5.9387 21.3337 5.87351 21.2805 5.82281C21.2349 5.77211 21.1666 5.73589 21.0982 5.7214C21.0299 5.70692 20.9539 5.71416 20.8856 5.73589C20.6805 5.80832 15.9111 7.63358 14.9542 11.61C14.6428 13.3121 14.5289 15.036 14.6276 16.7598C14.6276 17.9661 14.6589 19.1298 14.4949 19.92C14.455 20.1124 14.2436 20.0806 14.2202 19.8856C14.0257 18.2635 13.5336 16.0374 12.2885 15.9993C12.2049 15.9993 12.129 16.0283 12.0606 16.079C11.9999 16.1297 11.9543 16.1949 11.9315 16.2746C11.6353 17.4769 11.2328 18.6503 10.724 19.7874C10.2227 21.0477 9.97209 22.4022 10.0025 23.7567C10.0328 25.1111 10.3442 26.4511 10.929 27.6969C12.1517 30.6014 16.2149 33.571 20.3312 33.571C20.5742 33.571 20.8172 33.571 21.0451 33.5348C25.9208 33.1075 30.8042 29.9205 30.713 23.7639C30.6826 20.6349 29.2625 19.0414 28.0093 17.629H28.0017Z" fill="#FF6B00"/>
<path d="M20.6436 20.3427C20.7675 20.3427 20.8833 20.3621 20.9932 20.4003L21.001 20.4032C21.3001 20.5019 21.9749 20.8142 22.6289 21.368C23.2794 21.9189 23.8782 22.6817 24.0977 23.6786C24.1449 23.957 24.1837 24.2228 24.21 24.4852L24.2451 24.8329L24.583 24.9198C24.7419 24.9608 24.8797 25.0303 24.9873 25.12L24.9932 25.1239C25.1495 25.2508 25.2743 25.4334 25.3389 25.6327L25.3633 25.7186L25.3643 25.7245C25.4765 26.1883 25.6268 26.6616 25.8154 27.1151V27.1161C26.0974 27.8112 26.2279 28.5159 26.2148 29.2479C26.2018 29.9714 26.0533 30.6723 25.7637 31.3339C25.3099 32.2808 24.6351 33.0461 23.7979 33.5956C22.9849 34.1291 22.0469 34.4334 21.0732 34.493H20.5547C18.1131 34.2835 15.5919 32.5404 15.6436 29.2294V29.2235C15.6501 27.9575 16.1527 26.7631 17.0654 25.8632L17.0645 25.8622C17.3487 25.6 17.5372 25.3162 17.6367 24.9803C17.7397 24.6401 17.724 24.2866 17.6406 23.9716V23.9696L17.6182 23.871C17.5757 23.6433 17.6025 23.4357 17.6807 23.2548L17.6816 23.2538C17.77 23.0477 17.9214 22.8745 18.1045 22.7665L18.1162 22.7587C18.2813 22.6549 18.4815 22.5995 18.6865 22.5995C18.8325 22.5995 18.9778 22.6286 19.125 22.6864L20.1201 23.078L19.7822 22.0634C19.7644 22.0099 19.7419 21.9674 19.7324 21.9501L19.7266 21.9403L19.7227 21.9325L19.7178 21.9247L19.6582 21.7968C19.6063 21.6667 19.5792 21.5314 19.5791 21.4003C19.5791 21.178 19.6449 20.966 19.7754 20.7802C19.8194 20.7215 19.8413 20.6947 19.8613 20.6747L19.8672 20.6688C20.0137 20.5175 20.2034 20.4113 20.4102 20.368L20.4121 20.3671C20.4778 20.353 20.5788 20.3427 20.6436 20.3427Z" fill="#FEFEFE" stroke="#FEFEFE"/>
<path d="M24.9645 27.4782C24.7502 26.9782 24.5859 26.4568 24.4574 25.9211C24.4502 25.8854 24.4288 25.8568 24.4002 25.8354C24.3716 25.8139 24.3431 25.7996 24.3074 25.7996C23.7074 25.7996 23.5216 27.0996 23.4645 27.8068C23.3145 27.2639 23.2645 26.6996 23.3216 26.1425C23.3645 25.3854 23.3216 24.6211 23.1859 23.8711C22.7931 22.0925 20.8002 21.2996 20.6859 21.2711C20.6574 21.2639 20.6288 21.2568 20.6002 21.2711C20.5716 21.2711 20.5431 21.2925 20.5216 21.3139C20.5074 21.3354 20.4931 21.3639 20.4931 21.3996C20.4931 21.4353 20.5002 21.4568 20.5216 21.4854C21.3931 23.2139 20.5216 24.9782 20.0074 25.7496C19.8859 24.8853 19.4359 24.1068 18.7574 23.5568C18.7288 23.5425 18.7002 23.5282 18.6716 23.5282C18.6431 23.5282 18.6074 23.5354 18.5859 23.5568C18.5574 23.5711 18.5359 23.5925 18.5288 23.6211C18.5145 23.6496 18.5145 23.6782 18.5288 23.7068C18.6716 24.2068 18.6716 24.7354 18.5288 25.2354C18.3859 25.7354 18.1074 26.1854 17.7216 26.5354C16.9931 27.2568 16.5788 28.2282 16.5788 29.2496C16.5359 31.9711 18.6002 33.3996 20.6502 33.5711H20.9574C21.7931 33.5354 22.6002 33.2782 23.3002 32.8139C24.0002 32.3568 24.5574 31.7211 24.9216 30.9711C25.1645 30.4211 25.2931 29.8282 25.3002 29.2354C25.3074 28.6354 25.2002 28.0425 24.9788 27.4854L24.9645 27.4782Z" fill="#FFB580"/>
</svg>
