<svg width="40" height="40" viewBox="0 0 40 40" fill="none" xmlns="http://www.w3.org/2000/svg">
<rect width="40" height="40" rx="20" fill="#FEFEFE"/>
<path d="M20.0001 33.5718C27.4954 33.5718 33.5716 27.4957 33.5716 20.0004C33.5716 12.5051 27.4954 6.42896 20.0001 6.42896C12.5048 6.42896 6.42871 12.5051 6.42871 20.0004C6.42871 27.4957 12.5048 33.5718 20.0001 33.5718Z" fill="#FFC847"/>
<path fill-rule="evenodd" clip-rule="evenodd" d="M14.3612 14.681C14.5376 14.3282 14.9667 14.1852 15.3195 14.3616L18.1767 15.7901C18.4187 15.9111 18.5715 16.1585 18.5715 16.429C18.5715 16.6996 18.4187 16.9469 18.1767 17.0679L15.3195 18.4965C14.9667 18.6729 14.5376 18.5299 14.3612 18.177C14.1848 17.8242 14.3278 17.3951 14.6806 17.2187L16.26 16.429L14.6806 15.6393C14.3278 15.4629 14.1848 15.0339 14.3612 14.681Z" fill="#33280E"/>
<path fill-rule="evenodd" clip-rule="evenodd" d="M25.6388 14.681C25.4624 14.3282 25.0333 14.1852 24.6805 14.3616L21.8233 15.7901C21.5813 15.9111 21.4285 16.1585 21.4285 16.429C21.4285 16.6996 21.5813 16.9469 21.8233 17.0679L24.6805 18.4965C25.0333 18.6729 25.4624 18.5299 25.6388 18.177C25.8152 17.8242 25.6722 17.3951 25.3194 17.2187L23.74 16.429L25.3194 15.6393C25.6722 15.4629 25.8152 15.0339 25.6388 14.681Z" fill="#33280E"/>
<path d="M24.9518 15.4736C24.2598 14.7816 23.8659 13.822 23.876 12.832C23.8911 11.3218 25.8104 6.80646 26.1943 5.91753C26.3105 5.63974 26.5074 5.40235 26.76 5.23063C27.0479 5.04375 27.3509 4.95283 27.6641 4.95283C27.9469 4.94273 28.2601 5.03365 28.5378 5.21042C28.6237 5.26598 28.7247 5.34679 28.7954 5.4175C28.9419 5.56398 29.0581 5.73065 29.1338 5.91753C29.1439 5.92763 29.1692 6.00339 29.1692 6.01349C30.7046 9.90258 31.3309 11.8724 31.3208 12.8219C31.3158 13.8068 30.9218 14.7362 30.2147 15.4433C29.5076 16.1504 28.5732 16.5393 27.5883 16.5443C26.6034 16.5494 25.6387 16.1605 24.9468 15.4685L24.9518 15.4736Z" fill="#FEFEFE"/>
<path d="M29.8926 12.8066C29.8876 13.4178 29.6401 13.9986 29.2057 14.433C28.7714 14.8673 28.1855 15.1098 27.5794 15.1199C26.9683 15.1249 26.3874 14.8875 25.9632 14.4633C25.5389 14.039 25.2965 13.4531 25.3066 12.847C25.3217 11.7813 26.9582 7.771 27.5087 6.49316C27.5188 6.46285 27.544 6.4376 27.5743 6.4174C27.5996 6.39214 27.635 6.38709 27.6653 6.38709C27.6956 6.38709 27.7309 6.39214 27.7612 6.41235C27.7865 6.4376 27.8067 6.4578 27.8269 6.48811C28.3219 7.7508 29.9128 11.746 29.8977 12.8117L29.8926 12.8066Z" fill="#BED8FF"/>
<path d="M29.8866 12.8111C29.8563 12.4171 29.7805 12.0383 29.6643 11.6696C29.528 12.3009 29.1795 12.8717 28.6693 13.2808C28.1643 13.695 27.538 13.9172 26.8864 13.9222C26.351 13.9323 25.8308 13.7859 25.3813 13.498C25.5328 14.0233 25.8662 14.4778 26.3308 14.7708C26.7955 15.0637 27.346 15.1799 27.8915 15.0991C28.437 15.0183 28.937 14.7405 29.3007 14.3162C29.6643 13.8919 29.8664 13.3566 29.8714 12.806L29.8866 12.8111Z" fill="#93BEFF"/>
<path d="M15.7144 23.5719C15.7144 22.7829 16.3539 22.1433 17.1429 22.1433H22.8572C23.6462 22.1433 24.2858 22.7829 24.2858 23.5719C24.2858 24.3609 23.6462 25.0005 22.8572 25.0005H17.1429C16.3539 25.0005 15.7144 24.3609 15.7144 23.5719Z" fill="#33280E"/>
</svg>
