<svg width="40" height="40" viewBox="0 0 40 40" fill="none" xmlns="http://www.w3.org/2000/svg">
<rect width="40" height="40" rx="20" fill="#FEFEFE"/>
<g clip-path="url(#clip0_2299_2457)">
<path d="M23.5522 17.434V18.0635H26.4613V9.65773C26.4613 9.05785 25.8667 8.47278 25.0032 8.47278C24.1397 8.47278 23.6159 8.9986 23.5593 9.56886V16.3601C23.5593 16.3601 23.5593 16.3749 23.5593 16.3823V17.3229V17.4044C23.5593 17.4044 23.5593 17.4266 23.5593 17.434H23.5522Z" fill="#E0E0E0"/>
<path d="M22.9296 9.65781V7.63598C22.9012 7.29531 22.7385 6.97685 22.4695 6.74727C22.2005 6.51768 21.8537 6.40659 21.4998 6.42881H21.4927H21.4856C20.6221 6.42881 20.0276 7.01388 20.0276 7.62117V16.3602C20.0276 16.3602 20.0205 16.3972 20.0205 16.412V17.3156H22.9296V9.65781Z" fill="#E0E0E0"/>
<path d="M15.8517 18.0561V17.4414L15.8446 12.8423C15.8021 12.272 15.2146 11.724 14.3582 11.724C13.4664 11.724 12.8647 12.3091 12.8647 12.909V19.5373H15.8517V18.0561Z" fill="#E0E0E0"/>
<path d="M19.3905 17.4561L19.3834 9.53917C19.3551 9.19849 19.1923 8.88004 18.9233 8.65045C18.6544 8.42087 18.3076 8.30237 17.9466 8.332H17.9324H17.9183C17.1822 8.332 16.6442 8.76154 16.5027 9.25774C16.4956 9.30218 16.4814 9.34661 16.4814 9.38364C16.4814 9.39845 16.4814 9.41327 16.4814 9.42808V18.056H19.3905V17.4487V17.4561Z" fill="#E0E0E0"/>
<path d="M29.5827 17.5969C29.3137 17.3303 28.9386 17.1748 28.5493 17.1748C28.16 17.1748 27.792 17.3303 27.5159 17.5969C27.2469 17.8636 27.0912 18.2265 27.0912 18.6042V21.5814V22.4997C27.0912 22.6404 26.8718 22.8107 26.4754 22.7441C26.3764 22.7293 26.2348 22.7293 26.0649 22.7293C25.7181 22.7293 25.2722 22.7737 24.8334 22.9218C24.3945 23.07 23.9698 23.3218 23.6584 23.7365C23.347 24.1512 23.1205 24.7585 23.1205 25.662C23.1205 25.862 22.9648 26.0249 22.7666 26.0249C22.5684 26.0249 22.4127 25.862 22.4127 25.662C22.4127 24.6252 22.6746 23.855 23.0993 23.2921C23.5169 22.7293 24.076 22.4108 24.6139 22.2257C25.1448 22.0479 25.6756 21.9961 26.0649 21.9961C26.2277 21.9961 26.3622 21.9961 26.4684 22.0109V20.2112V18.0635H23.5593V20.2038C23.5593 20.389 23.4178 20.5371 23.2479 20.5371C23.078 20.5371 22.9365 20.389 22.9365 20.2112V18.0635V17.3229H20.0274V18.0635V20.2038C20.0274 20.389 19.8859 20.5371 19.716 20.5371C19.5461 20.5371 19.4045 20.389 19.4045 20.2038V18.0635H16.4813V20.1964C16.4813 20.1964 16.4813 20.1964 16.4813 20.2038C16.4813 20.389 16.3398 20.5371 16.1628 20.5371C15.9859 20.5371 15.8443 20.389 15.8443 20.2038C15.8443 20.2038 15.8443 20.2038 15.8443 20.1964V20.0261C15.8443 20.0261 15.8443 20.0261 15.8443 20.0187V19.5447H12.8574V20.0187H12.8787V26.6544C12.8787 28.4985 13.6077 30.2389 14.9242 31.5424C16.2478 32.8532 18.0031 33.579 19.8717 33.579H23.0002C24.8687 33.579 26.6241 32.8532 27.9477 31.5424C29.2642 30.2315 29.9861 28.4985 29.9861 26.6544V20.0187H30.0074V18.6116C30.0074 18.2339 29.8587 17.871 29.5827 17.6044V17.5969Z" fill="#E0E0E0"/>
</g>
<path d="M13.5716 34.2858C17.5165 34.2858 20.7144 31.0879 20.7144 27.143C20.7144 23.1981 17.5165 20.0001 13.5716 20.0001C9.62668 20.0001 6.42871 23.1981 6.42871 27.143C6.42871 31.0879 9.62668 34.2858 13.5716 34.2858Z" fill="#FEFEFE"/>
<path d="M14.5216 27.143C14.5216 27.6716 14.093 28.093 13.5716 28.093C13.0502 28.093 12.6216 27.6644 12.6216 27.143C12.6216 26.6216 13.0502 26.193 13.5716 26.193C14.093 26.193 14.5216 26.6216 14.5216 27.143Z" fill="#D9AA3C"/>
<path fill-rule="evenodd" clip-rule="evenodd" d="M13.5716 29.2287C14.7216 29.2287 15.6573 28.293 15.6573 27.143C15.6573 25.993 14.7216 25.0573 13.5716 25.0573C12.4216 25.0573 11.4858 25.993 11.4858 27.143C11.4858 28.293 12.4216 29.2287 13.5716 29.2287ZM13.5716 30.4787C15.4144 30.4787 16.9073 28.9858 16.9073 27.143C16.9073 25.3001 15.4144 23.8073 13.5716 23.8073C11.7287 23.8073 10.2358 25.3001 10.2358 27.143C10.2358 28.9858 11.7287 30.4787 13.5716 30.4787Z" fill="#D9AA3C"/>
<path fill-rule="evenodd" clip-rule="evenodd" d="M13.5717 31.6073C16.036 31.6073 18.036 29.6073 18.036 27.143C18.036 24.6787 16.036 22.6787 13.5717 22.6787C11.1074 22.6787 9.10742 24.6787 9.10742 27.143C9.10742 29.6073 11.1074 31.6073 13.5717 31.6073ZM13.5717 32.8573C16.7289 32.8573 19.286 30.3001 19.286 27.143C19.286 23.9859 16.7289 21.4287 13.5717 21.4287C10.4146 21.4287 7.85742 23.9859 7.85742 27.143C7.85742 30.3001 10.4146 32.8573 13.5717 32.8573Z" fill="#D9AA3C"/>
<path fill-rule="evenodd" clip-rule="evenodd" d="M13.0933 10.6643C13.0933 10.3661 13.3179 10.1291 13.6004 10.1291C14.2235 10.1291 14.535 10.6185 14.6944 10.8631C14.7017 10.8784 14.7089 10.8861 14.7162 10.9014C14.9118 11.2072 14.948 11.2072 14.9915 11.2072C15.035 11.2072 15.0712 11.2072 15.2668 10.9014C15.2668 10.8937 15.2813 10.8784 15.2885 10.8631C15.4407 10.6185 15.7595 10.1291 16.3826 10.1291C17.0056 10.1291 17.3172 10.6185 17.4766 10.8631C17.4838 10.8784 17.4911 10.8861 17.4983 10.9014C17.6939 11.2072 17.7302 11.2072 17.7736 11.2072C17.8171 11.2072 17.8533 11.2072 18.0489 10.9014C18.0489 10.8937 18.0634 10.8784 18.0707 10.8631C18.2228 10.6185 18.5416 10.1291 19.1647 10.1291C19.7878 10.1291 20.0993 10.6185 20.2587 10.8631C20.266 10.8784 20.2732 10.8861 20.2804 10.9014C20.4761 11.2072 20.5123 11.2072 20.5558 11.2072C20.5992 11.2072 20.6355 11.2072 20.8311 10.9014C20.8311 10.8937 20.8456 10.8784 20.8528 10.8631C21.005 10.6185 21.3237 10.1291 21.9468 10.1291C22.5699 10.1291 22.8887 10.6185 23.0408 10.8631C23.0481 10.8784 23.0553 10.8861 23.0626 10.8937C23.2582 11.1996 23.2944 11.1996 23.3379 11.1996C23.3814 11.1996 23.4176 11.1996 23.6132 10.8937C23.6132 10.8861 23.6277 10.8708 23.6349 10.8555C23.7871 10.6108 24.1059 10.1215 24.729 10.1215C25.0115 10.1215 25.2361 10.3585 25.2361 10.6567C25.2361 10.9549 25.0115 11.1919 24.729 11.1919C24.6855 11.1919 24.6493 11.1919 24.4536 11.4978C24.4464 11.5054 24.4392 11.5207 24.4319 11.536C24.2798 11.7807 23.961 12.2701 23.3379 12.2701C22.7148 12.2701 22.4033 11.7807 22.2439 11.536C22.2366 11.5207 22.2294 11.5131 22.2221 11.4978C22.0265 11.1919 21.9903 11.1919 21.9468 11.1919C21.9034 11.1919 21.8671 11.1919 21.6715 11.4978C21.6715 11.5054 21.657 11.5207 21.6498 11.536C21.4976 11.7807 21.1788 12.2701 20.5558 12.2701C19.9327 12.2701 19.6211 11.7807 19.4617 11.536C19.4545 11.5207 19.4473 11.5131 19.44 11.4978C19.2444 11.1919 19.2082 11.1919 19.1647 11.1919C19.1212 11.1919 19.085 11.1919 18.8894 11.4978C18.8894 11.5054 18.8749 11.5207 18.8676 11.536C18.7155 11.7807 18.3967 12.2701 17.7736 12.2701C17.1505 12.2701 16.839 11.7807 16.6796 11.536C16.6724 11.5207 16.6651 11.5131 16.6579 11.4978C16.4623 11.1919 16.426 11.1919 16.3826 11.1919C16.3391 11.1919 16.3029 11.1919 16.1072 11.4978C16.1072 11.5054 16.0928 11.5207 16.0855 11.536C15.9334 11.7807 15.6146 12.2701 14.9915 12.2701C14.3684 12.2701 14.0496 11.7807 13.8975 11.536C13.8902 11.5207 13.883 11.5131 13.8757 11.5054C13.6801 11.1996 13.6439 11.1996 13.6004 11.1996C13.3179 11.1996 13.0933 10.9625 13.0933 10.6643Z" fill="#D9AA3C"/>
<path fill-rule="evenodd" clip-rule="evenodd" d="M13.0933 13.8759C13.0933 13.5777 13.3179 13.3407 13.6004 13.3407C14.2235 13.3407 14.535 13.83 14.6944 14.0747C14.7017 14.09 14.7089 14.0976 14.7162 14.1129C14.9118 14.4188 14.948 14.4188 14.9915 14.4188C15.035 14.4188 15.0712 14.4188 15.2668 14.1129C15.2668 14.1053 15.2813 14.09 15.2885 14.0747C15.4407 13.83 15.7595 13.3407 16.3826 13.3407C17.0056 13.3407 17.3172 13.83 17.4766 14.0747C17.4838 14.09 17.4911 14.0976 17.4983 14.1129C17.6939 14.4188 17.7302 14.4188 17.7736 14.4188C17.8171 14.4188 17.8533 14.4188 18.0489 14.1129C18.0489 14.1053 18.0634 14.09 18.0707 14.0747C18.2228 13.83 18.5416 13.3407 19.1647 13.3407C19.7878 13.3407 20.0993 13.83 20.2587 14.0747C20.266 14.09 20.2732 14.0976 20.2804 14.1129C20.4761 14.4188 20.5123 14.4188 20.5558 14.4188C20.5992 14.4188 20.6355 14.4188 20.8311 14.1129C20.8311 14.1053 20.8456 14.09 20.8528 14.0747C21.005 13.83 21.3237 13.3407 21.9468 13.3407C22.5699 13.3407 22.8887 13.83 23.0408 14.0747C23.0481 14.09 23.0553 14.0976 23.0626 14.1053C23.2582 14.4111 23.2944 14.4111 23.3379 14.4111C23.3814 14.4111 23.4176 14.4111 23.6132 14.1053C23.6132 14.0976 23.6277 14.0823 23.6349 14.067C23.7871 13.8224 24.1059 13.333 24.729 13.333C25.0115 13.333 25.2361 13.57 25.2361 13.8682C25.2361 14.1664 25.0115 14.4035 24.729 14.4035C24.6855 14.4035 24.6493 14.4035 24.4536 14.7093C24.4464 14.717 24.4392 14.7323 24.4319 14.7476C24.2798 14.9922 23.961 15.4816 23.3379 15.4816C22.7148 15.4816 22.4033 14.9922 22.2439 14.7476C22.2366 14.7323 22.2294 14.7246 22.2221 14.7093C22.0265 14.4035 21.9903 14.4035 21.9468 14.4035C21.9034 14.4035 21.8671 14.4035 21.6715 14.7093C21.6715 14.717 21.657 14.7323 21.6498 14.7476C21.4976 14.9922 21.1788 15.4816 20.5558 15.4816C19.9327 15.4816 19.6211 14.9922 19.4617 14.7476C19.4545 14.7323 19.4473 14.7246 19.44 14.7093C19.2444 14.4035 19.2082 14.4035 19.1647 14.4035C19.1212 14.4035 19.085 14.4035 18.8894 14.7093C18.8894 14.717 18.8749 14.7323 18.8676 14.7476C18.7155 14.9922 18.3967 15.4816 17.7736 15.4816C17.1505 15.4816 16.839 14.9922 16.6796 14.7476C16.6724 14.7323 16.6651 14.7246 16.6579 14.7093C16.4623 14.4035 16.426 14.4035 16.3826 14.4035C16.3391 14.4035 16.3029 14.4035 16.1072 14.7093C16.1072 14.717 16.0928 14.7323 16.0855 14.7476C15.9334 14.9922 15.6146 15.4816 14.9915 15.4816C14.3684 15.4816 14.0496 14.9922 13.8975 14.7476C13.8902 14.7323 13.883 14.7246 13.8757 14.717C13.6801 14.4111 13.6439 14.4111 13.6004 14.4111C13.3179 14.4111 13.0933 14.1741 13.0933 13.8759Z" fill="#D9AA3C"/>
<path fill-rule="evenodd" clip-rule="evenodd" d="M13.0933 17.0871C13.0933 16.7889 13.3179 16.5518 13.6004 16.5518C14.2235 16.5518 14.535 17.0412 14.6944 17.2859C14.7017 17.3012 14.7089 17.3088 14.7162 17.3241C14.9118 17.63 14.948 17.63 14.9915 17.63C15.035 17.63 15.0712 17.63 15.2668 17.3241C15.2668 17.3165 15.2813 17.3012 15.2885 17.2859C15.4407 17.0412 15.7595 16.5518 16.3826 16.5518C17.0056 16.5518 17.3172 17.0412 17.4766 17.2859C17.4838 17.3012 17.4911 17.3088 17.4983 17.3241C17.6939 17.63 17.7302 17.63 17.7736 17.63C17.8171 17.63 17.8533 17.63 18.0489 17.3241C18.0489 17.3165 18.0634 17.3012 18.0707 17.2859C18.2228 17.0412 18.5416 16.5518 19.1647 16.5518C19.7878 16.5518 20.0993 17.0412 20.2587 17.2859C20.266 17.3012 20.2732 17.3088 20.2804 17.3241C20.4761 17.63 20.5123 17.63 20.5558 17.63C20.5992 17.63 20.6355 17.63 20.8311 17.3241C20.8311 17.3165 20.8456 17.3012 20.8528 17.2859C21.005 17.0412 21.3237 16.5518 21.9468 16.5518C22.5699 16.5518 22.8887 17.0412 23.0408 17.2859C23.0481 17.3012 23.0553 17.3088 23.0626 17.3165C23.2582 17.6223 23.2944 17.6223 23.3379 17.6223C23.3814 17.6223 23.4176 17.6223 23.6132 17.3165C23.6132 17.3088 23.6277 17.2935 23.6349 17.2782C23.7871 17.0335 24.1059 16.5442 24.729 16.5442C25.0115 16.5442 25.2361 16.7812 25.2361 17.0794C25.2361 17.3776 25.0115 17.6147 24.729 17.6147C24.6855 17.6147 24.6493 17.6147 24.4536 17.9205C24.4464 17.9282 24.4392 17.9435 24.4319 17.9587C24.2798 18.2034 23.961 18.6928 23.3379 18.6928C22.7148 18.6928 22.4033 18.2034 22.2439 17.9587C22.2366 17.9435 22.2294 17.9358 22.2221 17.9205C22.0265 17.6147 21.9903 17.6147 21.9468 17.6147C21.9034 17.6147 21.8671 17.6147 21.6715 17.9205C21.6715 17.9282 21.657 17.9435 21.6498 17.9587C21.4976 18.2034 21.1788 18.6928 20.5558 18.6928C19.9327 18.6928 19.6211 18.2034 19.4617 17.9587C19.4545 17.9435 19.4473 17.9358 19.44 17.9205C19.2444 17.6147 19.2082 17.6147 19.1647 17.6147C19.1212 17.6147 19.085 17.6147 18.8894 17.9205C18.8894 17.9282 18.8749 17.9435 18.8676 17.9587C18.7155 18.2034 18.3967 18.6928 17.7736 18.6928C17.1505 18.6928 16.839 18.2034 16.6796 17.9587C16.6724 17.9435 16.6651 17.9358 16.6579 17.9205C16.4623 17.6147 16.426 17.6147 16.3826 17.6147C16.3391 17.6147 16.3029 17.6147 16.1072 17.9205C16.1072 17.9282 16.0928 17.9435 16.0855 17.9587C15.9334 18.2034 15.6146 18.6928 14.9915 18.6928C14.3684 18.6928 14.0496 18.2034 13.8975 17.9587C13.8902 17.9435 13.883 17.9358 13.8757 17.9282C13.6801 17.6223 13.6439 17.6223 13.6004 17.6223C13.3179 17.6223 13.0933 17.3853 13.0933 17.0871Z" fill="#D9AA3C"/>
<defs>
<clipPath id="clip0_2299_2457">
<rect width="17.1429" height="27.1429" fill="white" transform="translate(12.8574 6.42871)"/>
</clipPath>
</defs>
</svg>
