<svg width="40" height="40" viewBox="0 0 40 40" fill="none" xmlns="http://www.w3.org/2000/svg">
<rect width="40" height="40" rx="20" fill="#FEFEFE"/>
<g clip-path="url(#clip0_2299_2436)">
<path d="M31.1761 20.3939H8.8232C7.9414 20.3939 7.22656 21.0997 7.22656 21.9703V29.852C7.22656 30.7226 7.9414 31.4284 8.8232 31.4284H31.1761C32.0579 31.4284 32.7728 30.7226 32.7728 29.852V21.9703C32.7728 21.0997 32.0579 20.3939 31.1761 20.3939Z" fill="#C6C6C6"/>
<path d="M31.9749 11.724H8.02535C7.14355 11.724 6.42871 12.4298 6.42871 13.3004V21.1821C6.42871 22.0527 7.14355 22.7585 8.02535 22.7585H31.9749C32.8567 22.7585 33.5716 22.0527 33.5716 21.1821V13.3004C33.5716 12.4298 32.8567 11.724 31.9749 11.724Z" fill="#00154B"/>
<path d="M22.3949 20.3939H17.605C17.1641 20.3939 16.8066 20.7468 16.8066 21.1821V23.5466C16.8066 23.9819 17.1641 24.3348 17.605 24.3348H22.3949C22.8358 24.3348 23.1932 23.9819 23.1932 23.5466V21.1821C23.1932 20.7468 22.8358 20.3939 22.3949 20.3939Z" fill="#E0E0E0"/>
<path fill-rule="evenodd" clip-rule="evenodd" d="M25.5881 8.57129H14.4116C13.9707 8.57129 13.6133 8.92417 13.6133 9.35947C13.6133 9.79476 13.9707 10.1476 14.4116 10.1476H15.2099V11.724H16.8066V10.1476H23.1931V11.724H24.7898V10.1476H25.5881C26.029 10.1476 26.3864 9.79476 26.3864 9.35947C26.3864 8.92417 26.029 8.57129 25.5881 8.57129Z" fill="#E0E0E0"/>
</g>
<defs>
<clipPath id="clip0_2299_2436">
<rect width="27.1429" height="22.8571" fill="white" transform="translate(6.42871 8.57129)"/>
</clipPath>
</defs>
</svg>
